<svg id="Layer_1" data-name="Layer 1" xmlns="http://www.w3.org/2000/svg" width="713.52" height="360.83" viewBox="0 0 713.52 360.83">
  <g>
    <g style="isolation: isolate">
      <g style="isolation: isolate">
        <path d="M429.43,199h5.37v1.63h-7.37V185.28h2Z" transform="translate(-48.83 -23.78)" style="fill: #0897d1"/>
        <path d="M439.12,200a5.46,5.46,0,0,1-2.16-2.18,6.75,6.75,0,0,1-.78-3.29,6.47,6.47,0,0,1,.81-3.27,5.51,5.51,0,0,1,2.18-2.18,6.72,6.72,0,0,1,6.21,0,5.64,5.64,0,0,1,2.19,2.17,6.56,6.56,0,0,1,.8,3.28,6.45,6.45,0,0,1-.82,3.29,5.72,5.72,0,0,1-2.24,2.18,6.33,6.33,0,0,1-3.12.77A6.11,6.11,0,0,1,439.12,200Zm5.09-1.49a3.85,3.85,0,0,0,1.53-1.52,4.84,4.84,0,0,0,.59-2.46,5,5,0,0,0-.58-2.47,3.8,3.8,0,0,0-1.49-1.51,4.33,4.33,0,0,0-2-.49,4.27,4.27,0,0,0-2,.49,3.67,3.67,0,0,0-1.46,1.51,5.09,5.09,0,0,0-.55,2.47,5.2,5.2,0,0,0,.54,2.48,3.57,3.57,0,0,0,1.44,1.51,4,4,0,0,0,2,.49A4.17,4.17,0,0,0,444.21,198.55Z" transform="translate(-48.83 -23.78)" style="fill: #0897d1"/>
        <path d="M467.07,188.56l-3.76,12.06h-2.07l-2.9-9.57-2.91,9.57h-2.06l-3.79-12.06h2.05l2.77,10.12,3-10.12h2.05l2.92,10.14,2.73-10.14Z" transform="translate(-48.83 -23.78)" style="fill: #0897d1"/>
        <path d="M484,186.22a6.5,6.5,0,0,1,2.82,2.67,9,9,0,0,1,0,8.17A6.44,6.44,0,0,1,484,199.7a9.61,9.61,0,0,1-4.34.92h-4.78V185.28h4.78A9.35,9.35,0,0,1,484,186.22Zm.19,11.17a6,6,0,0,0,1.56-4.41,5.53,5.53,0,0,0-6.09-6.07h-2.77V199h2.77A6.1,6.1,0,0,0,484.23,197.39Z" transform="translate(-48.83 -23.78)" style="fill: #0897d1"/>
        <path d="M501.41,195.34h-9.63a3.79,3.79,0,0,0,3.91,3.78,3.73,3.73,0,0,0,2.17-.6,3.23,3.23,0,0,0,1.22-1.62h2.16a5.23,5.23,0,0,1-1.94,2.83,5.88,5.88,0,0,1-3.61,1.08,6.06,6.06,0,0,1-3.07-.77,5.43,5.43,0,0,1-2.12-2.18,7.48,7.48,0,0,1,0-6.57,5.29,5.29,0,0,1,2.1-2.17,6.31,6.31,0,0,1,3.11-.76,6,6,0,0,1,3,.75,5.09,5.09,0,0,1,2,2.06,6,6,0,0,1,.72,3A10.41,10.41,0,0,1,501.41,195.34Zm-2.51-3.6a3.18,3.18,0,0,0-1.37-1.25,4.24,4.24,0,0,0-1.93-.43,3.72,3.72,0,0,0-2.58,1,4,4,0,0,0-1.22,2.69h7.61A3.68,3.68,0,0,0,498.9,191.74Z" transform="translate(-48.83 -23.78)" style="fill: #0897d1"/>
        <path d="M507.89,189.06a5.25,5.25,0,0,1,2.74-.7,5.71,5.71,0,0,1,2.92.77,5.5,5.5,0,0,1,2.05,2.17,6.74,6.74,0,0,1,.75,3.24,6.9,6.9,0,0,1-.75,3.26,5.46,5.46,0,0,1-5,3,5.29,5.29,0,0,1-2.72-.69,5,5,0,0,1-1.79-1.73v8h-2V188.56h2v2.22A4.8,4.8,0,0,1,507.89,189.06Zm5.86,3.11a3.73,3.73,0,0,0-1.48-1.54,4.13,4.13,0,0,0-2.06-.53,4,4,0,0,0-3.53,2.1,5.32,5.32,0,0,0,0,4.75,3.91,3.91,0,0,0,3.53,2.1,4,4,0,0,0,2.06-.53,3.87,3.87,0,0,0,1.48-1.57,5,5,0,0,0,.55-2.41A4.83,4.83,0,0,0,513.75,192.17Z" transform="translate(-48.83 -23.78)" style="fill: #0897d1"/>
        <path d="M521.18,200a5.46,5.46,0,0,1-2.16-2.18,6.75,6.75,0,0,1-.78-3.29,6.57,6.57,0,0,1,.8-3.27,5.6,5.6,0,0,1,2.19-2.18,6.72,6.72,0,0,1,6.21,0,5.64,5.64,0,0,1,2.19,2.17,6.56,6.56,0,0,1,.8,3.28,6.45,6.45,0,0,1-.82,3.29,5.79,5.79,0,0,1-2.24,2.18,6.33,6.33,0,0,1-3.12.77A6.11,6.11,0,0,1,521.18,200Zm5.09-1.49A3.85,3.85,0,0,0,527.8,197a4.84,4.84,0,0,0,.58-2.46,5,5,0,0,0-.57-2.47,3.8,3.8,0,0,0-1.49-1.51,4.33,4.33,0,0,0-2-.49,4.27,4.27,0,0,0-2,.49,3.61,3.61,0,0,0-1.46,1.51,5.09,5.09,0,0,0-.55,2.47,5.2,5.2,0,0,0,.54,2.48,3.57,3.57,0,0,0,1.44,1.51,4,4,0,0,0,2,.49A4.17,4.17,0,0,0,526.27,198.55Z" transform="translate(-48.83 -23.78)" style="fill: #0897d1"/>
        <path d="M534.85,200.34a4.16,4.16,0,0,1-1.74-1.32,3.5,3.5,0,0,1-.7-2h2.07a2,2,0,0,0,.85,1.48,3.22,3.22,0,0,0,2,.57,2.87,2.87,0,0,0,1.8-.51,1.53,1.53,0,0,0,.66-1.27,1.26,1.26,0,0,0-.7-1.18,9.81,9.81,0,0,0-2.18-.76,15.3,15.3,0,0,1-2.19-.71,3.76,3.76,0,0,1-1.45-1.08,2.78,2.78,0,0,1-.61-1.88,2.85,2.85,0,0,1,.55-1.7,3.79,3.79,0,0,1,1.56-1.22,5.67,5.67,0,0,1,2.31-.45,5,5,0,0,1,3.24,1,3.67,3.67,0,0,1,1.32,2.78h-2a2.1,2.1,0,0,0-.76-1.52,2.83,2.83,0,0,0-1.86-.57,2.87,2.87,0,0,0-1.72.46,1.44,1.44,0,0,0-.64,1.21,1.33,1.33,0,0,0,.39,1,2.87,2.87,0,0,0,1,.61,14.75,14.75,0,0,0,1.61.52,20.49,20.49,0,0,1,2.12.69,3.69,3.69,0,0,1,1.39,1,2.75,2.75,0,0,1,.61,1.78,3.1,3.1,0,0,1-.55,1.78,3.7,3.7,0,0,1-1.55,1.24,5.59,5.59,0,0,1-2.3.45A6.14,6.14,0,0,1,534.85,200.34Z" transform="translate(-48.83 -23.78)" style="fill: #0897d1"/>
        <path d="M544.62,186.21a1.35,1.35,0,0,1-.4-1,1.37,1.37,0,0,1,1.37-1.37,1.26,1.26,0,0,1,.93.4,1.33,1.33,0,0,1,.39,1,1.34,1.34,0,0,1-.39,1,1.25,1.25,0,0,1-.93.39A1.33,1.33,0,0,1,544.62,186.21Zm1.94,2.35v12.06h-2V188.56Z" transform="translate(-48.83 -23.78)" style="fill: #0897d1"/>
        <path d="M552.41,190.21v7.11a1.69,1.69,0,0,0,.37,1.24,1.85,1.85,0,0,0,1.3.36h1.47v1.7h-1.8a3.61,3.61,0,0,1-2.51-.77,3.31,3.31,0,0,1-.83-2.53v-7.11h-1.57v-1.65h1.57v-3h2v3h3.14v1.65Z" transform="translate(-48.83 -23.78)" style="fill: #0897d1"/>
        <path d="M559.76,200.34A4,4,0,0,1,558,199a3.51,3.51,0,0,1-.71-2h2.07a2,2,0,0,0,.85,1.48,3.22,3.22,0,0,0,2,.57,2.87,2.87,0,0,0,1.8-.51,1.53,1.53,0,0,0,.66-1.27,1.26,1.26,0,0,0-.7-1.18,9.81,9.81,0,0,0-2.18-.76,16.19,16.19,0,0,1-2.19-.71,3.84,3.84,0,0,1-1.45-1.08,3.07,3.07,0,0,1,0-3.58,3.67,3.67,0,0,1,1.56-1.22,5.6,5.6,0,0,1,2.31-.45,5,5,0,0,1,3.23,1,3.67,3.67,0,0,1,1.32,2.78h-2a2.07,2.07,0,0,0-.76-1.52,3.36,3.36,0,0,0-3.57-.11,1.42,1.42,0,0,0-.64,1.21,1.37,1.37,0,0,0,.38,1,2.87,2.87,0,0,0,1,.61,15,15,0,0,0,1.62.52,20.21,20.21,0,0,1,2.11.69,3.72,3.72,0,0,1,1.4,1,2.75,2.75,0,0,1,.6,1.78,3,3,0,0,1-.55,1.78,3.64,3.64,0,0,1-1.55,1.24,5.55,5.55,0,0,1-2.3.45A6.13,6.13,0,0,1,559.76,200.34Z" transform="translate(-48.83 -23.78)" style="fill: #0897d1"/>
        <path d="M584,185.28v1.63h-6.67v5.17h5.42v1.63h-5.42v6.91h-2V185.28Z" transform="translate(-48.83 -23.78)" style="fill: #0897d1"/>
        <path d="M589.93,188.91a4.67,4.67,0,0,1,2.39-.57v2.07h-.53q-3.37,0-3.37,3.65v6.56h-2V188.56h2v2A3.85,3.85,0,0,1,589.93,188.91Z" transform="translate(-48.83 -23.78)" style="fill: #0897d1"/>
        <path d="M596.81,200a5.5,5.5,0,0,1-2.15-2.18,6.75,6.75,0,0,1-.78-3.29,6.47,6.47,0,0,1,.8-3.27,5.53,5.53,0,0,1,2.19-2.18,6.7,6.7,0,0,1,6.2,0,5.51,5.51,0,0,1,2.19,2.17,7.07,7.07,0,0,1,0,6.57A5.7,5.7,0,0,1,603,200a6.34,6.34,0,0,1-3.13.77A6.11,6.11,0,0,1,596.81,200Zm5.1-1.49a3.85,3.85,0,0,0,1.53-1.52,5.57,5.57,0,0,0,0-4.93,3.76,3.76,0,0,0-1.5-1.51,4.29,4.29,0,0,0-2-.49,4.24,4.24,0,0,0-2,.49,3.69,3.69,0,0,0-1.47,1.51,5.89,5.89,0,0,0,0,5,3.57,3.57,0,0,0,1.44,1.51,4,4,0,0,0,2,.49A4.21,4.21,0,0,0,601.91,198.55Z" transform="translate(-48.83 -23.78)" style="fill: #0897d1"/>
        <path d="M625.71,188.92a4.25,4.25,0,0,1,1.74,1.75,5.93,5.93,0,0,1,.64,2.84v7.11h-2V193.8a3.9,3.9,0,0,0-.89-2.76,3.14,3.14,0,0,0-2.41-1,3.23,3.23,0,0,0-2.49,1,4.14,4.14,0,0,0-.92,2.89v6.65h-2V193.8a3.9,3.9,0,0,0-.89-2.76,3.14,3.14,0,0,0-2.41-1,3.23,3.23,0,0,0-2.49,1,4.1,4.1,0,0,0-.92,2.89v6.65h-2V188.56h2v1.74a3.84,3.84,0,0,1,1.59-1.45,4.82,4.82,0,0,1,2.21-.51,5.27,5.27,0,0,1,2.69.68,4.2,4.2,0,0,1,1.73,2,4,4,0,0,1,1.68-2,5,5,0,0,1,2.59-.7A5.37,5.37,0,0,1,625.71,188.92Z" transform="translate(-48.83 -23.78)" style="fill: #0897d1"/>
      </g>
      <g style="isolation: isolate">
        <path d="M648.48,197.76v2.94H637.26l-.53-1.84a6.16,6.16,0,0,0,1.52-2,6,6,0,0,0,.48-2.55v0h-2.39v-2.53h1.78a10.17,10.17,0,0,1-.42-2.75,4.85,4.85,0,0,1,.67-2.59,4.38,4.38,0,0,1,1.88-1.68,6.44,6.44,0,0,1,2.77-.57,4.89,4.89,0,0,1,5.37,5h-3.45a2.28,2.28,0,0,0-.48-1.4,1.68,1.68,0,0,0-1.35-.52,1.73,1.73,0,0,0-1.36.54,2.34,2.34,0,0,0-.49,1.6,4.15,4.15,0,0,0,.13,1c.08.35.2.8.36,1.34h4v2.53H642.3v.07a5.11,5.11,0,0,1-.35,1.78,4.33,4.33,0,0,1-1.1,1.61Z" transform="translate(-48.83 -23.78)" style="fill: #0897d1"/>
        <path d="M652.79,185.46a5.76,5.76,0,0,1,3.94-1.28,6.46,6.46,0,0,1,2.83.57,4.06,4.06,0,0,1,2.38,3.79,3.64,3.64,0,0,1-2.42,3.61v.08a3.92,3.92,0,0,1,2,1.39,4,4,0,0,1,.73,2.49,4.58,4.58,0,0,1-.63,2.41,4.2,4.2,0,0,1-1.82,1.63,7.31,7.31,0,0,1-7.06-.7,5,5,0,0,1-1.67-3.92h3.66a2.15,2.15,0,0,0,.55,1.53,2,2,0,0,0,1.54.56,1.76,1.76,0,0,0,1.33-.49,1.84,1.84,0,0,0,.47-1.31,1.74,1.74,0,0,0-.67-1.53,3.85,3.85,0,0,0-2.15-.47h-.7v-3.06h.7a3.82,3.82,0,0,0,1.82-.38,1.45,1.45,0,0,0,.69-1.38,1.63,1.63,0,0,0-.44-1.23,1.59,1.59,0,0,0-1.21-.44,1.51,1.51,0,0,0-1.24.5,2.27,2.27,0,0,0-.47,1.26h-3.68A4.83,4.83,0,0,1,652.79,185.46Z" transform="translate(-48.83 -23.78)" style="fill: #0897d1"/>
        <path d="M665.89,186.4a6.22,6.22,0,0,1,9.44,0,13,13,0,0,1,0,12,6.2,6.2,0,0,1-9.44,0,13,13,0,0,1,0-12Zm6.72,2.55a2.27,2.27,0,0,0-4,0,9.53,9.53,0,0,0-.48,3.42,15.22,15.22,0,0,0,.17,2.47,3.17,3.17,0,0,0,.72,1.58,2.39,2.39,0,0,0,3.19,0,3.16,3.16,0,0,0,.71-1.58,14,14,0,0,0,.18-2.47A9.28,9.28,0,0,0,672.61,189Z" transform="translate(-48.83 -23.78)" style="fill: #0897d1"/>
      </g>
    </g>
    <g style="isolation: isolate">
      <g style="isolation: isolate">
        <path d="M429.43,239.22v15.33h-2V239.22Z" transform="translate(-48.83 -23.78)" style="fill: #0897d1"/>
        <path d="M442.28,243.6a5.13,5.13,0,0,1,1.36,3.84v7.11h-2v-6.82a3.89,3.89,0,0,0-.9-2.76,3.22,3.22,0,0,0-2.47-1,3.28,3.28,0,0,0-2.51,1,4,4,0,0,0-.94,2.88v6.67h-2V242.49h2v1.72a4,4,0,0,1,1.62-1.43,5.37,5.37,0,0,1,5.82.82Z" transform="translate(-48.83 -23.78)" style="fill: #0897d1"/>
        <path d="M449.36,244.14v7.11a1.72,1.72,0,0,0,.37,1.24,1.87,1.87,0,0,0,1.3.37h1.48v1.69H450.7a3.58,3.58,0,0,1-2.5-.77,3.3,3.3,0,0,1-.84-2.53v-7.11H445.8v-1.65h1.56v-3h2v3h3.15v1.65Z" transform="translate(-48.83 -23.78)" style="fill: #0897d1"/>
        <path d="M465.86,249.27h-9.64a3.91,3.91,0,0,0,1.23,2.78,3.85,3.85,0,0,0,2.69,1,3.73,3.73,0,0,0,2.17-.6,3.2,3.2,0,0,0,1.22-1.62h2.15a5.17,5.17,0,0,1-1.93,2.83,5.89,5.89,0,0,1-3.61,1.09,6.14,6.14,0,0,1-3.07-.77,5.52,5.52,0,0,1-2.12-2.19,7.48,7.48,0,0,1,0-6.57,5.23,5.23,0,0,1,2.1-2.17,6.31,6.31,0,0,1,3.11-.75,6.06,6.06,0,0,1,3,.74,5.16,5.16,0,0,1,2,2.06,6,6,0,0,1,.72,3C465.93,248.44,465.9,248.84,465.86,249.27Zm-2.51-3.6a3.31,3.31,0,0,0-1.37-1.25,4.24,4.24,0,0,0-1.93-.43,3.68,3.68,0,0,0-2.58,1,3.92,3.92,0,0,0-1.22,2.68h7.61A3.68,3.68,0,0,0,463.35,245.67Z" transform="translate(-48.83 -23.78)" style="fill: #0897d1"/>
        <path d="M472.08,242.85a4.54,4.54,0,0,1,2.38-.58v2.07h-.53q-3.36,0-3.36,3.65v6.56h-2V242.49h2v2A3.76,3.76,0,0,1,472.08,242.85Z" transform="translate(-48.83 -23.78)" style="fill: #0897d1"/>
        <path d="M487.71,249.27h-9.64a3.79,3.79,0,0,0,3.92,3.78,3.72,3.72,0,0,0,2.16-.6,3.14,3.14,0,0,0,1.22-1.62h2.16a5.18,5.18,0,0,1-1.94,2.83,5.86,5.86,0,0,1-3.6,1.09,6.11,6.11,0,0,1-3.07-.77,5.61,5.61,0,0,1-2.13-2.19,7.48,7.48,0,0,1,0-6.57,5.29,5.29,0,0,1,2.1-2.17,6.34,6.34,0,0,1,3.12-.75,6,6,0,0,1,3,.74,5.25,5.25,0,0,1,2,2.06,6.14,6.14,0,0,1,.71,3C487.77,248.44,487.75,248.84,487.71,249.27Zm-2.51-3.6a3.33,3.33,0,0,0-1.38-1.25,4.23,4.23,0,0,0-1.92-.43,3.7,3.7,0,0,0-2.59,1,3.92,3.92,0,0,0-1.22,2.68h7.61A3.68,3.68,0,0,0,485.2,245.67Z" transform="translate(-48.83 -23.78)" style="fill: #0897d1"/>
        <path d="M492.19,254.27a4.13,4.13,0,0,1-1.73-1.31,3.56,3.56,0,0,1-.71-2h2.07a2,2,0,0,0,.85,1.47,3.22,3.22,0,0,0,2,.57,2.87,2.87,0,0,0,1.8-.5,1.55,1.55,0,0,0,.66-1.28,1.26,1.26,0,0,0-.7-1.18,9.89,9.89,0,0,0-2.18-.75,17.57,17.57,0,0,1-2.19-.72,3.84,3.84,0,0,1-1.45-1.08,2.81,2.81,0,0,1-.61-1.88,2.89,2.89,0,0,1,.55-1.69,3.68,3.68,0,0,1,1.57-1.22,5.6,5.6,0,0,1,2.31-.45,4.9,4.9,0,0,1,3.23,1,3.65,3.65,0,0,1,1.32,2.77h-2a2.1,2.1,0,0,0-.76-1.52,2.83,2.83,0,0,0-1.86-.57,2.87,2.87,0,0,0-1.72.46,1.43,1.43,0,0,0-.63,1.21,1.31,1.31,0,0,0,.38,1,2.89,2.89,0,0,0,1,.62q.58.23,1.62.51a17.87,17.87,0,0,1,2.11.7,3.7,3.7,0,0,1,1.4,1,2.75,2.75,0,0,1,.6,1.78,3,3,0,0,1-.55,1.78A3.66,3.66,0,0,1,497,254.3a5.55,5.55,0,0,1-2.3.45A6.21,6.21,0,0,1,492.19,254.27Z" transform="translate(-48.83 -23.78)" style="fill: #0897d1"/>
        <path d="M504.34,244.14v7.11a1.67,1.67,0,0,0,.37,1.24,1.85,1.85,0,0,0,1.3.37h1.47v1.69h-1.8a3.62,3.62,0,0,1-2.51-.77,3.29,3.29,0,0,1-.83-2.53v-7.11h-1.57v-1.65h1.57v-3h2v3h3.14v1.65Z" transform="translate(-48.83 -23.78)" style="fill: #0897d1"/>
        <path d="M518.26,245.64v1.69h-8.77v-1.69Z" transform="translate(-48.83 -23.78)" style="fill: #0897d1"/>
        <path d="M530.69,239.22v1.62H524V246h5.41v1.63H524v6.91h-2V239.22Z" transform="translate(-48.83 -23.78)" style="fill: #0897d1"/>
        <path d="M536.62,242.85a4.6,4.6,0,0,1,2.39-.58v2.07h-.53q-3.36,0-3.36,3.65v6.56h-2V242.49h2v2A3.8,3.8,0,0,1,536.62,242.85Z" transform="translate(-48.83 -23.78)" style="fill: #0897d1"/>
        <path d="M552.25,249.27h-9.63a3.79,3.79,0,0,0,3.91,3.78,3.73,3.73,0,0,0,2.17-.6,3.14,3.14,0,0,0,1.22-1.62h2.16a5.23,5.23,0,0,1-1.94,2.83,5.89,5.89,0,0,1-3.61,1.09,6.16,6.16,0,0,1-3.07-.77,5.52,5.52,0,0,1-2.12-2.19,7.48,7.48,0,0,1,0-6.57,5.29,5.29,0,0,1,2.1-2.17,6.31,6.31,0,0,1,3.11-.75,6,6,0,0,1,3,.74,5.16,5.16,0,0,1,2,2.06,6,6,0,0,1,.72,3A10.41,10.41,0,0,1,552.25,249.27Zm-2.5-3.6a3.33,3.33,0,0,0-1.38-1.25,4.23,4.23,0,0,0-1.92-.43,3.69,3.69,0,0,0-2.59,1,3.92,3.92,0,0,0-1.22,2.68h7.61A3.77,3.77,0,0,0,549.75,245.67Z" transform="translate(-48.83 -23.78)" style="fill: #0897d1"/>
        <path d="M565.89,249.27h-9.63a3.79,3.79,0,0,0,3.91,3.78,3.73,3.73,0,0,0,2.17-.6,3.14,3.14,0,0,0,1.22-1.62h2.16a5.23,5.23,0,0,1-1.94,2.83,5.89,5.89,0,0,1-3.61,1.09,6.16,6.16,0,0,1-3.07-.77,5.52,5.52,0,0,1-2.12-2.19,7.48,7.48,0,0,1,0-6.57,5.29,5.29,0,0,1,2.1-2.17,6.31,6.31,0,0,1,3.11-.75,6,6,0,0,1,3,.74,5.16,5.16,0,0,1,2,2.06,6,6,0,0,1,.72,3A10.41,10.41,0,0,1,565.89,249.27Zm-2.5-3.6a3.33,3.33,0,0,0-1.38-1.25,4.24,4.24,0,0,0-1.93-.43,3.68,3.68,0,0,0-2.58,1,3.92,3.92,0,0,0-1.22,2.68h7.61A3.77,3.77,0,0,0,563.39,245.67Z" transform="translate(-48.83 -23.78)" style="fill: #0897d1"/>
        <path d="M576.47,239.22v15.33h-2V239.22Z" transform="translate(-48.83 -23.78)" style="fill: #0897d1"/>
        <path d="M589.32,243.6a5.13,5.13,0,0,1,1.37,3.84v7.11h-2v-6.82a3.85,3.85,0,0,0-.91-2.76,3.21,3.21,0,0,0-2.46-1,3.32,3.32,0,0,0-2.52,1,4.06,4.06,0,0,0-.93,2.88v6.67h-2V242.49h2v1.72a3.92,3.92,0,0,1,1.61-1.43,5,5,0,0,1,2.26-.51A4.9,4.9,0,0,1,589.32,243.6Z" transform="translate(-48.83 -23.78)" style="fill: #0897d1"/>
        <path d="M595.75,254.27A4.1,4.1,0,0,1,594,253a3.56,3.56,0,0,1-.71-2h2.07a2,2,0,0,0,.85,1.47,3.24,3.24,0,0,0,2,.57,2.85,2.85,0,0,0,1.8-.5,1.52,1.52,0,0,0,.66-1.28,1.26,1.26,0,0,0-.7-1.18,9.7,9.7,0,0,0-2.18-.75,17.57,17.57,0,0,1-2.19-.72,3.84,3.84,0,0,1-1.45-1.08,3.06,3.06,0,0,1,0-3.57,3.59,3.59,0,0,1,1.56-1.22,5.6,5.6,0,0,1,2.31-.45,4.9,4.9,0,0,1,3.23,1,3.65,3.65,0,0,1,1.32,2.77h-2a2.07,2.07,0,0,0-.76-1.52,3.36,3.36,0,0,0-3.57-.11,1.42,1.42,0,0,0-.64,1.21,1.35,1.35,0,0,0,.38,1,2.89,2.89,0,0,0,1,.62q.58.23,1.62.51a17.87,17.87,0,0,1,2.11.7,3.7,3.7,0,0,1,1.4,1,2.69,2.69,0,0,1,.6,1.78,3,3,0,0,1-.55,1.78,3.6,3.6,0,0,1-1.55,1.25,5.55,5.55,0,0,1-2.3.45A6.13,6.13,0,0,1,595.75,254.27Z" transform="translate(-48.83 -23.78)" style="fill: #0897d1"/>
        <path d="M607.89,244.14v7.11a1.67,1.67,0,0,0,.37,1.24,1.87,1.87,0,0,0,1.3.37H611v1.69h-1.81a3.62,3.62,0,0,1-2.51-.77,3.33,3.33,0,0,1-.83-2.53v-7.11h-1.56v-1.65h1.56v-3h2v3H611v1.65Z" transform="translate(-48.83 -23.78)" style="fill: #0897d1"/>
        <path d="M613.46,245.23a5.41,5.41,0,0,1,2-2.16,5.62,5.62,0,0,1,2.92-.77,5.32,5.32,0,0,1,2.75.68,4.47,4.47,0,0,1,1.74,1.71v-2.2h2v12.06h-2v-2.24a4.77,4.77,0,0,1-1.77,1.74,5.25,5.25,0,0,1-2.74.7,5.42,5.42,0,0,1-4.95-3,6.86,6.86,0,0,1-.75-3.25A6.78,6.78,0,0,1,613.46,245.23Zm8.91.89a4,4,0,0,0-1.49-1.55,4.2,4.2,0,0,0-4.1,0,3.86,3.86,0,0,0-1.48,1.54,5,5,0,0,0-.55,2.38,5.1,5.1,0,0,0,.55,2.41,3.91,3.91,0,0,0,1.48,1.56,4,4,0,0,0,2,.54,4,4,0,0,0,2.06-.54,3.93,3.93,0,0,0,1.49-1.56,5.45,5.45,0,0,0,0-4.77Z" transform="translate(-48.83 -23.78)" style="fill: #0897d1"/>
        <path d="M630.33,238.27v16.28h-2V238.27Z" transform="translate(-48.83 -23.78)" style="fill: #0897d1"/>
        <path d="M650.75,242.86a4.17,4.17,0,0,1,1.73,1.75,5.75,5.75,0,0,1,.64,2.83v7.11h-2v-6.82a3.93,3.93,0,0,0-.89-2.76,3.13,3.13,0,0,0-2.41-1,3.22,3.22,0,0,0-2.48,1,4.11,4.11,0,0,0-.93,2.9v6.64h-2v-6.82a3.88,3.88,0,0,0-.89-2.76,3.13,3.13,0,0,0-2.41-1,3.22,3.22,0,0,0-2.48,1,4.11,4.11,0,0,0-.93,2.9v6.64h-2V242.49h2v1.74a4,4,0,0,1,1.6-1.45,4.76,4.76,0,0,1,2.21-.51,5.17,5.17,0,0,1,2.68.69,4.12,4.12,0,0,1,1.74,2,4,4,0,0,1,1.67-2,4.93,4.93,0,0,1,2.6-.71A5.28,5.28,0,0,1,650.75,242.86Z" transform="translate(-48.83 -23.78)" style="fill: #0897d1"/>
        <path d="M667.33,249.27H657.7a3.79,3.79,0,0,0,3.91,3.78,3.73,3.73,0,0,0,2.17-.6,3.14,3.14,0,0,0,1.22-1.62h2.16a5.18,5.18,0,0,1-1.94,2.83,5.89,5.89,0,0,1-3.61,1.09,6.16,6.16,0,0,1-3.07-.77,5.59,5.59,0,0,1-2.12-2.19,7.48,7.48,0,0,1,0-6.57,5.29,5.29,0,0,1,2.1-2.17,6.31,6.31,0,0,1,3.11-.75,6,6,0,0,1,3,.74,5.25,5.25,0,0,1,2,2.06,6.14,6.14,0,0,1,.71,3A10.41,10.41,0,0,1,667.33,249.27Zm-2.5-3.6a3.33,3.33,0,0,0-1.38-1.25,4.23,4.23,0,0,0-1.92-.43,3.69,3.69,0,0,0-2.59,1,3.92,3.92,0,0,0-1.22,2.68h7.61A3.77,3.77,0,0,0,664.83,245.67Z" transform="translate(-48.83 -23.78)" style="fill: #0897d1"/>
        <path d="M679.48,243.6a5.13,5.13,0,0,1,1.36,3.84v7.11h-2v-6.82A3.89,3.89,0,0,0,678,245a3.21,3.21,0,0,0-2.46-1,3.29,3.29,0,0,0-2.52,1,4,4,0,0,0-.94,2.88v6.67h-2V242.49h2v1.72a4,4,0,0,1,1.62-1.43,5.37,5.37,0,0,1,5.82.82Z" transform="translate(-48.83 -23.78)" style="fill: #0897d1"/>
        <path d="M686.56,244.14v7.11a1.67,1.67,0,0,0,.38,1.24,1.84,1.84,0,0,0,1.29.37h1.48v1.69H687.9a3.58,3.58,0,0,1-2.5-.77,3.3,3.3,0,0,1-.84-2.53v-7.11H683v-1.65h1.56v-3h2v3h3.15v1.65Z" transform="translate(-48.83 -23.78)" style="fill: #0897d1"/>
        <path d="M693.91,254.27a4.23,4.23,0,0,1-1.74-1.31,3.55,3.55,0,0,1-.7-2h2.07a2,2,0,0,0,.84,1.47,3.25,3.25,0,0,0,2,.57,2.87,2.87,0,0,0,1.8-.5,1.55,1.55,0,0,0,.66-1.28,1.27,1.27,0,0,0-.71-1.18,9.59,9.59,0,0,0-2.17-.75,16.52,16.52,0,0,1-2.19-.72,3.76,3.76,0,0,1-1.45-1.08,2.76,2.76,0,0,1-.61-1.88,2.82,2.82,0,0,1,.55-1.69,3.71,3.71,0,0,1,1.56-1.22,5.67,5.67,0,0,1,2.31-.45,4.93,4.93,0,0,1,3.24,1,3.65,3.65,0,0,1,1.32,2.77h-2a2.06,2.06,0,0,0-.75-1.52,3.38,3.38,0,0,0-3.58-.11,1.42,1.42,0,0,0-.64,1.21,1.32,1.32,0,0,0,.39,1,2.79,2.79,0,0,0,1,.62,16.83,16.83,0,0,0,1.61.51,17.27,17.27,0,0,1,2.11.7,3.62,3.62,0,0,1,1.4,1,2.75,2.75,0,0,1,.61,1.78,3.07,3.07,0,0,1-.55,1.78,3.72,3.72,0,0,1-1.55,1.25,5.59,5.59,0,0,1-2.3.45A6.14,6.14,0,0,1,693.91,254.27Z" transform="translate(-48.83 -23.78)" style="fill: #0897d1"/>
      </g>
    </g>
    <g style="isolation: isolate">
      <g style="isolation: isolate">
        <path d="M436.37,297.37a5.51,5.51,0,0,1-4,1.27h-2.95V305h-2V289.71h4.95a5.61,5.61,0,0,1,3.95,1.25,4.53,4.53,0,0,1,0,6.41Zm-1.53-1.11a2.64,2.64,0,0,0,.79-2.06c0-1.9-1.08-2.84-3.25-2.84h-2.95V297h2.95A3.53,3.53,0,0,0,434.84,296.26Z" transform="translate(-48.83 -23.78)" style="fill: #0897d1"/>
        <path d="M440.17,295.72a5.34,5.34,0,0,1,2.05-2.16,5.59,5.59,0,0,1,2.92-.77,5.32,5.32,0,0,1,2.75.68,4.58,4.58,0,0,1,1.73,1.71V293h2V305h-2V302.8a4.72,4.72,0,0,1-1.77,1.75,5.27,5.27,0,0,1-2.73.69,5.42,5.42,0,0,1-4.95-3,7.42,7.42,0,0,1,0-6.5Zm8.91.9a3.93,3.93,0,0,0-1.49-1.56,4.13,4.13,0,0,0-2.06-.53,4,4,0,0,0-2,.52,3.92,3.92,0,0,0-1.48,1.54,5,5,0,0,0-.55,2.38,5.1,5.1,0,0,0,.55,2.41,3.91,3.91,0,0,0,1.48,1.56,4,4,0,0,0,2,.54,4,4,0,0,0,2.06-.54,3.93,3.93,0,0,0,1.49-1.56,5,5,0,0,0,.54-2.39A4.94,4.94,0,0,0,449.08,296.62Z" transform="translate(-48.83 -23.78)" style="fill: #0897d1"/>
        <path d="M465.42,293l-7.26,17.73h-2.07l2.38-5.81L453.61,293h2.22l3.78,9.76,3.74-9.76Z" transform="translate(-48.83 -23.78)" style="fill: #0897d1"/>
        <path d="M484,289.71l-5,9.54V305h-2v-5.79l-5-9.54h2.22l3.79,7.76,3.78-7.76Z" transform="translate(-48.83 -23.78)" style="fill: #0897d1"/>
        <path d="M488.33,304.47a5.46,5.46,0,0,1-2.15-2.19,6.72,6.72,0,0,1-.78-3.29,6.5,6.5,0,0,1,.8-3.27,5.44,5.44,0,0,1,2.19-2.17,6.7,6.7,0,0,1,6.2,0,5.42,5.42,0,0,1,2.19,2.16,7.07,7.07,0,0,1,0,6.57,5.72,5.72,0,0,1-2.23,2.19,6.45,6.45,0,0,1-3.13.77A6.22,6.22,0,0,1,488.33,304.47Zm5.1-1.5a3.83,3.83,0,0,0,1.53-1.51,5,5,0,0,0,.58-2.47,4.92,4.92,0,0,0-.57-2.46,3.76,3.76,0,0,0-1.5-1.51,4.17,4.17,0,0,0-2-.49,4.12,4.12,0,0,0-2,.49,3.63,3.63,0,0,0-1.47,1.51,5.14,5.14,0,0,0-.55,2.46,5.27,5.27,0,0,0,.54,2.49,3.6,3.6,0,0,0,1.44,1.5,4,4,0,0,0,2,.5A4.22,4.22,0,0,0,493.43,303Z" transform="translate(-48.83 -23.78)" style="fill: #0897d1"/>
        <path d="M510.92,293V305h-2v-1.78a3.83,3.83,0,0,1-1.59,1.44,5,5,0,0,1-2.26.52,5.42,5.42,0,0,1-2.53-.59,4.26,4.26,0,0,1-1.77-1.75,5.75,5.75,0,0,1-.65-2.83V293h2v6.79a3.81,3.81,0,0,0,.91,2.74,3.21,3.21,0,0,0,2.46,1,3.28,3.28,0,0,0,2.53-1,4.05,4.05,0,0,0,.92-2.88V293Z" transform="translate(-48.83 -23.78)" style="fill: #0897d1"/>
        <path d="M517.81,293.34a4.7,4.7,0,0,1,2.39-.58v2.07h-.53q-3.36,0-3.36,3.66V305h-2V293h2v1.95A3.8,3.8,0,0,1,517.81,293.34Z" transform="translate(-48.83 -23.78)" style="fill: #0897d1"/>
        <path d="M537.59,297.83a4,4,0,0,1,1.1,1.36,3.94,3.94,0,0,1-.19,3.84,4,4,0,0,1-1.72,1.47,6.19,6.19,0,0,1-2.68.54h-5.72V289.71h5.5a6.33,6.33,0,0,1,2.67.51,3.82,3.82,0,0,1,1.65,1.4,3.73,3.73,0,0,1,.55,2,3.45,3.45,0,0,1-.74,2.26,4.1,4.1,0,0,1-2,1.28A3.22,3.22,0,0,1,537.59,297.83Zm-7.2-1.5h3.36a3.25,3.25,0,0,0,2.18-.66,2.55,2.55,0,0,0,0-3.65,3.31,3.31,0,0,0-2.22-.66h-3.32Zm5.87,6.36a2.42,2.42,0,0,0,.84-2,2.5,2.5,0,0,0-.88-2,3.53,3.53,0,0,0-2.36-.74h-3.47v5.41h3.54A3.5,3.5,0,0,0,536.26,302.69Z" transform="translate(-48.83 -23.78)" style="fill: #0897d1"/>
        <path d="M541.87,295.72a5.36,5.36,0,0,1,2.06-2.16,5.56,5.56,0,0,1,2.91-.77,5.29,5.29,0,0,1,2.75.68,4.54,4.54,0,0,1,1.74,1.71V293h2V305h-2V302.8a4.87,4.87,0,0,1-1.77,1.75,5.34,5.34,0,0,1-2.74.69,5.45,5.45,0,0,1-5-3,7.42,7.42,0,0,1,0-6.5Zm8.91.9a3.87,3.87,0,0,0-1.49-1.56,4.26,4.26,0,0,0-4.1,0,3.9,3.9,0,0,0-1.47,1.54,4.89,4.89,0,0,0-.55,2.38,5,5,0,0,0,.55,2.41,3.89,3.89,0,0,0,1.47,1.56,4.16,4.16,0,0,0,4.1,0,3.87,3.87,0,0,0,1.49-1.56,4.93,4.93,0,0,0,.55-2.39A4.83,4.83,0,0,0,550.78,296.62Z" transform="translate(-48.83 -23.78)" style="fill: #0897d1"/>
        <path d="M558.74,288.76V305h-2V288.76Z" transform="translate(-48.83 -23.78)" style="fill: #0897d1"/>
        <path d="M562.15,295.72a5.43,5.43,0,0,1,2.06-2.16,5.57,5.57,0,0,1,2.92-.77,5.32,5.32,0,0,1,2.75.68,4.58,4.58,0,0,1,1.73,1.71V293h2V305h-2V302.8a4.72,4.72,0,0,1-1.77,1.75,5.31,5.31,0,0,1-2.74.69,5.45,5.45,0,0,1-5-3,7.51,7.51,0,0,1,0-6.5Zm8.91.9a3.85,3.85,0,0,0-1.48-1.56,4.13,4.13,0,0,0-2.06-.53,4,4,0,0,0-2,.52,3.92,3.92,0,0,0-1.48,1.54,4.89,4.89,0,0,0-.55,2.38,5,5,0,0,0,.55,2.41,3.9,3.9,0,0,0,3.52,2.1,4,4,0,0,0,2.06-.54,3.85,3.85,0,0,0,1.48-1.56,4.93,4.93,0,0,0,.55-2.39A4.83,4.83,0,0,0,571.06,296.62Z" transform="translate(-48.83 -23.78)" style="fill: #0897d1"/>
        <path d="M586.46,294.1a5.09,5.09,0,0,1,1.37,3.83V305h-2v-6.82a3.89,3.89,0,0,0-.9-2.76,3.25,3.25,0,0,0-2.47-1,3.32,3.32,0,0,0-2.52,1,4.07,4.07,0,0,0-.93,2.89V305h-2V293h2v1.71a3.92,3.92,0,0,1,1.61-1.43,5,5,0,0,1,2.26-.51A4.87,4.87,0,0,1,586.46,294.1Z" transform="translate(-48.83 -23.78)" style="fill: #0897d1"/>
        <path d="M591.11,295.72a5.32,5.32,0,0,1,2.07-2.16,6.6,6.6,0,0,1,6.71.31,5.07,5.07,0,0,1,1.91,3h-2.16a3,3,0,0,0-1.2-1.74,3.66,3.66,0,0,0-2.21-.64,3.53,3.53,0,0,0-2.77,1.18A4.82,4.82,0,0,0,592.4,299a4.93,4.93,0,0,0,1.06,3.37,3.53,3.53,0,0,0,2.77,1.18,3.75,3.75,0,0,0,2.2-.61,3.11,3.11,0,0,0,1.21-1.76h2.16a5.34,5.34,0,0,1-1.94,3,5.81,5.81,0,0,1-3.63,1.11,6,6,0,0,1-3.05-.77,5.31,5.31,0,0,1-2.07-2.18,6.93,6.93,0,0,1-.75-3.3A6.83,6.83,0,0,1,591.11,295.72Z" transform="translate(-48.83 -23.78)" style="fill: #0897d1"/>
        <path d="M615.39,299.76h-9.63a3.79,3.79,0,0,0,3.91,3.78,3.73,3.73,0,0,0,2.17-.6,3.14,3.14,0,0,0,1.22-1.62h2.16a5.23,5.23,0,0,1-1.94,2.83,5.82,5.82,0,0,1-3.61,1.09,6.16,6.16,0,0,1-3.07-.77,5.39,5.39,0,0,1-2.12-2.19,7.48,7.48,0,0,1,0-6.57,5.21,5.21,0,0,1,2.1-2.16,6.2,6.2,0,0,1,3.11-.76,6,6,0,0,1,3,.75,5.07,5.07,0,0,1,2,2,6,6,0,0,1,.72,3A10.29,10.29,0,0,1,615.39,299.76Zm-2.5-3.6a3.33,3.33,0,0,0-1.38-1.25,4.24,4.24,0,0,0-1.93-.43,3.68,3.68,0,0,0-2.58,1,3.92,3.92,0,0,0-1.22,2.68h7.61A3.77,3.77,0,0,0,612.89,296.16Z" transform="translate(-48.83 -23.78)" style="fill: #0897d1"/>
        <path d="M631.7,289.71V301a4,4,0,0,1-1.17,3,4.28,4.28,0,0,1-7.35-3.18h2a3,3,0,0,0,.59,1.83,2,2,0,0,0,1.68.7,2,2,0,0,0,1.67-.67,2.57,2.57,0,0,0,.55-1.7V289.71Z" transform="translate(-48.83 -23.78)" style="fill: #0897d1"/>
        <path d="M646.33,293V305h-2v-1.78a3.83,3.83,0,0,1-1.59,1.44,5,5,0,0,1-2.26.52,5.39,5.39,0,0,1-2.53-.59,4.2,4.2,0,0,1-1.77-1.75,5.75,5.75,0,0,1-.65-2.83V293h2v6.79a3.81,3.81,0,0,0,.91,2.74,3.21,3.21,0,0,0,2.46,1,3.3,3.3,0,0,0,2.53-1,4.05,4.05,0,0,0,.92-2.88V293Z" transform="translate(-48.83 -23.78)" style="fill: #0897d1"/>
        <path d="M651.5,304.77a4.2,4.2,0,0,1-1.74-1.32,3.56,3.56,0,0,1-.71-1.95h2.07A2,2,0,0,0,652,303a3.22,3.22,0,0,0,2,.57,2.87,2.87,0,0,0,1.8-.5,1.55,1.55,0,0,0,.66-1.28,1.24,1.24,0,0,0-.7-1.17,9.81,9.81,0,0,0-2.18-.76,17.57,17.57,0,0,1-2.19-.72A3.84,3.84,0,0,1,649.9,298a3,3,0,0,1,0-3.57,3.67,3.67,0,0,1,1.56-1.22,5.6,5.6,0,0,1,2.31-.45,4.9,4.9,0,0,1,3.23,1,3.65,3.65,0,0,1,1.32,2.77h-2a2.07,2.07,0,0,0-.76-1.52,3.36,3.36,0,0,0-3.57-.11,1.42,1.42,0,0,0-.64,1.21,1.33,1.33,0,0,0,.38,1,2.89,2.89,0,0,0,1,.62q.58.22,1.62.51a17.87,17.87,0,0,1,2.11.7,3.81,3.81,0,0,1,1.4,1,2.71,2.71,0,0,1,.6,1.78,3,3,0,0,1-.55,1.78,3.66,3.66,0,0,1-1.55,1.25,5.55,5.55,0,0,1-2.3.45A6.3,6.3,0,0,1,651.5,304.77Z" transform="translate(-48.83 -23.78)" style="fill: #0897d1"/>
        <path d="M663.64,294.63v7.11A1.67,1.67,0,0,0,664,303a1.82,1.82,0,0,0,1.3.37h1.48V305H665a3.62,3.62,0,0,1-2.51-.77,3.32,3.32,0,0,1-.83-2.53v-7.11h-1.56V293h1.56v-3h2v3h3.15v1.64Z" transform="translate(-48.83 -23.78)" style="fill: #0897d1"/>
        <path d="M678.88,299.75a17.72,17.72,0,0,0,2.68-3,5.48,5.48,0,0,0,1.09-3.1,3.35,3.35,0,0,0-.7-2.25,2.74,2.74,0,0,0-2.23-.82,2.93,2.93,0,0,0-2.32.93,3.88,3.88,0,0,0-.89,2.5h-1.94a5.29,5.29,0,0,1,1.5-3.81,5.69,5.69,0,0,1,7.23-.09,4.56,4.56,0,0,1,1.33,3.46,6.64,6.64,0,0,1-1.09,3.55,15.81,15.81,0,0,1-2.48,3q-1.38,1.31-3.54,3h7.57v1.68H674.51v-1.44Q677.3,301.2,678.88,299.75Z" transform="translate(-48.83 -23.78)" style="fill: #0897d1"/>
        <path d="M712.88,289.71,708.43,305h-2.24l-3.57-12.34L698.93,305l-2.22,0-4.29-15.35h2.13l3.34,13,3.7-13h2.24l3.52,13,3.37-13Z" transform="translate(-48.83 -23.78)" style="fill: #0897d1"/>
        <path d="M726,299.76h-9.64a3.79,3.79,0,0,0,3.92,3.78,3.75,3.75,0,0,0,2.17-.6,3.2,3.2,0,0,0,1.22-1.62h2.15a5.17,5.17,0,0,1-1.93,2.83,5.82,5.82,0,0,1-3.61,1.09,6.11,6.11,0,0,1-3.07-.77,5.39,5.39,0,0,1-2.12-2.19,6.72,6.72,0,0,1-.77-3.29,6.87,6.87,0,0,1,.75-3.28,5.09,5.09,0,0,1,2.1-2.16,6.2,6.2,0,0,1,3.11-.76,6.06,6.06,0,0,1,3,.75,5.13,5.13,0,0,1,2,2,6,6,0,0,1,.72,3C726.08,298.93,726.05,299.34,726,299.76Zm-2.51-3.6a3.31,3.31,0,0,0-1.37-1.25,4.24,4.24,0,0,0-1.93-.43,3.68,3.68,0,0,0-2.58,1,3.93,3.93,0,0,0-1.23,2.68H724A3.68,3.68,0,0,0,723.5,296.16Z" transform="translate(-48.83 -23.78)" style="fill: #0897d1"/>
        <path d="M739.65,299.76H730a3.79,3.79,0,0,0,3.92,3.78,3.75,3.75,0,0,0,2.17-.6,3.25,3.25,0,0,0,1.22-1.62h2.15a5.22,5.22,0,0,1-1.93,2.83,5.82,5.82,0,0,1-3.61,1.09,6.11,6.11,0,0,1-3.07-.77,5.39,5.39,0,0,1-2.12-2.19A6.72,6.72,0,0,1,728,299a7,7,0,0,1,.74-3.28,5.17,5.17,0,0,1,2.11-2.16,6.18,6.18,0,0,1,3.11-.76,6,6,0,0,1,3,.75,5.16,5.16,0,0,1,2,2,6,6,0,0,1,.71,3C739.71,298.93,739.69,299.34,739.65,299.76Zm-2.51-3.6a3.37,3.37,0,0,0-1.37-1.25,4.27,4.27,0,0,0-1.93-.43,3.68,3.68,0,0,0-2.58,1,3.93,3.93,0,0,0-1.23,2.68h7.62A3.68,3.68,0,0,0,737.14,296.16Z" transform="translate(-48.83 -23.78)" style="fill: #0897d1"/>
        <path d="M749.09,305l-4.73-5.32V305h-2V288.76h2v9.57L749,293h2.79l-5.67,6,5.7,6.05Z" transform="translate(-48.83 -23.78)" style="fill: #0897d1"/>
        <path d="M755.47,304.77a4.2,4.2,0,0,1-1.74-1.32,3.48,3.48,0,0,1-.7-1.95h2.06a2,2,0,0,0,.85,1.47,3.24,3.24,0,0,0,2,.57,2.92,2.92,0,0,0,1.81-.5,1.57,1.57,0,0,0,.66-1.28,1.25,1.25,0,0,0-.71-1.17,9.63,9.63,0,0,0-2.18-.76,17.57,17.57,0,0,1-2.19-.72,3.92,3.92,0,0,1-1.45-1.08,3.06,3.06,0,0,1,0-3.57,3.67,3.67,0,0,1,1.56-1.22,5.6,5.6,0,0,1,2.31-.45,4.9,4.9,0,0,1,3.23,1,3.65,3.65,0,0,1,1.32,2.77h-2a2.07,2.07,0,0,0-.76-1.52,3.36,3.36,0,0,0-3.57-.11,1.42,1.42,0,0,0-.64,1.21,1.33,1.33,0,0,0,.38,1,2.89,2.89,0,0,0,1,.62q.58.22,1.62.51a17.87,17.87,0,0,1,2.11.7,3.81,3.81,0,0,1,1.4,1,2.71,2.71,0,0,1,.6,1.78,3,3,0,0,1-.55,1.78,3.6,3.6,0,0,1-1.55,1.25,5.55,5.55,0,0,1-2.3.45A6.3,6.3,0,0,1,755.47,304.77Z" transform="translate(-48.83 -23.78)" style="fill: #0897d1"/>
      </g>
      <g style="isolation: isolate">
        <path d="M436.63,330.83a3.85,3.85,0,0,1,1.1,1.36,3.72,3.72,0,0,1,.41,1.74,3.89,3.89,0,0,1-.59,2.1,4.06,4.06,0,0,1-1.73,1.47,6.18,6.18,0,0,1-2.67.54h-5.72V322.71h5.5a6.28,6.28,0,0,1,2.66.51,3.82,3.82,0,0,1,1.65,1.4,3.65,3.65,0,0,1,.55,2,3.45,3.45,0,0,1-.74,2.26,4.12,4.12,0,0,1-1.94,1.28A3.23,3.23,0,0,1,436.63,330.83Zm-7.2-1.5h3.36a3.25,3.25,0,0,0,2.18-.66,2.55,2.55,0,0,0,0-3.65,3.31,3.31,0,0,0-2.22-.66h-3.32Zm5.87,6.36a2.42,2.42,0,0,0,.84-2,2.47,2.47,0,0,0-.88-2,3.5,3.5,0,0,0-2.35-.74h-3.48v5.41H433A3.49,3.49,0,0,0,435.3,335.69Z" transform="translate(-48.83 -23.78)" style="fill: #0897d1"/>
        <path d="M451.85,332.76h-9.64a3.79,3.79,0,0,0,3.92,3.78,3.72,3.72,0,0,0,2.16-.6,3.14,3.14,0,0,0,1.22-1.62h2.16a5.22,5.22,0,0,1-1.93,2.83,5.84,5.84,0,0,1-3.61,1.09,6.11,6.11,0,0,1-3.07-.77,5.48,5.48,0,0,1-2.13-2.19,7.57,7.57,0,0,1,0-6.57,5.21,5.21,0,0,1,2.1-2.16,6.24,6.24,0,0,1,3.12-.76,6,6,0,0,1,3,.75,5.16,5.16,0,0,1,2,2,6.14,6.14,0,0,1,.71,3C451.91,331.93,451.89,332.34,451.85,332.76Zm-2.51-3.6a3.33,3.33,0,0,0-1.38-1.25,4.23,4.23,0,0,0-1.92-.43,3.72,3.72,0,0,0-2.59,1,3.92,3.92,0,0,0-1.22,2.68h7.61A3.68,3.68,0,0,0,449.34,329.16Z" transform="translate(-48.83 -23.78)" style="fill: #0897d1"/>
        <path d="M459.46,327.63h-2.53V338h-2V327.63h-1.57V326h1.57v-.86a3.77,3.77,0,0,1,1-3,4.94,4.94,0,0,1,3.36-.94v1.68a2.69,2.69,0,0,0-1.86.51,2.29,2.29,0,0,0-.54,1.71V326h2.53Z" transform="translate(-48.83 -23.78)" style="fill: #0897d1"/>
        <path d="M464,337.47a5.42,5.42,0,0,1-2.16-2.19A6.72,6.72,0,0,1,461,332a6.5,6.5,0,0,1,.81-3.27,5.44,5.44,0,0,1,2.19-2.17,6.7,6.7,0,0,1,6.2,0,5.55,5.55,0,0,1,2.19,2.16,6.56,6.56,0,0,1,.8,3.28,6.43,6.43,0,0,1-.82,3.29,5.68,5.68,0,0,1-2.24,2.19,6.44,6.44,0,0,1-3.12.77A6.22,6.22,0,0,1,464,337.47Zm5.09-1.5a3.83,3.83,0,0,0,1.53-1.51,5.57,5.57,0,0,0,0-4.93,3.74,3.74,0,0,0-1.49-1.51,4.37,4.37,0,0,0-4,0,3.55,3.55,0,0,0-1.46,1.51,5,5,0,0,0-.55,2.46,5.27,5.27,0,0,0,.54,2.49,3.6,3.6,0,0,0,1.44,1.5,4,4,0,0,0,2,.5A4.18,4.18,0,0,0,469.07,336Z" transform="translate(-48.83 -23.78)" style="fill: #0897d1"/>
        <path d="M479.38,326.34a4.67,4.67,0,0,1,2.39-.58v2.07h-.53q-3.37,0-3.37,3.66V338h-2V326h2v1.95A3.82,3.82,0,0,1,479.38,326.34Z" transform="translate(-48.83 -23.78)" style="fill: #0897d1"/>
        <path d="M495,332.76h-9.63a3.79,3.79,0,0,0,3.91,3.78,3.73,3.73,0,0,0,2.17-.6,3.2,3.2,0,0,0,1.22-1.62h2.15a5.17,5.17,0,0,1-1.93,2.83,5.82,5.82,0,0,1-3.61,1.09,6.14,6.14,0,0,1-3.07-.77,5.39,5.39,0,0,1-2.12-2.19,6.72,6.72,0,0,1-.77-3.29,6.87,6.87,0,0,1,.75-3.28,5.21,5.21,0,0,1,2.1-2.16,6.2,6.2,0,0,1,3.11-.76,6.06,6.06,0,0,1,3,.75,5.13,5.13,0,0,1,2,2,6,6,0,0,1,.72,3C495.08,331.93,495.05,332.34,495,332.76Zm-2.51-3.6a3.25,3.25,0,0,0-1.37-1.25,4.24,4.24,0,0,0-1.93-.43,3.68,3.68,0,0,0-2.58,1,3.92,3.92,0,0,0-1.22,2.68H493A3.68,3.68,0,0,0,492.5,329.16Z" transform="translate(-48.83 -23.78)" style="fill: #0897d1"/>
        <path d="M512.71,323.64a6.7,6.7,0,0,1,2.82,2.68,9.09,9.09,0,0,1,0,8.17,6.55,6.55,0,0,1-2.82,2.64,9.66,9.66,0,0,1-4.35.91h-4.77V322.71h4.77A9.52,9.52,0,0,1,512.71,323.64Zm.19,11.18a6,6,0,0,0,1.56-4.41,6.11,6.11,0,0,0-1.58-4.47,6,6,0,0,0-4.52-1.61h-2.77v12.06h2.77A6.14,6.14,0,0,0,512.9,334.82Z" transform="translate(-48.83 -23.78)" style="fill: #0897d1"/>
        <path d="M530.08,332.76h-9.64a3.79,3.79,0,0,0,3.92,3.78,3.75,3.75,0,0,0,2.17-.6,3.25,3.25,0,0,0,1.22-1.62h2.15a5.22,5.22,0,0,1-1.93,2.83,5.84,5.84,0,0,1-3.61,1.09,6.11,6.11,0,0,1-3.07-.77,5.39,5.39,0,0,1-2.12-2.19,6.72,6.72,0,0,1-.77-3.29,7,7,0,0,1,.74-3.28,5.17,5.17,0,0,1,2.11-2.16,6.18,6.18,0,0,1,3.11-.76,6,6,0,0,1,3,.75,5.16,5.16,0,0,1,2,2,6,6,0,0,1,.71,3C530.14,331.93,530.12,332.34,530.08,332.76Zm-2.51-3.6a3.37,3.37,0,0,0-1.37-1.25,4.27,4.27,0,0,0-1.93-.43,3.72,3.72,0,0,0-2.59,1,4,4,0,0,0-1.22,2.68h7.62A3.68,3.68,0,0,0,527.57,329.16Z" transform="translate(-48.83 -23.78)" style="fill: #0897d1"/>
        <path d="M536.56,326.48a5.29,5.29,0,0,1,2.74-.69,5.56,5.56,0,0,1,2.91.77,5.43,5.43,0,0,1,2.06,2.16,7.42,7.42,0,0,1,0,6.5,5.47,5.47,0,0,1-5,3,5.26,5.26,0,0,1-2.72-.69,5,5,0,0,1-1.79-1.73v7.94h-2V326h2v2.22A4.68,4.68,0,0,1,536.56,326.48Zm5.86,3.11a3.88,3.88,0,0,0-1.49-1.54,4.25,4.25,0,0,0-4.09,0,3.9,3.9,0,0,0-1.49,1.57,4.76,4.76,0,0,0-.56,2.36,4.83,4.83,0,0,0,.56,2.39,3.93,3.93,0,0,0,1.49,1.56,4.14,4.14,0,0,0,4.09,0,3.87,3.87,0,0,0,1.49-1.56A5,5,0,0,0,543,332,4.89,4.89,0,0,0,542.42,329.59Z" transform="translate(-48.83 -23.78)" style="fill: #0897d1"/>
        <path d="M547.66,328.72a5.34,5.34,0,0,1,2.05-2.16,5.59,5.59,0,0,1,2.92-.77,5.32,5.32,0,0,1,2.75.68,4.61,4.61,0,0,1,1.74,1.71V326h2V338h-2V335.8a4.82,4.82,0,0,1-1.78,1.75,5.27,5.27,0,0,1-2.73.69,5.57,5.57,0,0,1-2.91-.79,5.51,5.51,0,0,1-2-2.23,7.42,7.42,0,0,1,0-6.5Zm8.91.9a3.93,3.93,0,0,0-1.49-1.56,4.13,4.13,0,0,0-2.06-.53,4,4,0,0,0-2,.52,3.92,3.92,0,0,0-1.48,1.54A5,5,0,0,0,549,332a5.1,5.1,0,0,0,.55,2.41,3.91,3.91,0,0,0,1.48,1.56,4,4,0,0,0,2,.54,4,4,0,0,0,2.06-.54,3.93,3.93,0,0,0,1.49-1.56,5,5,0,0,0,.55-2.39A4.94,4.94,0,0,0,556.57,329.62Z" transform="translate(-48.83 -23.78)" style="fill: #0897d1"/>
        <path d="M566,326.34a4.66,4.66,0,0,1,2.38-.58v2.07h-.52q-3.37,0-3.37,3.66V338h-2V326h2v1.95A3.76,3.76,0,0,1,566,326.34Z" transform="translate(-48.83 -23.78)" style="fill: #0897d1"/>
        <path d="M573.18,327.63v7.11a1.67,1.67,0,0,0,.37,1.24,1.8,1.8,0,0,0,1.3.37h1.47V338h-1.8a3.61,3.61,0,0,1-2.51-.77,3.28,3.28,0,0,1-.84-2.53v-7.11h-1.56V326h1.56v-3h2v3h3.14v1.64Z" transform="translate(-48.83 -23.78)" style="fill: #0897d1"/>
        <path d="M589.43,326V338h-2v-1.78a3.83,3.83,0,0,1-1.59,1.44,5,5,0,0,1-2.26.52,5.39,5.39,0,0,1-2.53-.59,4.15,4.15,0,0,1-1.77-1.75,5.75,5.75,0,0,1-.65-2.83V326h2v6.79a3.85,3.85,0,0,0,.9,2.74,3.23,3.23,0,0,0,2.47,1,3.3,3.3,0,0,0,2.53-1,4.1,4.1,0,0,0,.92-2.88V326Z" transform="translate(-48.83 -23.78)" style="fill: #0897d1"/>
        <path d="M596.33,326.34a4.67,4.67,0,0,1,2.39-.58v2.07h-.53c-2.24,0-3.37,1.22-3.37,3.66V338h-2V326h2v1.95A3.82,3.82,0,0,1,596.33,326.34Z" transform="translate(-48.83 -23.78)" style="fill: #0897d1"/>
        <path d="M612,332.76h-9.63a3.79,3.79,0,0,0,3.91,3.78,3.73,3.73,0,0,0,2.17-.6,3.2,3.2,0,0,0,1.22-1.62h2.16a5.23,5.23,0,0,1-1.94,2.83,5.82,5.82,0,0,1-3.61,1.09,6.14,6.14,0,0,1-3.07-.77,5.39,5.39,0,0,1-2.12-2.19,7.48,7.48,0,0,1,0-6.57,5.21,5.21,0,0,1,2.1-2.16,6.2,6.2,0,0,1,3.11-.76,6.06,6.06,0,0,1,3,.75,5.13,5.13,0,0,1,2,2,6,6,0,0,1,.72,3C612,331.93,612,332.34,612,332.76Zm-2.51-3.6a3.25,3.25,0,0,0-1.37-1.25,4.24,4.24,0,0,0-1.93-.43,3.68,3.68,0,0,0-2.58,1,3.92,3.92,0,0,0-1.22,2.68H610A3.68,3.68,0,0,0,609.45,329.16Z" transform="translate(-48.83 -23.78)" style="fill: #0897d1"/>
      </g>
    </g>
    <path d="M361.08,99.31l24.3,175.76L245.81,384.61,81.93,318.41,57.63,142.65,197.2,33.1Z" transform="translate(-48.83 -23.78)" style="fill: #fff"/>
    <g style="isolation: isolate">
      <g style="isolation: isolate">
        <path d="M164.36,328.26l-.27-1.91a4,4,0,0,0,.86.41,6.75,6.75,0,0,0,1,.26,7.46,7.46,0,0,0,1.05.1,4.89,4.89,0,0,0,1-.05,3.74,3.74,0,0,0,2.16-.87,1.91,1.91,0,0,0,.52-1.7,1.86,1.86,0,0,0-.39-.94,2.62,2.62,0,0,0-.79-.67,6.92,6.92,0,0,0-1.12-.51L167,321.9c-.52-.18-1-.36-1.46-.56a5.58,5.58,0,0,1-1.21-.67,3.7,3.7,0,0,1-.88-.93,3.59,3.59,0,0,1-.27-3,3.57,3.57,0,0,1,.93-1.31,4.91,4.91,0,0,1,1.45-.89,6.93,6.93,0,0,1,1.73-.47,6.74,6.74,0,0,1,3.06.07l.26,1.83a5.49,5.49,0,0,0-3.27-.41,5.37,5.37,0,0,0-1.05.26,2.91,2.91,0,0,0-.9.5,2,2,0,0,0-.58.74,1.73,1.73,0,0,0-.13,1,2,2,0,0,0,.33.89,2.3,2.3,0,0,0,.68.63,5.84,5.84,0,0,0,1,.48q.6.22,1.38.48c.53.18,1,.37,1.52.58a6.18,6.18,0,0,1,1.29.73,4,4,0,0,1,1,1,3,3,0,0,1,.49,1.33,3.41,3.41,0,0,1-.16,1.8,3.23,3.23,0,0,1-.92,1.3,4.78,4.78,0,0,1-1.48.87,8.79,8.79,0,0,1-1.85.46,7.76,7.76,0,0,1-.82.06c-.32,0-.66,0-1,0a9.66,9.66,0,0,1-1-.11A3,3,0,0,1,164.36,328.26Z" transform="translate(-48.83 -23.78)" style="fill: #e6a900"/>
        <path d="M186.34,325.75l-1.79.25-2-3.68-5.88.82-.84,4.09-1.81.25,3.37-14.61,1.69-.24Zm-4.55-4.82-3-5.6a5.1,5.1,0,0,1-.35-.9h0a4.73,4.73,0,0,1-.09,1L177,321.61Z" transform="translate(-48.83 -23.78)" style="fill: #e6a900"/>
        <path d="M195.39,310.33l-3.19,14.59-1.78.25-7-13.16,1.81-.25,5.38,10.46a6.46,6.46,0,0,1,.45,1.19h0a6.17,6.17,0,0,1,.15-1.29l2.37-11.53Z" transform="translate(-48.83 -23.78)" style="fill: #e6a900"/>
        <path d="M206.68,322.89l-7.35,1-2-13.87,7-1,.21,1.47-5.42.76.65,4.61,5-.7.21,1.46-5,.7.68,4.85,5.73-.8Z" transform="translate(-48.83 -23.78)" style="fill: #e6a900"/>
        <path d="M224.13,314.72q.83,5.83-4.45,6.58-5,.7-5.84-4.91l-1.19-8.48,1.63-.23,1.17,8.37q.6,4.27,4.2,3.76c2.32-.32,3.28-1.86,2.89-4.6l-1.19-8.52,1.62-.23Z" transform="translate(-48.83 -23.78)" style="fill: #e6a900"/>
        <path d="M229.27,314.37l.74,5.24-1.63.23L226.43,306l3.81-.53a5,5,0,0,1,3.6.6,3.89,3.89,0,0,1,1.66,2.88,4.26,4.26,0,0,1-.91,3.42,5.23,5.23,0,0,1-3.49,1.77Zm-1-7.16.8,5.69,1.71-.24a3.84,3.84,0,0,0,2.46-1.13,2.74,2.74,0,0,0,.57-2.3q-.37-2.75-3.63-2.28Z" transform="translate(-48.83 -23.78)" style="fill: #e6a900"/>
        <path d="M251.36,304l-4,.56,1.75,12.4-1.63.23-1.74-12.4-4,.56-.21-1.47,9.62-1.35Z" transform="translate(-48.83 -23.78)" style="fill: #e6a900"/>
        <path d="M260,315.63a6.14,6.14,0,0,1-5-1.27,7.31,7.31,0,0,1-2.48-4.81,7.7,7.7,0,0,1,1.06-5.6,6.36,6.36,0,0,1,4.64-2.68,6,6,0,0,1,4.9,1.28,7.31,7.31,0,0,1,2.46,4.82,7.76,7.76,0,0,1-1,5.62A6.27,6.27,0,0,1,260,315.63Zm-1.69-12.87a4.49,4.49,0,0,0-3.33,2.07,6.17,6.17,0,0,0-.78,4.33,6.23,6.23,0,0,0,1.91,3.94,4.32,4.32,0,0,0,3.68,1.07,4.54,4.54,0,0,0,3.39-2,6.14,6.14,0,0,0,.73-4.35,6.46,6.46,0,0,0-1.87-4.07A4.42,4.42,0,0,0,258.29,302.76Z" transform="translate(-48.83 -23.78)" style="fill: #e6a900"/>
      </g>
      <g style="isolation: isolate">
        <path d="M283,307.46a5,5,0,0,1-.09,2,4.62,4.62,0,0,1-.78,1.68,4.67,4.67,0,0,1-1.37,1.24,5.28,5.28,0,0,1-4,.5,4.33,4.33,0,0,1-1.74-1,6,6,0,0,1-1.26-1.89,10,10,0,0,1-.72-2.67,11.13,11.13,0,0,1,0-3.31,7.46,7.46,0,0,1,.9-2.66,5.67,5.67,0,0,1,1.76-1.88,5.92,5.92,0,0,1,2.53-.94,6.62,6.62,0,0,1,2.55,0l.35,2.55a4.57,4.57,0,0,0-2.38-.27,3.3,3.3,0,0,0-1.36.49,3.2,3.2,0,0,0-1,1,4.12,4.12,0,0,0-.52,1.43,5.77,5.77,0,0,0,0,1.77h.06a3.39,3.39,0,0,1,2.72-1.77,3.87,3.87,0,0,1,1.6.09,3.41,3.41,0,0,1,1.31.71,4,4,0,0,1,.95,1.25A5.33,5.33,0,0,1,283,307.46Zm-3,.62c-.21-1.49-.92-2.15-2.14-2a1.72,1.72,0,0,0-.73.26,1.61,1.61,0,0,0-.52.52,1.79,1.79,0,0,0-.28.71,2.53,2.53,0,0,0,0,.87,2.79,2.79,0,0,0,.27.93,2.4,2.4,0,0,0,.49.73,1.7,1.7,0,0,0,.66.44,1.46,1.46,0,0,0,.78.09,1.64,1.64,0,0,0,.72-.27,1.71,1.71,0,0,0,.51-.56A2.31,2.31,0,0,0,280,309,3.44,3.44,0,0,0,280,308.08Z" transform="translate(-48.83 -23.78)" style="fill: #e6a900"/>
        <path d="M289.94,311.43q-4.95.7-5.93-6.25a9.52,9.52,0,0,1,.57-5.69,4.52,4.52,0,0,1,3.62-2.44q4.83-.68,5.82,6.39a9.39,9.39,0,0,1-.56,5.59A4.39,4.39,0,0,1,289.94,311.43Zm-1.55-12q-2,.28-1.28,5.26.64,4.69,2.6,4.42c1.26-.18,1.67-1.88,1.21-5.1S289.63,299.23,288.39,299.4Z" transform="translate(-48.83 -23.78)" style="fill: #e6a900"/>
        <path d="M298.88,303a3.19,3.19,0,0,1-2.52-.6,3.53,3.53,0,0,1-1.26-2.4,3.86,3.86,0,0,1,.58-2.88,3.39,3.39,0,0,1,2.42-1.38,3.21,3.21,0,0,1,2.54.58,3.63,3.63,0,0,1,1.22,2.46,3.79,3.79,0,0,1-.57,2.85A3.36,3.36,0,0,1,298.88,303Zm-.59-5.55c-1,.13-1.32.85-1.14,2.16s.71,1.8,1.6,1.67,1.29-.84,1.11-2.13S299.16,297.29,298.29,297.41Zm9.72-2.9-7.08,15.13-2.36.33,7.07-15.13Zm.49,14.27a3.17,3.17,0,0,1-2.51-.61,3.49,3.49,0,0,1-1.26-2.39,3.88,3.88,0,0,1,.57-2.89,3.44,3.44,0,0,1,2.43-1.37,3.14,3.14,0,0,1,2.53.57,3.65,3.65,0,0,1,1.23,2.45,3.81,3.81,0,0,1-.58,2.86A3.35,3.35,0,0,1,308.5,308.78Zm-.62-5.55c-.93.13-1.31.85-1.13,2.16s.72,1.8,1.63,1.67,1.28-.84,1.1-2.13a2.28,2.28,0,0,0-.56-1.34A1.21,1.21,0,0,0,307.88,303.23Z" transform="translate(-48.83 -23.78)" style="fill: #e6a900"/>
      </g>
    </g>
    <g style="isolation: isolate">
      <g style="isolation: isolate">
        <path d="M160.42,232.84l-1.26-9a17.35,17.35,0,0,0,11.65,2.54,12.85,12.85,0,0,0,2.95-.73,7.08,7.08,0,0,0,2-1.15,3.81,3.81,0,0,0,1.09-1.47,3.29,3.29,0,0,0,.2-1.67,3.53,3.53,0,0,0-1-2,7.39,7.39,0,0,0-2.08-1.46,19.31,19.31,0,0,0-3-1.12c-1.14-.34-2.36-.67-3.66-1a17.81,17.81,0,0,1-7.7-3.81,10.6,10.6,0,0,1-3.28-6.52,11.08,11.08,0,0,1,.51-5.58,10.9,10.9,0,0,1,2.91-4.2,15.74,15.74,0,0,1,4.73-2.85,26.44,26.44,0,0,1,6-1.54,36.75,36.75,0,0,1,5.62-.4,22,22,0,0,1,4.64.53l1.18,8.39a13.51,13.51,0,0,0-2.38-.92,16,16,0,0,0-2.58-.54,18.84,18.84,0,0,0-2.58-.17,17.92,17.92,0,0,0-2.39.17,12.62,12.62,0,0,0-2.77.68,7.35,7.35,0,0,0-2,1.13,4.23,4.23,0,0,0-1.17,1.47,3,3,0,0,0-.24,1.73,3.32,3.32,0,0,0,.79,1.74,6.3,6.3,0,0,0,1.72,1.3,17.49,17.49,0,0,0,2.59,1.07c1,.32,2.12.64,3.36,1a35.56,35.56,0,0,1,4.64,1.53,15.38,15.38,0,0,1,3.65,2.11,10,10,0,0,1,2.57,3,13.17,13.17,0,0,1,.85,10,10.43,10.43,0,0,1-2.95,4.19,15.09,15.09,0,0,1-4.8,2.75,29.82,29.82,0,0,1-6,1.48,33.94,33.94,0,0,1-6.38.32A19.15,19.15,0,0,1,160.42,232.84Z" transform="translate(-48.83 -23.78)" style="fill: #e6a900"/>
        <path d="M230.05,224.62,220.18,226l-4.12-8.54-14.3,2-1.58,9.34-9.81,1.38,9-42.27,10.74-1.51ZM213,210.8l-6.22-12.91a17.22,17.22,0,0,1-1.18-3.52l-.23,0a15.74,15.74,0,0,1-.21,3.61l-2.46,14.24Z" transform="translate(-48.83 -23.78)" style="fill: #e6a900"/>
        <path d="M259,220.55l-23.95,3.37-5.65-40.22,9.05-1.27,4.62,32.87,14.9-2.1Z" transform="translate(-48.83 -23.78)" style="fill: #e6a900"/>
        <path d="M288.55,216.4l-24.12,3.39-5.65-40.22L282,176.31l1,7.38-14.14,2,1.26,8.94,13.15-1.84,1,7.34L271.16,202l1.3,9.2,15.06-2.12Z" transform="translate(-48.83 -23.78)" style="fill: #e6a900"/>
      </g>
    </g>
    <g style="isolation: isolate">
      <g style="isolation: isolate">
        <path d="M120.7,133.24l5.67,40.32-9.83,1.38-2.33-16.6-15.28,2.14,2.34,16.6-9.82,1.38-5.67-40.32,9.82-1.38,2.22,15.8,15.28-2.15-2.22-15.79Z" transform="translate(-48.83 -23.78)" style="fill: #e6a900"/>
        <path d="M141.76,169.11a20,20,0,0,1-8.56-6.32,22,22,0,0,1-3-21.29,20,20,0,0,1,6.49-8.4,22.08,22.08,0,0,1,20.85-2.93,19.52,19.52,0,0,1,8.5,6.3,22.22,22.22,0,0,1,3,21.28,19.75,19.75,0,0,1-6.43,8.43,22,22,0,0,1-20.82,2.93ZM158.57,157a14.08,14.08,0,0,0-2.39-17,10.07,10.07,0,0,0-8.18-2.1,10.2,10.2,0,0,0-7.34,4.25,14.19,14.19,0,0,0,2.41,17.09,10.14,10.14,0,0,0,8.23,2.1A10,10,0,0,0,158.57,157Z" transform="translate(-48.83 -23.78)" style="fill: #e6a900"/>
        <path d="M187.33,157.26l12.87-1.81,1.06,7.58-22.69,3.19-5.66-40.32,9.82-1.38Z" transform="translate(-48.83 -23.78)" style="fill: #e6a900"/>
        <path d="M210.12,120.67,215.79,161,206,162.37l-5.67-40.32Z" transform="translate(-48.83 -23.78)" style="fill: #e6a900"/>
        <path d="M243.85,118.51a18.19,18.19,0,0,1,8.38,6,22.76,22.76,0,0,1,3,21.05,18.24,18.24,0,0,1-6.41,8.17A23.76,23.76,0,0,1,238,157.86L222.91,160l-5.66-40.32,15.1-2.13A23.76,23.76,0,0,1,243.85,118.51Zm.59,26.68q2.67-3.48,1.89-9.05T242,127.9q-3.54-2.67-9.11-1.88l-4.65.65,3.29,23.44,4.65-.66Q241.77,148.67,244.44,145.19Z" transform="translate(-48.83 -23.78)" style="fill: #e6a900"/>
        <path d="M288.77,143.47l-15,2.11L272.31,153,262,154.49,271,112.12l11.37-1.6,20.26,38.27-10.4,1.46Zm-3.6-7.23-7.07-14.06-2.86,15.46Z" transform="translate(-48.83 -23.78)" style="fill: #e6a900"/>
        <path d="M335.91,103l-10.16,29,1.87,13.32-9.82,1.38-1.88-13.32-17.75-25,11.15-1.56,10.18,15.79,5.38-18Z" transform="translate(-48.83 -23.78)" style="fill: #e6a900"/>
      </g>
    </g>
    <g>
      <rect x="141.4" y="249.41" width="179" height="39.53" rx="5" transform="translate(-84.05 10.97) rotate(-8)" style="fill: #e6a900"/>
      <g style="isolation: isolate">
        <g style="isolation: isolate">
          <path d="M197.11,284l-4.07.57-8.24-9.33,1.45,10.29-4.07.57-2.34-16.68,4.06-.58,8.25,9.39-1.45-10.34,4.06-.57Z" transform="translate(-48.83 -23.78)" style="fill: #fff"/>
          <path d="M203.5,282.11a8.27,8.27,0,0,1-3.54-2.62,9.08,9.08,0,0,1-1.24-8.8,8.25,8.25,0,0,1,2.69-3.48A9.12,9.12,0,0,1,210,266a8.05,8.05,0,0,1,3.52,2.6,9.2,9.2,0,0,1,1.23,8.81,8.29,8.29,0,0,1-2.66,3.49,8.75,8.75,0,0,1-4.15,1.7A8.86,8.86,0,0,1,203.5,282.11Zm7-5a5.85,5.85,0,0,0-1-7.05,4.15,4.15,0,0,0-3.39-.87,4.22,4.22,0,0,0-3,1.76,5.88,5.88,0,0,0,1,7.07,4.59,4.59,0,0,0,6.42-.91Z" transform="translate(-48.83 -23.78)" style="fill: #fff"/>
          <path d="M239.35,261l-2,17.3-4.92.69-4.2-10.61L227,279.75l-4.92.69-6.58-16.09,4.35-.61L224,275.55,225.23,263l4.47-.63,4.56,11.74.72-12.48Z" transform="translate(-48.83 -23.78)" style="fill: #fff"/>
          <path d="M252.22,275.26a8.25,8.25,0,0,1-3.54-2.61,9.11,9.11,0,0,1-1.24-8.81,8.25,8.25,0,0,1,2.69-3.48,9.12,9.12,0,0,1,8.62-1.21,8,8,0,0,1,3.52,2.6,9.2,9.2,0,0,1,1.23,8.81,8.23,8.23,0,0,1-2.66,3.49,9.11,9.11,0,0,1-8.62,1.21Zm7-5a5.86,5.86,0,0,0-1-7.05,4.62,4.62,0,0,0-6.42.89,5.88,5.88,0,0,0,1,7.07,4.59,4.59,0,0,0,6.42-.91Z" transform="translate(-48.83 -23.78)" style="fill: #fff"/>
          <path d="M282.38,272l-4.06.57-8.25-9.34,1.45,10.29-4.06.58-2.35-16.69,4.07-.57,8.25,9.38L276,255.86l4.07-.58Z" transform="translate(-48.83 -23.78)" style="fill: #fff"/>
        </g>
      </g>
    </g>
    <rect x="49.71" y="52.42" width="307" height="49" rx="8" transform="translate(-57.56 5.25) rotate(-8)" style="fill: #e6a900"/>
    <g style="isolation: isolate">
      <g style="isolation: isolate">
        <path d="M102.07,92.46a4.42,4.42,0,0,1,.24,6,6.21,6.21,0,0,1-3.9,1.79l-7.77,1.1L88.29,84.64l7.51-1a6.23,6.23,0,0,1,4.15.6,4.27,4.27,0,0,1,1.45,5.52,4,4,0,0,1-1.86,1.64A4,4,0,0,1,102.07,92.46ZM93.3,90.82,96,90.45a2.46,2.46,0,0,0,1.47-.66,1.87,1.87,0,0,0-.37-2.6A2.35,2.35,0,0,0,95.48,87l-2.67.38Zm5.45,5.55A1.67,1.67,0,0,0,99.12,95a1.72,1.72,0,0,0-.78-1.3,2.36,2.36,0,0,0-1.67-.27l-3,.41.52,3.68,3-.42A2.4,2.4,0,0,0,98.75,96.37Z" transform="translate(-48.83 -23.78)" style="fill: #fafafa"/>
        <path d="M108,81.88l1.4,10a3.31,3.31,0,0,0,1.06,2.2,2.83,2.83,0,0,0,2.28.51,2.9,2.9,0,0,0,2.07-1.12A3.27,3.27,0,0,0,115.2,91l-1.41-10,4.07-.57,1.4,10a7.16,7.16,0,0,1-.42,3.92,6.17,6.17,0,0,1-2.23,2.69,8.09,8.09,0,0,1-3.47,1.28,7.8,7.8,0,0,1-3.63-.28,5.79,5.79,0,0,1-2.79-2,7.47,7.47,0,0,1-1.44-3.66l-1.4-10Z" transform="translate(-48.83 -23.78)" style="fill: #fafafa"/>
        <path d="M126.91,92.83l7.18-1,.47,3.32-11.79,1.66-.44-3.09L128,82.45l-7.13,1-.47-3.32,11.79-1.66.44,3.09Z" transform="translate(-48.83 -23.78)" style="fill: #fafafa"/>
        <path d="M141.08,90.84l7.17-1,.47,3.33-11.79,1.66-.43-3.09,5.69-11.27-7.13,1-.47-3.33,11.79-1.65.43,3.09Z" transform="translate(-48.83 -23.78)" style="fill: #fafafa"/>
        <path d="M159.87,90.65A8.19,8.19,0,0,1,156.33,88a9,9,0,0,1-1.24-8.8,8.23,8.23,0,0,1,2.68-3.48,8.87,8.87,0,0,1,4.16-1.7,8.76,8.76,0,0,1,4.47.49,8.11,8.11,0,0,1,3.52,2.6A9.16,9.16,0,0,1,171.14,86a8.13,8.13,0,0,1-2.66,3.49,8.72,8.72,0,0,1-4.14,1.7A8.86,8.86,0,0,1,159.87,90.65Zm6.95-5a5.82,5.82,0,0,0-1-7.05,4.61,4.61,0,0,0-6.41.89,5.84,5.84,0,0,0,1,7.07,4.16,4.16,0,0,0,3.4.87A4.12,4.12,0,0,0,166.82,85.65Z" transform="translate(-48.83 -23.78)" style="fill: #fafafa"/>
        <path d="M183.62,71.24l.46,3.26-6.8,1,.49,3.51,5.09-.71.44,3.16-5.08.71.95,6.75-4.07.57-2.34-16.68Z" transform="translate(-48.83 -23.78)" style="fill: #fafafa"/>
        <path d="M196.62,69.42l.46,3.25-6.8,1,.49,3.52,5.09-.72.44,3.16-5.08.72.95,6.75-4.07.57-2.34-16.69Z" transform="translate(-48.83 -23.78)" style="fill: #fafafa"/>
        <path d="M214.66,66.88l.46,3.26-6.8,1,.49,3.52,5.09-.71.44,3.16-5.08.71,1,6.75-4.07.57L203.8,68.41Z" transform="translate(-48.83 -23.78)" style="fill: #fafafa"/>
        <path d="M222.59,81.84A8.36,8.36,0,0,1,219,79.22,8.66,8.66,0,0,1,217.27,75a8.52,8.52,0,0,1,.54-4.56,8.35,8.35,0,0,1,2.68-3.48,9.21,9.21,0,0,1,8.63-1.21,8.21,8.21,0,0,1,3.52,2.61,9.23,9.23,0,0,1,1.22,8.81,8.19,8.19,0,0,1-2.66,3.49,8.7,8.7,0,0,1-4.15,1.69A8.84,8.84,0,0,1,222.59,81.84Zm6.95-5a5.81,5.81,0,0,0-1-7,4.12,4.12,0,0,0-3.38-.87,4.19,4.19,0,0,0-3,1.76,5.86,5.86,0,0,0,1,7.07,4.19,4.19,0,0,0,3.4.87A4.15,4.15,0,0,0,229.54,76.83Z" transform="translate(-48.83 -23.78)" style="fill: #fafafa"/>
        <path d="M246.33,79.44,242,73.63l-1,.14.88,6.3-4.06.57L235.48,64l6.82-1a7.51,7.51,0,0,1,3.46.21,4.82,4.82,0,0,1,2.34,1.6,5.41,5.41,0,0,1,1.07,2.58,4.91,4.91,0,0,1-3,5.34l4.78,6.07ZM240.6,70.9l2.52-.36a2.28,2.28,0,0,0,1.59-.78,2.06,2.06,0,0,0,.35-1.62,2,2,0,0,0-.77-1.42,2.33,2.33,0,0,0-1.76-.32l-2.52.36Z" transform="translate(-48.83 -23.78)" style="fill: #fafafa"/>
        <path d="M262,74.05l5.32-.75.44,3.13-9.38,1.32L256,61.07l4.06-.57Z" transform="translate(-48.83 -23.78)" style="fill: #fafafa"/>
        <path d="M271.87,62.16l.47,3.38,5.45-.77.44,3.14-5.45.76.52,3.66,6.15-.86.46,3.25-10.22,1.44-2.34-16.68L277.57,58,278,61.3Z" transform="translate(-48.83 -23.78)" style="fill: #fafafa"/>
        <path d="M285.25,73.54a5.43,5.43,0,0,1-2.57-1.43,4.89,4.89,0,0,1-1.31-2.68l4.33-.61a2.15,2.15,0,0,0,.84,1.33,2.11,2.11,0,0,0,1.49.28,2.27,2.27,0,0,0,1.37-.61,1.41,1.41,0,0,0,.36-1.23,1.36,1.36,0,0,0-.56-1,3.46,3.46,0,0,0-1.11-.53c-.43-.11-1-.23-1.81-.35a19.73,19.73,0,0,1-2.78-.62,4.92,4.92,0,0,1-2-1.23,4.11,4.11,0,0,1-1.1-2.44,4.4,4.4,0,0,1,1.18-3.89,7,7,0,0,1,4.21-1.93,7.09,7.09,0,0,1,4.63.69,4.76,4.76,0,0,1,2.32,3.42l-4.4.62a1.73,1.73,0,0,0-.77-1.19,2.11,2.11,0,0,0-1.47-.27,1.77,1.77,0,0,0-1.13.56,1.42,1.42,0,0,0-.29,1.2,1.4,1.4,0,0,0,.93,1.15,12.81,12.81,0,0,0,2.52.64,23.64,23.64,0,0,1,2.77.67,5,5,0,0,1,1.95,1.21A3.89,3.89,0,0,1,294,67.68a4.86,4.86,0,0,1-.36,2.7,5.07,5.07,0,0,1-1.84,2.14,7.22,7.22,0,0,1-3.16,1.15A8.68,8.68,0,0,1,285.25,73.54Z" transform="translate(-48.83 -23.78)" style="fill: #fafafa"/>
        <path d="M299.86,71.49a5.41,5.41,0,0,1-2.56-1.44A4.76,4.76,0,0,1,296,67.38l4.32-.61a2.1,2.1,0,0,0,.84,1.32,2.12,2.12,0,0,0,1.5.29,2.28,2.28,0,0,0,1.37-.62,1.38,1.38,0,0,0,.36-1.22,1.4,1.4,0,0,0-.56-1,3.5,3.5,0,0,0-1.12-.52,17,17,0,0,0-1.8-.35,18,18,0,0,1-2.78-.63,4.85,4.85,0,0,1-2-1.23,4.1,4.1,0,0,1-1.09-2.43,4.42,4.42,0,0,1,1.17-3.89,7,7,0,0,1,4.21-1.94,7.14,7.14,0,0,1,4.63.7,4.76,4.76,0,0,1,2.32,3.42l-4.39.61a1.79,1.79,0,0,0-.77-1.19,2.17,2.17,0,0,0-1.47-.26,1.82,1.82,0,0,0-1.14.56,1.52,1.52,0,0,0,.65,2.34,12.18,12.18,0,0,0,2.51.64,23.14,23.14,0,0,1,2.78.68,5.12,5.12,0,0,1,1.95,1.2,3.94,3.94,0,0,1,1.08,2.35,4.91,4.91,0,0,1-.36,2.69,5.12,5.12,0,0,1-1.85,2.15,7.25,7.25,0,0,1-3.16,1.15A8.68,8.68,0,0,1,299.86,71.49Z" transform="translate(-48.83 -23.78)" style="fill: #fafafa"/>
        <path d="M314.7,52.22l1.13,11.45-3.45.48L310.3,52.83ZM313.18,69.6a2.08,2.08,0,0,1-.9-1.46,2.18,2.18,0,0,1,.46-1.69,2.46,2.46,0,0,1,1.65-.89,2.5,2.5,0,0,1,1.82.4,2.16,2.16,0,0,1,.9,1.5,2,2,0,0,1-.46,1.65A2.39,2.39,0,0,1,315,70,2.47,2.47,0,0,1,313.18,69.6Z" transform="translate(-48.83 -23.78)" style="fill: #fafafa"/>
      </g>
    </g>
    <g>
      <path d="M353.17,27.76s.24.07.59.29.82.55,1.4.95l.92.65.25.18.14.11.16.16a1.22,1.22,0,0,1,.32.83.89.89,0,0,1,0,.23,1.42,1.42,0,0,1,0,.2,2.42,2.42,0,0,1-.1.36c0,.11-.09.22-.13.32s-.07.19-.11.29-.13.4-.19.6a6.25,6.25,0,0,0-.16.62A10.27,10.27,0,0,0,356,36a10.43,10.43,0,0,0,.25,2.15,12.32,12.32,0,0,0,.45,1.46c.07.17.13.3.16.4l.06.14-1.75.61-.05-.17c0-.11-.09-.28-.14-.48a12.79,12.79,0,0,1-.36-1.74,11.86,11.86,0,0,1,.51-5.19c.08-.22.16-.44.25-.65s.18-.43.29-.64l.15-.31c0-.09.09-.18.14-.27a2.56,2.56,0,0,0,.11-.24.76.76,0,0,0,0-.11s0-.06,0-.09a.49.49,0,0,0-.08-.33l-.06-.07-.09-.09-.22-.2-.83-.76c-.52-.47-.94-.88-1.22-1.17S353.14,27.8,353.17,27.76Z" transform="translate(-48.83 -23.78)" style="fill: #64410f"/>
      <path d="M378.83,43.8s-.25,0-.64-.14-.93-.34-1.58-.59l-1.05-.41-.28-.11-.12,0-.09,0a.49.49,0,0,0-.33.07l-.06.06-.09.07-.17.21-.18.25-.21.27c-.13.19-.29.36-.44.54s-.32.34-.48.51a11.92,11.92,0,0,1-4.44,2.73,11.12,11.12,0,0,1-1.72.44l-.49.08-.18,0-.22-1.84h.16l.42,0a11,11,0,0,0,1.51-.23,10.73,10.73,0,0,0,2-.71,10.46,10.46,0,0,0,2.11-1.31c.16-.14.32-.27.48-.42a4.67,4.67,0,0,0,.45-.44l.22-.23.23-.25L374,42l.16-.12.2-.11a1.25,1.25,0,0,1,.89-.08l.21.08.16.08.27.14,1,.54c.61.34,1.12.63,1.46.84S378.85,43.75,378.83,43.8Z" transform="translate(-48.83 -23.78)" style="fill: #64410f"/>
      <path d="M330.65,61.85c-.07,0,0-.32,0-.83s.23-1.23.42-2.09c.09-.44.2-.9.3-1.4l.09-.37.06-.22a1.86,1.86,0,0,1,.1-.25,1.53,1.53,0,0,1,.84-.78l.15,0,.15,0,.27,0a4.07,4.07,0,0,1,.5,0c.16,0,.32,0,.47,0h.42c.28,0,.56,0,.85,0l.85-.09a14.14,14.14,0,0,0,3.19-.83,12.63,12.63,0,0,0,2.51-1.28,14,14,0,0,0,1.56-1.19l.39-.38.14-.13,1.71,1.8-.18.14-.51.39a15.15,15.15,0,0,1-2,1.22,15.55,15.55,0,0,1-3,1.18,16.33,16.33,0,0,1-3.66.58h-1c-.31,0-.63,0-.94-.06L334,57l-.42,0-.35,0H333a.53.53,0,0,0-.36.24l-.06.1a.77.77,0,0,0-.07.16c0,.12-.09.24-.13.35l-.49,1.33c-.3.82-.57,1.51-.78,2S330.71,61.87,330.65,61.85Z" transform="translate(-48.83 -23.78)" style="fill: #64410f"/>
      <path d="M331,53.06s.12-.2.41-.46.7-.6,1.21-1l.82-.66.23-.17.24-.18a1.79,1.79,0,0,1,.33-.18,1.32,1.32,0,0,1,.44-.08,1.75,1.75,0,0,1,.83.22c.23.13.41.27.59.36a9.9,9.9,0,0,0,1.12.58,10.56,10.56,0,0,0,2.38.73,11.81,11.81,0,0,0,2.14.17,12.47,12.47,0,0,0,1.49-.12l.56-.09.32,1.72-.65.05a14.11,14.11,0,0,1-1.72,0,12.09,12.09,0,0,1-2.39-.42,11.33,11.33,0,0,1-2.58-1,10.52,10.52,0,0,1-1.19-.77c-.19-.15-.35-.28-.5-.38a1,1,0,0,0-.37-.17h-.17l-.2.08-.47.29-.91.54c-.56.33-1,.6-1.38.77S331,53.09,331,53.06Z" transform="translate(-48.83 -23.78)" style="fill: #64410f"/>
      <path d="M357.85,78.85c-.05,0,.12-.29.46-.68s.83-.93,1.44-1.57l1-1c.08-.1.17-.18.26-.28l.11-.12.06-.1a.59.59,0,0,0,.07-.43l0-.06,0,0-.06-.14-.17-.32-.23-.35-.24-.39c-.17-.27-.31-.55-.46-.82s-.28-.57-.42-.85a16.35,16.35,0,0,1-1.08-3.55,15.79,15.79,0,0,1-.26-3.22,17.27,17.27,0,0,1,.24-2.28c.05-.27.1-.49.13-.64l.05-.22,2.36.74-.05.19c0,.12-.1.29-.17.52a15.55,15.55,0,0,0-.39,1.92,13.3,13.3,0,0,0-.05,2.82,13.73,13.73,0,0,0,.66,3.23c.09.27.18.54.29.8a6.81,6.81,0,0,0,.34.78l.18.39c.06.13.14.26.2.41a2.72,2.72,0,0,1,.19.47,2.58,2.58,0,0,1,.08.26.9.9,0,0,0,0,.16l0,.15a1.53,1.53,0,0,1-.33,1.09l-.19.21-.16.14-.31.25-1.11.88c-.7.55-1.28,1-1.7,1.3S357.9,78.89,357.85,78.85Z" transform="translate(-48.83 -23.78)" style="fill: #64410f"/>
      <path d="M365.61,74.71c-.05,0-.06-.23,0-.62s0-.93.1-1.57l.09-1c0-.19,0-.4.05-.56a.74.74,0,0,0,0-.21.77.77,0,0,0-.07-.16.86.86,0,0,0-.31-.26c-.15-.1-.34-.17-.56-.29a9.89,9.89,0,0,1-1.21-.72,11.87,11.87,0,0,1-2.07-1.87,13.11,13.11,0,0,1-1.43-2,15.73,15.73,0,0,1-.78-1.53l-.25-.61,1.68-.46.15.54a12,12,0,0,0,.56,1.4,10.91,10.91,0,0,0,1.09,1.83,10.8,10.8,0,0,0,1.69,1.82,8.44,8.44,0,0,0,1,.76c.16.11.37.22.58.38a1.65,1.65,0,0,1,.56.64,1.06,1.06,0,0,1,.12.43,1.23,1.23,0,0,1,0,.38,2.34,2.34,0,0,1-.05.3l-.06.28-.23,1c-.14.63-.28,1.15-.37,1.52S365.66,74.72,365.61,74.71Z" transform="translate(-48.83 -23.78)" style="fill: #64410f"/>
      <path d="M360.75,63.07A20.46,20.46,0,0,1,358,62.4a30.09,30.09,0,0,1-7-3.25,28.25,28.25,0,0,1-7.4-6.51,18.79,18.79,0,0,1,1.86-1.82,15.3,15.3,0,0,1,5.12-2.9,11.42,11.42,0,0,1,1.73-.4,7.52,7.52,0,0,1-.14-1.57,6.77,6.77,0,0,1,3.92-6,7,7,0,0,1,1.54-.53,7.45,7.45,0,0,1-.23-1.64,6.87,6.87,0,0,1,1-3.77,7.11,7.11,0,0,1,8.67-2.71,8,8,0,0,1,1.28.64,7.18,7.18,0,0,1,2.49,9.85,6.83,6.83,0,0,1-4.43,3.07,6.82,6.82,0,0,1-2.07,6.92,7.06,7.06,0,0,1-2.92,1.52,14.08,14.08,0,0,1,0,7.51A20.22,20.22,0,0,1,360.75,63.07Z" transform="translate(-48.83 -23.78)" style="fill: #64410f"/>
      <path d="M355.73,70.39c-4.13,3.77-9.33,5-13.05,2.7a7.53,7.53,0,0,1-1.14-.88c-2.8-2.6-3.56-7.27-2.15-12a28.17,28.17,0,0,0,7.35,6.45,30.86,30.86,0,0,0,5.85,2.88,22.77,22.77,0,0,0,3.13.89Z" transform="translate(-48.83 -23.78)" style="fill: #64410f"/>
      <path d="M359.1,66.32a19.63,19.63,0,0,1-3.37,4.07,21.13,21.13,0,0,1-3.13-.9,31.2,31.2,0,0,1-5.86-2.87,28.33,28.33,0,0,1-7.35-6.45,19.69,19.69,0,0,1,2.18-4.81,20.75,20.75,0,0,1,2-2.72,28.25,28.25,0,0,0,7.4,6.51,29.83,29.83,0,0,0,7,3.25,20.46,20.46,0,0,0,2.78.67A19.85,19.85,0,0,1,359.1,66.32Z" transform="translate(-48.83 -23.78)" style="fill: #f7be5d"/>
      <path d="M360.8,63l-.19,0a20.41,20.41,0,0,1-2.31-.55s0-.11,0-.17c-.27-4.07.29-9.31-.22-13.37v-.07s0,0-.05,0a2.18,2.18,0,0,1-.27.11c-4,1.35-8.58,4-12.48,5.5a22,22,0,0,1-1.61-1.87c.36-.41.73-.79,1.12-1.16s.49-.45.74-.66l.61-.49a14.58,14.58,0,0,1,4.5-2.4,11.54,11.54,0,0,1,1.74-.4,7,7,0,0,1-.14-1.57v-.18a7.13,7.13,0,0,1,.28-1.64.08.08,0,0,0,0-.05,20.73,20.73,0,0,0,5.26,4.62,20.51,20.51,0,0,0,6.93,2.8c-.09.09-.19.19-.3.28a6.62,6.62,0,0,1-1,.74,7.18,7.18,0,0,1-1.9.78,13.74,13.74,0,0,1,.19,6.74c-.05.26-.11.51-.18.77a2.68,2.68,0,0,1-.07.27A18.87,18.87,0,0,1,360.8,63Z" transform="translate(-48.83 -23.78)" style="fill: #432d14"/>
      <path d="M345.14,54.65a25.93,25.93,0,0,1-3.44,1.09l-.42.09.21-.33a18.74,18.74,0,0,1,2-2.72A23.71,23.71,0,0,0,345.14,54.65Z" transform="translate(-48.83 -23.78)" style="fill: #a27918"/>
      <path d="M359,66.07l-.21.33c0-.14-.07-.28-.1-.42a24.77,24.77,0,0,1-.53-3.74,18.77,18.77,0,0,0,2.49.58A19.85,19.85,0,0,1,359,66.07Z" transform="translate(-48.83 -23.78)" style="fill: #bb9124"/>
      <path d="M358.08,48.9l-.05,0s0,0,0,0Z" transform="translate(-48.83 -23.78)" style="fill: #4a2511"/>
      <path d="M360.75,63.07A20.46,20.46,0,0,1,358,62.4l-.27-.08c.14-.31.27-.61.39-.91a20.34,20.34,0,0,0,.73-2.25,14.08,14.08,0,0,0,0-7.51,7.1,7.1,0,0,0,2.93-1.52,6.78,6.78,0,0,0,1.27-1.5,6.85,6.85,0,0,0,.8-5.41,6.84,6.84,0,0,0,4.43-3.07A7.1,7.1,0,0,0,367,31.27l.13.05a7.33,7.33,0,0,1,1.28.65,7.18,7.18,0,0,1,2.5,9.84,6.84,6.84,0,0,1-4.43,3.07,6.88,6.88,0,0,1-.8,5.42,6.78,6.78,0,0,1-1.29,1.49,6.87,6.87,0,0,1-2.92,1.51,14.12,14.12,0,0,1,0,7.52A18.38,18.38,0,0,1,360.75,63.07Z" transform="translate(-48.83 -23.78)" style="fill: #432d14"/>
      <path d="M355.73,70.39c-4.13,3.77-9.33,5-13.05,2.7a7.53,7.53,0,0,1-1.14-.88l-.1-.1c3.3,1.21,7.39.11,10.86-2.73l.29.11a24.31,24.31,0,0,0,3.13.9Z" transform="translate(-48.83 -23.78)" style="fill: #432d14"/>
      <path d="M339.39,60.17c-1.58,5.36-.43,10.59,3.29,12.91a8,8,0,0,0,1.28.64l.14,0c-2.53-2.44-3.33-6.6-2.31-11l-.22-.21A22.79,22.79,0,0,1,339.39,60.17Z" transform="translate(-48.83 -23.78)" style="fill: #986928"/>
      <path d="M359.1,66.32a19.63,19.63,0,0,1-3.37,4.07,21.13,21.13,0,0,1-3.13-.9l-.29-.1c.26-.21.51-.43.76-.66a19.32,19.32,0,0,0,3.37-4.07,21.09,21.09,0,0,0,1.26-2.34l.26.08a21,21,0,0,0,2.79.67A19.85,19.85,0,0,1,359.1,66.32Z" transform="translate(-48.83 -23.78)" style="fill: #a27918"/>
      <path d="M341.47,55.3a19.52,19.52,0,0,0-2.19,4.81,23.92,23.92,0,0,0,2.18,2.43l.22.21c.08-.33.17-.65.26-1A19.52,19.52,0,0,1,344.12,57a18.52,18.52,0,0,1,1.56-2.16l-.2-.2a20.27,20.27,0,0,1-1.81-2.21,19.5,19.5,0,0,0-2.2,2.91Z" transform="translate(-48.83 -23.78)" style="fill: #fde1b8"/>
      <path d="M350.63,59.74a28.64,28.64,0,0,1-7.58-6.68l-.36-.45.39-.43A18.12,18.12,0,0,1,345,50.29a15.63,15.63,0,0,1,5.36-3,10.36,10.36,0,0,1,1.15-.31,7,7,0,0,1,0-1,7.49,7.49,0,0,1,4.33-6.61,7.79,7.79,0,0,1,1-.39,8.34,8.34,0,0,1-.11-1.11,7.55,7.55,0,0,1,1.14-4.16,7.84,7.84,0,0,1,9.52-3,8.77,8.77,0,0,1,1.4.71,7.89,7.89,0,0,1,2.71,10.81,7.43,7.43,0,0,1-4.19,3.21,7.5,7.5,0,0,1-2.45,6.93,7.71,7.71,0,0,1-2.53,1.46,15,15,0,0,1-.16,7.21,19.15,19.15,0,0,1-.75,2.33l-.21.53-.56-.09a20.32,20.32,0,0,1-2.87-.69A30.32,30.32,0,0,1,350.63,59.74Zm-6.1-7.07a28,28,0,0,0,6.85,5.88,29.38,29.38,0,0,0,6.79,3.17,21.25,21.25,0,0,0,2.12.55c.19-.55.36-1.09.49-1.63a13.28,13.28,0,0,0,0-7.13l-.22-.71.72-.18a6.29,6.29,0,0,0,2.64-1.36,6.14,6.14,0,0,0,1.85-6.21l-.19-.71.72-.15a6.1,6.1,0,0,0,4-2.76A6.49,6.49,0,0,0,368,32.55a7.08,7.08,0,0,0-1.17-.58A6.41,6.41,0,0,0,359,34.4a6.21,6.21,0,0,0-.71,4.86l.19.71-.73.15a6.33,6.33,0,0,0-1.39.47A6.08,6.08,0,0,0,352.88,46a6.67,6.67,0,0,0,.13,1.41l.15.74-.74.1a10.15,10.15,0,0,0-1.63.38,14.36,14.36,0,0,0-4.87,2.76,17.22,17.22,0,0,0-1.39,1.31Z" transform="translate(-48.83 -23.78)" style="fill: #64410f"/>
      <path d="M342.31,73.68a8.3,8.3,0,0,1-1.25-1c-3-2.75-3.86-7.64-2.35-12.75l.39-1.33.85,1.1A27.58,27.58,0,0,0,347.11,66a29.76,29.76,0,0,0,5.72,2.81,22.78,22.78,0,0,0,3,.87l1.36.28-1,.93a15.41,15.41,0,0,1-7,3.8A9.13,9.13,0,0,1,342.31,73.68Zm-2.58-12c-.86,4.1,0,7.85,2.29,10a6.63,6.63,0,0,0,1,.79c3,1.9,7.39,1.18,11.15-1.74-.61-.16-1.23-.36-1.86-.59a32,32,0,0,1-6-2.94,30.33,30.33,0,0,1-6.63-5.53Z" transform="translate(-48.83 -23.78)" style="fill: #64410f"/>
      <path d="M346.36,67.21a28.5,28.5,0,0,1-7.53-6.61l-.22-.29.1-.34A19.81,19.81,0,0,1,341,55a19.43,19.43,0,0,1,2.12-2.82l.56-.64.52.68a27.5,27.5,0,0,0,7.21,6.34,29.38,29.38,0,0,0,6.79,3.17,19.13,19.13,0,0,0,2.69.64l.86.14-.32.81a20.91,20.91,0,0,1-1.71,3.37,19.91,19.91,0,0,1-3.49,4.22l-.27.24-.35-.07a23.83,23.83,0,0,1-3.23-.92A32,32,0,0,1,346.36,67.21ZM340.17,60a28.06,28.06,0,0,0,6.94,6,29.76,29.76,0,0,0,5.72,2.81,21.22,21.22,0,0,0,2.69.79,18.83,18.83,0,0,0,3-3.67,20.5,20.5,0,0,0,1.26-2.36c-.65-.13-1.32-.31-2-.52a30.81,30.81,0,0,1-7.12-3.33,29.58,29.58,0,0,1-7.05-6,20,20,0,0,0-1.42,2,18.42,18.42,0,0,0-2,4.29Z" transform="translate(-48.83 -23.78)" style="fill: #64410f"/>
      <path d="M362.37,24.43a2.11,2.11,0,0,0-.71-.58.73.73,0,0,0-.84.16.7.7,0,0,0,0,.77,2.63,2.63,0,0,0,.59.61,10.61,10.61,0,0,1,3.14,5.5c.89-.16,0-2.76-.18-3.29A11.1,11.1,0,0,0,362.37,24.43Z" transform="translate(-48.83 -23.78)" style="fill: #64410f"/>
      <path d="M377.73,34a2.16,2.16,0,0,1,.84.39.71.71,0,0,1,.22.82.73.73,0,0,1-.71.32,3,3,0,0,1-.8-.26,10.55,10.55,0,0,0-6.31-.42c-.25-.86,2.46-1.23,3-1.28a11,11,0,0,1,3.74.44Z" transform="translate(-48.83 -23.78)" style="fill: #64410f"/>
      <g>
        <path d="M331.39,47.8c-.32-.2-.64-.42-.94-.64a6.75,6.75,0,0,1-3.09-4.6c-.25-2.81,1.14-5,4-6.34l.33-.16.12.35A8.69,8.69,0,0,0,333,38.56a18.14,18.14,0,0,0,8.57,6.27,38.89,38.89,0,0,0,8.85,1.88A52.53,52.53,0,0,1,357.34,48c.5.14.65.12.69.1a.06.06,0,0,0,0,0l.38-2.35.29,2.37a.69.69,0,0,1-.15.52c-.2.23-.54.33-1.19.35a54.81,54.81,0,0,0-7,.88,41.38,41.38,0,0,1-9.29.87A20.44,20.44,0,0,1,331.39,47.8ZM331.34,37c-2.42,1.23-3.54,3.09-3.31,5.52.16,1.82,1.62,3.25,2.81,4.13A19,19,0,0,0,341.09,50a41.37,41.37,0,0,0,9.15-.86c1.89-.32,3.83-.66,5.8-.81-1.9-.44-3.84-.69-5.73-.94a39.45,39.45,0,0,1-9-1.92,18.83,18.83,0,0,1-8.87-6.5A10.09,10.09,0,0,1,331.34,37Z" transform="translate(-48.83 -23.78)"/>
        <g>
          <path d="M357.24,48.27c-5.21-1.43-10.73-1.2-15.81-3.13a18.62,18.62,0,0,1-8.72-6.39,8.73,8.73,0,0,1-1.18-2.24,5.07,5.07,0,0,1-.22-2.86c1.55-6.68,10.76-5.1,14.86-2.74a26.36,26.36,0,0,1,5.43,4.14,24.4,24.4,0,0,1,6,9.13,14.46,14.46,0,0,1,.65,2.69,5.27,5.27,0,0,1,.1,1.19C358.31,48.41,358,48.49,357.24,48.27Z" transform="translate(-48.83 -23.78)" style="fill: #fff"/>
          <path d="M337.37,43.51a16.93,16.93,0,0,1-4.93-4.57,9.22,9.22,0,0,1-1.23-2.32,5.44,5.44,0,0,1-.22-3,5.91,5.91,0,0,1,3.52-4.32c3.49-1.52,8.7-.43,11.83,1.36a26.8,26.8,0,0,1,5.5,4.2,24.38,24.38,0,0,1,6.08,9.25,13.89,13.89,0,0,1,.67,2.76l0,.31a3.17,3.17,0,0,1,.06,1,.66.66,0,0,1-.3.49c-.25.16-.61.16-1.24,0h0a49.65,49.65,0,0,0-6.85-1.23,40,40,0,0,1-9-1.91A22.87,22.87,0,0,1,337.37,43.51Zm9.47-11.81c-.28-.17-.55-.34-.84-.5-2.56-1.47-7.73-2.85-11.23-1.33a5.28,5.28,0,0,0-3.14,3.85,4.8,4.8,0,0,0,.2,2.68A9,9,0,0,0,333,38.56a18.25,18.25,0,0,0,8.56,6.27,39.41,39.41,0,0,0,8.85,1.87A51,51,0,0,1,357.33,48h0c.51.13.66.11.7.09v0a3.34,3.34,0,0,0-.06-.77l0-.32a13.11,13.11,0,0,0-.64-2.63,23.93,23.93,0,0,0-5.93-9,25.61,25.61,0,0,0-4.52-3.58Z" transform="translate(-48.83 -23.78)"/>
        </g>
        <g>
          <path d="M357.34,48.57a62.8,62.8,0,0,0-8,1,36.72,36.72,0,0,1-8.3.71,19.5,19.5,0,0,1-10.44-3.42,6.5,6.5,0,0,1-2.95-4.37,5.46,5.46,0,0,1,.79-3.51,7,7,0,0,1,3-2.49,9.41,9.41,0,0,0,1.18,2.24,18.55,18.55,0,0,0,8.72,6.39c5.09,1.94,10.61,1.7,15.82,3.13.79.22,1.06.13,1.11-.21C358.4,48.38,358.16,48.54,357.34,48.57Z" transform="translate(-48.83 -23.78)" style="fill: #fff"/>
          <path d="M331.39,47.8c-.32-.2-.64-.42-.94-.64a6.75,6.75,0,0,1-3.09-4.6,5.79,5.79,0,0,1,.84-3.72,7.28,7.28,0,0,1,3.19-2.62l.33-.16.12.34A8.43,8.43,0,0,0,333,38.56a18.21,18.21,0,0,0,8.57,6.27,39.75,39.75,0,0,0,8.85,1.88A51.08,51.08,0,0,1,357.33,48a1.52,1.52,0,0,0,.7.1s0,0,0,0l.38-2.35L358.7,48a.67.67,0,0,1-.14.53c-.2.23-.54.33-1.2.35h0a54.93,54.93,0,0,0-7,.87l-.93.16a37.33,37.33,0,0,1-8.38.71A20.39,20.39,0,0,1,331.39,47.8ZM331.34,37a6.31,6.31,0,0,0-2.58,2.22,5.18,5.18,0,0,0-.74,3.3,6.31,6.31,0,0,0,2.81,4.14A19.05,19.05,0,0,0,341.09,50a36.68,36.68,0,0,0,8.23-.7l.93-.15c1.88-.33,3.82-.65,5.78-.81-1.89-.44-3.83-.69-5.73-.94a39.48,39.48,0,0,1-9-1.92A18.79,18.79,0,0,1,332.44,39a9.81,9.81,0,0,1-1.1-2Z" transform="translate(-48.83 -23.78)"/>
        </g>
        <path d="M349.38,49.6a37.25,37.25,0,0,1-8.3.71,19.58,19.58,0,0,1-10.43-3.42,6.51,6.51,0,0,1-3-4.37,5.51,5.51,0,0,1,.79-3.52l.34-.16A9.41,9.41,0,0,0,330,41.08a18.67,18.67,0,0,0,8.72,6.39C342.15,48.78,345.78,49.09,349.38,49.6Z" transform="translate(-48.83 -23.78)" style="fill: #cfe9ed"/>
        <path d="M357.24,48.27a41.61,41.61,0,0,0-5.41-1c-3.52-.49-7.05-.83-10.4-2.1a18.55,18.55,0,0,1-8.72-6.39,9.06,9.06,0,0,1-1.18-2.24,1.77,1.77,0,0,1-.06-.17,5,5,0,0,1-.16-2.69,5.58,5.58,0,0,1,3.09-4,6,6,0,0,0-.87,2.07,5,5,0,0,0,.16,2.68,1.21,1.21,0,0,0,.05.18,9.6,9.6,0,0,0,1.18,2.24,18.63,18.63,0,0,0,8.73,6.38c3.35,1.28,6.88,1.61,10.39,2.1,1.37.19,2.72.4,4.08.7a1.69,1.69,0,0,0,.05.24l.09.6a5.28,5.28,0,0,1,.11,1.19C358.31,48.41,358,48.49,357.24,48.27Z" transform="translate(-48.83 -23.78)" style="fill: #cfe9ed"/>
        <path d="M331.19,48.11c-.33-.21-.66-.42-1-.65A7.08,7.08,0,0,1,327,42.58c-.27-3,1.19-5.3,4.23-6.71l.71-.32.25.73a8.33,8.33,0,0,0,1.1,2.06,17.69,17.69,0,0,0,8.39,6.14,38.64,38.64,0,0,0,8.76,1.86,53.29,53.29,0,0,1,7,1.25,1.48,1.48,0,0,0,.29.07l.77-4.62.58,4.94a1,1,0,0,1-.24.81,1.94,1.94,0,0,1-1.46.48,54.09,54.09,0,0,0-6.95.87A41.08,41.08,0,0,1,341,51,20.74,20.74,0,0,1,331.19,48.11Zm0-10.62a4.88,4.88,0,0,0-2.76,5,5.91,5.91,0,0,0,2.66,3.86,18.68,18.68,0,0,0,10.06,3.28,40.56,40.56,0,0,0,9.06-.85c1.12-.19,2.26-.38,3.41-.55-1.11-.18-2.23-.32-3.33-.47a39.74,39.74,0,0,1-9.08-1.94,19.17,19.17,0,0,1-9.05-6.64,10.59,10.59,0,0,1-1-1.66Z" transform="translate(-48.83 -23.78)" style="fill: #64410f"/>
        <path d="M337.17,43.83a17.55,17.55,0,0,1-5-4.67,9.92,9.92,0,0,1-1.27-2.41,5.81,5.81,0,0,1-.24-3.25,6.34,6.34,0,0,1,3.74-4.57c3.6-1.57,8.95-.47,12.16,1.37a26.55,26.55,0,0,1,5.57,4.26A24.62,24.62,0,0,1,358.27,44a14.59,14.59,0,0,1,.68,2.83l0,.31a4,4,0,0,1,.07,1.09,1.05,1.05,0,0,1-.47.74,1.9,1.9,0,0,1-1.53,0,52.37,52.37,0,0,0-6.8-1.22,39.19,39.19,0,0,1-9.08-1.93,23.67,23.67,0,0,1-4-2ZM346.64,32l-.82-.49c-2.49-1.43-7.53-2.78-10.9-1.31a5,5,0,0,0-2.93,3.6,4.44,4.44,0,0,0,.2,2.47,8.14,8.14,0,0,0,1.09,2.06,17.81,17.81,0,0,0,8.39,6.14,39.15,39.15,0,0,0,8.77,1.86,52,52,0,0,1,7,1.25h0l.22.06c0-.12,0-.25,0-.36l0-.33a13.18,13.18,0,0,0-.62-2.55,23.59,23.59,0,0,0-5.84-8.86A25.43,25.43,0,0,0,346.64,32Z" transform="translate(-48.83 -23.78)" style="fill: #64410f"/>
      </g>
      <g>
        <path d="M370.72,72.4A20.47,20.47,0,0,1,363.93,65a41.87,41.87,0,0,1-3.29-8.74,54.77,54.77,0,0,0-2.28-6.68h0c-.27-.59-.33-.95-.21-1.22a.64.64,0,0,1,.41-.36l2.24-.79-1.94,1.37,0,0s0,.18.39.58a52.81,52.81,0,0,1,4.16,5.69A39.16,39.16,0,0,0,368.94,62a18.2,18.2,0,0,0,9.39,5,9.06,9.06,0,0,0,2.44.08l.36-.05v.37c.06,3.18-1.3,5.39-3.93,6.39a6.74,6.74,0,0,1-5.5-.75Q371.22,72.7,370.72,72.4ZM359.46,50.47c.73,1.84,1.28,3.73,1.82,5.57a41.2,41.2,0,0,0,3.23,8.59A19.19,19.19,0,0,0,372,72.38a6.3,6.3,0,0,0,5,.72c2.28-.87,3.46-2.69,3.5-5.4a9.39,9.39,0,0,1-2.25-.12,18.86,18.86,0,0,1-9.74-5.12,39.73,39.73,0,0,1-5.66-7.25c-1.06-1.6-2.14-3.23-3.37-4.74Z" transform="translate(-48.83 -23.78)"/>
        <g>
          <path d="M359,49.36c3.57,4.06,5.78,9.12,9.74,12.85a18.64,18.64,0,0,0,9.57,5,9.31,9.31,0,0,0,2.53.08,5.09,5.09,0,0,0,2.66-1.06c5.33-4.31-.13-11.9-4.05-14.56a26.34,26.34,0,0,0-6.09-3.06,24.39,24.39,0,0,0-10.84-1.4,14.61,14.61,0,0,0-2.7.59,5.63,5.63,0,0,0-1.12.43C358.38,48.47,358.43,48.75,359,49.36Z" transform="translate(-48.83 -23.78)" style="fill: #fff"/>
          <path d="M372,65.14a22.53,22.53,0,0,1-3.47-2.69,39.73,39.73,0,0,1-5.66-7.25,52.42,52.42,0,0,0-4.1-5.62c-.43-.48-.59-.8-.55-1.1a.66.66,0,0,1,.3-.49,3.56,3.56,0,0,1,.9-.37l.3-.1a14.58,14.58,0,0,1,2.77-.61,24.29,24.29,0,0,1,11,1.42,26.31,26.31,0,0,1,6.18,3.1c3,2,6.24,6.23,6.41,10a5.88,5.88,0,0,1-2.34,5,5.43,5.43,0,0,1-2.83,1.14,9.58,9.58,0,0,1-2.62-.09A16.94,16.94,0,0,1,372,65.14ZM358.83,48.56s0,.19.39.58h0a52.93,52.93,0,0,1,4.16,5.7A39.51,39.51,0,0,0,368.94,62a18.19,18.19,0,0,0,9.39,5,8.67,8.67,0,0,0,2.44.08,4.72,4.72,0,0,0,2.49-1,5.28,5.28,0,0,0,2.09-4.52c-.16-3.8-3.67-7.86-6.12-9.51a25.53,25.53,0,0,0-6-3,23.86,23.86,0,0,0-10.69-1.39,13.4,13.4,0,0,0-2.64.58l-.31.1a3.39,3.39,0,0,0-.71.28l0,0Z" transform="translate(-48.83 -23.78)"/>
        </g>
        <g>
          <path d="M358.66,49.4A60.69,60.69,0,0,1,361.21,57a37.3,37.3,0,0,0,3,7.78,19.58,19.58,0,0,0,7.64,7.88,6.5,6.5,0,0,0,5.23.74,5.52,5.52,0,0,0,2.81-2.25,7,7,0,0,0,.91-3.83,9.32,9.32,0,0,1-2.53-.08,18.64,18.64,0,0,1-9.57-5c-4-3.73-6.17-8.79-9.74-12.85-.54-.62-.58-.9-.3-1.1C358.36,48.37,358.33,48.66,358.66,49.4Z" transform="translate(-48.83 -23.78)" style="fill: #fff"/>
          <path d="M370.72,72.4A20.5,20.5,0,0,1,363.93,65a38.43,38.43,0,0,1-3-7.84l-.27-.89a52,52,0,0,0-2.28-6.68c-.26-.59-.32-.95-.2-1.22a.59.59,0,0,1,.41-.36l2.24-.79-1.94,1.37,0,0a1.73,1.73,0,0,0,.4.58,51.4,51.4,0,0,1,4.15,5.69A39.22,39.22,0,0,0,368.94,62a18.16,18.16,0,0,0,9.39,5,9,9,0,0,0,2.44.08l.36-.05v.37a7.29,7.29,0,0,1-1,4,5.81,5.81,0,0,1-3,2.39,6.72,6.72,0,0,1-5.49-.76Q371.22,72.7,370.72,72.4ZM359.46,50.46c.72,1.83,1.28,3.72,1.82,5.56l.26.9a36.83,36.83,0,0,0,3,7.71A19.06,19.06,0,0,0,372,72.38c1.31.68,3.23,1.37,5,.71A5.1,5.1,0,0,0,379.62,71a6.32,6.32,0,0,0,.86-3.29,9.42,9.42,0,0,1-2.25-.12,18.94,18.94,0,0,1-9.74-5.12,39.73,39.73,0,0,1-5.66-7.25C361.77,53.61,360.69,52,359.46,50.46Z" transform="translate(-48.83 -23.78)"/>
        </g>
        <path d="M361.22,57a37.26,37.26,0,0,0,3,7.78,19.6,19.6,0,0,0,7.65,7.88,6.48,6.48,0,0,0,5.22.73,5.45,5.45,0,0,0,2.82-2.25v-.37a8.93,8.93,0,0,1-2.53-.09,18.55,18.55,0,0,1-9.57-5C365.13,63.15,363.25,60,361.22,57Z" transform="translate(-48.83 -23.78)" style="fill: #cfe9ed"/>
        <path d="M359,49.36a43,43,0,0,1,3.3,4.42c2,2.94,3.83,6,6.44,8.43a18.64,18.64,0,0,0,9.57,5,8.87,8.87,0,0,0,2.52.08l.19,0a5.05,5.05,0,0,0,2.48-1,5.64,5.64,0,0,0,2.22-4.52,6.3,6.3,0,0,1-1.48,1.69,5.05,5.05,0,0,1-2.48,1l-.18,0a8.93,8.93,0,0,1-2.53-.08,18.56,18.56,0,0,1-9.57-5C366.84,56.93,365,53.9,363,51c-.77-1.14-1.55-2.27-2.41-3.35l-.24.06c-.2.06-.39.11-.58.18a5.6,5.6,0,0,0-1.12.42C358.38,48.46,358.43,48.75,359,49.36Z" transform="translate(-48.83 -23.78)" style="fill: #cfe9ed"/>
        <path d="M370.52,72.71a20.71,20.71,0,0,1-6.91-7.58,41.28,41.28,0,0,1-3.33-8.81A53.94,53.94,0,0,0,358,49.69h0a1.94,1.94,0,0,1-.21-1.52,1,1,0,0,1,.63-.57l4.74-1.66-3.87,2.73a2.49,2.49,0,0,0,.19.23,53.56,53.56,0,0,1,4.19,5.73,38.78,38.78,0,0,0,5.5,7.07,17.91,17.91,0,0,0,9.2,4.85,8.67,8.67,0,0,0,2.33.08l.77-.1,0,.78c.07,3.35-1.38,5.68-4.17,6.75a7.09,7.09,0,0,1-5.8-.77C371.2,73.11,370.86,72.92,370.52,72.71Zm-9.89-20.08c.36,1.1.68,2.21,1,3.3a41.08,41.08,0,0,0,3.2,8.52,18.7,18.7,0,0,0,7.36,7.6,5.94,5.94,0,0,0,4.65.7,4.89,4.89,0,0,0,3.25-4.66,11.32,11.32,0,0,1-1.93-.14,19.27,19.27,0,0,1-9.93-5.23,39.26,39.26,0,0,1-5.72-7.31C361.9,54.48,361.28,53.55,360.63,52.63Z" transform="translate(-48.83 -23.78)" style="fill: #64410f"/>
        <path d="M371.76,65.46a23.33,23.33,0,0,1-3.53-2.74,40.46,40.46,0,0,1-5.72-7.31,50.71,50.71,0,0,0-4.07-5.58,1.92,1.92,0,0,1-.64-1.4,1.07,1.07,0,0,1,.46-.74,3.3,3.3,0,0,1,1-.41l.29-.1a14.7,14.7,0,0,1,2.84-.62A24.66,24.66,0,0,1,373.56,48a27.09,27.09,0,0,1,6.25,3.13c3.07,2.08,6.41,6.41,6.57,10.34a6.34,6.34,0,0,1-2.47,5.36,5.86,5.86,0,0,1-3,1.21,9.61,9.61,0,0,1-2.73-.09A17.22,17.22,0,0,1,371.76,65.46ZM359.35,48.72a1.77,1.77,0,0,0,.15.18h0a53.56,53.56,0,0,1,4.19,5.73,38.42,38.42,0,0,0,5.51,7.06,17.78,17.78,0,0,0,9.19,4.86,8.34,8.34,0,0,0,2.34.07,4.43,4.43,0,0,0,2.3-.9,4.94,4.94,0,0,0,2-4.21c-.15-3.68-3.57-7.61-6-9.22a25.17,25.17,0,0,0-5.93-3,23.55,23.55,0,0,0-10.52-1.37,12.71,12.71,0,0,0-2.57.57l-.31.1Z" transform="translate(-48.83 -23.78)" style="fill: #64410f"/>
      </g>
    </g>
  </g>
</svg>
