<svg id="Layer_1" data-name="Layer 1" xmlns="http://www.w3.org/2000/svg" width="442.83" height="512" viewBox="0 0 442.83 512">
  <g id="Group_60" data-name="Group 60">
    <g id="Polygon_8" data-name="Polygon 8">
      <path d="M477.42,127.51l-.57,256L255.43,512,34.58,384.49l.57-256L256.57,0Z" transform="translate(-34.58)" style="fill: #fff"/>
    </g>
    <g id="CALL_NOW" data-name="CALL NOW" style="isolation: isolate">
      <g style="isolation: isolate">
        <path d="M111.61,134.82a19.64,19.64,0,0,1,7.37-7.49,20.3,20.3,0,0,1,10.36-2.7A21,21,0,0,1,141,127.86a18.53,18.53,0,0,1,7.29,9.16h-6.4a12.81,12.81,0,0,0-4.91-5.69,14.08,14.08,0,0,0-7.66-2,14.82,14.82,0,0,0-7.69,2,13.9,13.9,0,0,0-5.34,5.66,19.9,19.9,0,0,0,0,17.14,13.93,13.93,0,0,0,5.34,5.67,14.91,14.91,0,0,0,7.69,2,14.33,14.33,0,0,0,7.66-2,12.65,12.65,0,0,0,4.91-5.67h6.4a18.39,18.39,0,0,1-7.29,9.07,21.09,21.09,0,0,1-11.68,3.2A20.47,20.47,0,0,1,119,163.76a19.48,19.48,0,0,1-7.37-7.43,22.77,22.77,0,0,1,0-21.51Z" transform="translate(-34.58)" style="fill: #e6a900"/>
        <path d="M180.42,157H162.57l-3.29,9.1h-5.64l14.8-40.68h6.17l14.73,40.68H183.7Zm-1.53-4.34L171.49,132l-7.39,20.67Z" transform="translate(-34.58)" style="fill: #e6a900"/>
        <path d="M201.14,161.74h14.33v4.34H195.8V125.16h5.34Z" transform="translate(-34.58)" style="fill: #e6a900"/>
        <path d="M226.5,161.74h14.33v4.34H221.16V125.16h5.34Z" transform="translate(-34.58)" style="fill: #e6a900"/>
        <path d="M294.37,166.08H289L267.54,133.5v32.58h-5.35v-41h5.35L289,157.63V125.1h5.34Z" transform="translate(-34.58)" style="fill: #e6a900"/>
        <path d="M311.63,163.82a19.57,19.57,0,0,1-7.43-7.46,22.61,22.61,0,0,1,0-21.54,19.57,19.57,0,0,1,7.43-7.46,21.67,21.67,0,0,1,20.84,0,19.33,19.33,0,0,1,7.39,7.43,22.88,22.88,0,0,1,0,21.6,19.33,19.33,0,0,1-7.39,7.43,21.67,21.67,0,0,1-20.84,0Zm18.11-4a14,14,0,0,0,5.4-5.7,19.69,19.69,0,0,0,0-17.17,14.1,14.1,0,0,0-5.37-5.66,16,16,0,0,0-15.5,0A14.1,14.1,0,0,0,308.9,137a19.69,19.69,0,0,0,0,17.17,14,14,0,0,0,5.4,5.7,16,16,0,0,0,15.44,0Z" transform="translate(-34.58)" style="fill: #e6a900"/>
        <path d="M401,125.16l-11.86,40.92h-6l-9.51-32.93-9.86,32.93-5.93.06-11.45-41h5.69l8.93,34.7,9.86-34.7h6l9.39,34.58,9-34.58Z" transform="translate(-34.58)" style="fill: #e6a900"/>
      </g>
    </g>
    <g id="TO_TALK_TO_A_HUMAN" data-name="TO TALK TO A HUMAN" style="isolation: isolate">
      <g style="isolation: isolate">
        <path d="M172,349.65v2.71h-7v22.87h-3.34V352.36h-7v-2.71Z" transform="translate(-34.58)" style="fill: #e6a900"/>
        <path d="M181.24,373.81a12.22,12.22,0,0,1-4.64-4.66,14.17,14.17,0,0,1,0-13.46,12.22,12.22,0,0,1,4.64-4.66,13.54,13.54,0,0,1,13,0,12.18,12.18,0,0,1,4.62,4.64,14.33,14.33,0,0,1,0,13.5,12.18,12.18,0,0,1-4.62,4.64,13.54,13.54,0,0,1-13,0Zm11.32-2.47a8.8,8.8,0,0,0,3.38-3.56,12.34,12.34,0,0,0,0-10.74,9,9,0,0,0-3.36-3.54,10.09,10.09,0,0,0-9.69,0,9,9,0,0,0-3.35,3.54,12.34,12.34,0,0,0,0,10.74,8.78,8.78,0,0,0,3.37,3.56,10,10,0,0,0,9.65,0Z" transform="translate(-34.58)" style="fill: #e6a900"/>
        <path d="M230.52,349.65v2.71h-7v22.87h-3.34V352.36h-7v-2.71Z" transform="translate(-34.58)" style="fill: #e6a900"/>
        <path d="M249.75,369.54H238.59l-2.05,5.69H233l9.24-25.43h3.85l9.22,25.43H251.8Zm-1-2.72-4.62-12.91-4.62,12.91Z" transform="translate(-34.58)" style="fill: #e6a900"/>
        <path d="M262.7,372.51h8.95v2.72H259.36V349.65h3.34Z" transform="translate(-34.58)" style="fill: #e6a900"/>
        <path d="M289.08,375.23l-10.53-11.67v11.67h-3.34V349.65h3.34V361.5l10.57-11.85h4.22l-11.6,12.81,11.71,12.77Z" transform="translate(-34.58)" style="fill: #e6a900"/>
        <path d="M322.73,349.65v2.71h-7v22.87h-3.34V352.36h-7v-2.71Z" transform="translate(-34.58)" style="fill: #e6a900"/>
        <path d="M331.94,373.81a12.17,12.17,0,0,1-4.65-4.66,14.17,14.17,0,0,1,0-13.46,12.17,12.17,0,0,1,4.65-4.66,13.52,13.52,0,0,1,13,0,12.14,12.14,0,0,1,4.63,4.64,14.4,14.4,0,0,1,0,13.5,12.14,12.14,0,0,1-4.63,4.64,13.52,13.52,0,0,1-13,0Zm11.32-2.47a8.78,8.78,0,0,0,3.37-3.56,12.34,12.34,0,0,0,0-10.74,9,9,0,0,0-3.35-3.54,10.09,10.09,0,0,0-9.69,0,9,9,0,0,0-3.36,3.54,12.34,12.34,0,0,0,0,10.74,8.8,8.8,0,0,0,3.38,3.56,10,10,0,0,0,9.65,0Z" transform="translate(-34.58)" style="fill: #e6a900"/>
      </g>
      <g style="isolation: isolate">
        <path d="M192.6,409.9H181.45l-2.06,5.69h-3.52l9.25-25.43H189l9.21,25.43h-3.53Zm-1-2.72L187,394.27l-4.62,12.91Z" transform="translate(-34.58)" style="fill: #e6a900"/>
        <path d="M231.72,390v25.58h-3.34V404h-13v11.6H212V390h3.34v11.23h13V390Z" transform="translate(-34.58)" style="fill: #e6a900"/>
        <path d="M240.67,390V406.2a6.83,6.83,0,0,0,1.67,5.06,7.29,7.29,0,0,0,9.24,0,6.83,6.83,0,0,0,1.67-5.06V390h3.34v16.15a10.39,10.39,0,0,1-1.29,5.37,8,8,0,0,1-3.46,3.25,11.75,11.75,0,0,1-9.8,0,8,8,0,0,1-3.45-3.25,10.59,10.59,0,0,1-1.26-5.37V390Z" transform="translate(-34.58)" style="fill: #e6a900"/>
        <path d="M288.11,390.2v25.39h-3.34V396.65l-8.44,18.94H274l-8.47-19v19h-3.34V390.2h3.59l9.4,21,9.39-21Z" transform="translate(-34.58)" style="fill: #e6a900"/>
        <path d="M308.88,409.9H297.72l-2.05,5.69h-3.53l9.25-25.43h3.85l9.21,25.43h-3.52Zm-1-2.72-4.62-12.91-4.62,12.91Z" transform="translate(-34.58)" style="fill: #e6a900"/>
        <path d="M338.6,415.59h-3.34l-13.43-20.37v20.37h-3.34V390h3.34l13.43,20.33V390h3.34Z" transform="translate(-34.58)" style="fill: #e6a900"/>
      </g>
    </g>
    <g id="Group_56" data-name="Group 56">
      <g id="Ellipse_1" data-name="Ellipse 1">
        <circle cx="221.64" cy="252.31" r="71.55" style="fill: #e6a900"/>
      </g>
      <g id="icon-phone">
        <g id="_067-phone" data-name=" 067-phone">
          <path d="M268.34,260.15c-5.23,3.63-6.1,8.1-10.46,7.26s-7.84-6.17-11.33-11.49-7-10.64-6.1-15.13,5.22-3.63,10.45-7.25-5.24-19.6-9.59-20.44S225.62,224,225.62,224c-1.74,9,3.69,28.84,10.47,39.2s22.67,23,31.39,24.67c0,0,14.81-6.41,15.68-10.88S273.57,256.52,268.34,260.15Z" transform="translate(-34.58)" style="fill: #fff"/>
        </g>
      </g>
    </g>
  </g>
</svg>
