<svg id="Layer_1" data-name="Layer 1" xmlns="http://www.w3.org/2000/svg" width="442.83" height="512" viewBox="0 0 442.83 512">
  <g id="Group_58" data-name="Group 58">
    <g id="Polygon_5" data-name="Polygon 5">
      <path d="M477.42,127.51l-.57,256L255.43,512,34.58,384.49l.57-256L256.57,0Z" transform="translate(-34.58)" style="fill: #fff"/>
    </g>
    <g id="Group_53" data-name="Group 53">
      <g id="DEPOSITS" style="isolation: isolate">
        <g style="isolation: isolate">
          <path d="M146.13,129a17.57,17.57,0,0,1,7.52,7.13,24.09,24.09,0,0,1,0,21.81,17.26,17.26,0,0,1-7.52,7,25.82,25.82,0,0,1-11.59,2.44H121.8V126.49h12.74A25.17,25.17,0,0,1,146.13,129Zm.5,29.82q4.17-4.2,4.17-11.77t-4.2-11.92q-4.2-4.29-12.06-4.29h-7.4V163h7.4Q142.46,163,146.63,158.81Z" transform="translate(-34.58)" style="fill: #e6a900"/>
          <path d="M168.65,130.83v13.68h14.91v4.41H168.65V163h16.67v4.41h-22v-41h22v4.4Z" transform="translate(-34.58)" style="fill: #e6a900"/>
          <path d="M217.28,147c-2.32,2.25-5.88,3.37-10.65,3.37h-7.87v17.09h-5.34V126.49h13.21q6.93,0,10.54,3.34a12.08,12.08,0,0,1,.11,17.12Zm-4.08-3a7.1,7.1,0,0,0,2.12-5.51q0-7.58-8.69-7.58h-7.87v15h7.87C209.6,145.92,211.8,145.27,213.2,144Z" transform="translate(-34.58)" style="fill: #e6a900"/>
          <path d="M235.57,165.15a19.55,19.55,0,0,1-7.42-7.46,22.54,22.54,0,0,1,0-21.54,19.55,19.55,0,0,1,7.42-7.46,21.67,21.67,0,0,1,20.84,0,19.42,19.42,0,0,1,7.4,7.43,23,23,0,0,1,0,21.6,19.42,19.42,0,0,1-7.4,7.43,21.67,21.67,0,0,1-20.84,0Zm18.11-4a14,14,0,0,0,5.4-5.69,19.69,19.69,0,0,0,0-17.17,14.13,14.13,0,0,0-5.37-5.67,16.09,16.09,0,0,0-15.5,0,14.13,14.13,0,0,0-5.37,5.67,19.69,19.69,0,0,0,0,17.17,14,14,0,0,0,5.4,5.69,15.9,15.9,0,0,0,15.44,0Z" transform="translate(-34.58)" style="fill: #e6a900"/>
          <path d="M279.28,166.38a12.11,12.11,0,0,1-5-4,10.26,10.26,0,0,1-1.88-5.9h5.7a7.44,7.44,0,0,0,2.37,4.84,8.55,8.55,0,0,0,6.08,2,8.91,8.91,0,0,0,6-1.91,6.17,6.17,0,0,0,2.2-4.9,5.57,5.57,0,0,0-1.29-3.82,8.36,8.36,0,0,0-3.23-2.23A48.78,48.78,0,0,0,285,148.8a45.62,45.62,0,0,1-6.48-2.12,10.38,10.38,0,0,1-4.17-3.31,9.72,9.72,0,0,1-1.73-6.08,10.49,10.49,0,0,1,1.7-5.93,11.09,11.09,0,0,1,4.78-4,16.85,16.85,0,0,1,7.08-1.41,14.82,14.82,0,0,1,9.42,2.88,10.6,10.6,0,0,1,4.14,7.63h-5.87a6.36,6.36,0,0,0-2.47-4.14,8.77,8.77,0,0,0-5.75-1.79,8.36,8.36,0,0,0-5.46,1.73,5.91,5.91,0,0,0-2.11,4.85,5.27,5.27,0,0,0,1.26,3.64,8.25,8.25,0,0,0,3.11,2.14,53.3,53.3,0,0,0,5.19,1.67,48.3,48.3,0,0,1,6.52,2.2,10.84,10.84,0,0,1,4.23,3.35,9.75,9.75,0,0,1,1.76,6.13,10.75,10.75,0,0,1-1.59,5.64,11.66,11.66,0,0,1-4.69,4.29,15.59,15.59,0,0,1-7.34,1.64A17.47,17.47,0,0,1,279.28,166.38Z" transform="translate(-34.58)" style="fill: #e6a900"/>
          <path d="M313.36,126.49v40.92H308V126.49Z" transform="translate(-34.58)" style="fill: #e6a900"/>
          <path d="M347.64,126.49v4.34H336.49v36.58h-5.34V130.83H319.93v-4.34Z" transform="translate(-34.58)" style="fill: #e6a900"/>
          <path d="M359.94,166.38a12.11,12.11,0,0,1-5-4,10.26,10.26,0,0,1-1.88-5.9h5.7a7.46,7.46,0,0,0,2.38,4.84,8.53,8.53,0,0,0,6.07,2,8.89,8.89,0,0,0,6-1.91,6.17,6.17,0,0,0,2.2-4.9,5.57,5.57,0,0,0-1.29-3.82,8.36,8.36,0,0,0-3.23-2.23,48.49,48.49,0,0,0-5.22-1.64,45.81,45.81,0,0,1-6.49-2.12,10.38,10.38,0,0,1-4.17-3.31,9.78,9.78,0,0,1-1.73-6.08,10.49,10.49,0,0,1,1.7-5.93,11.06,11.06,0,0,1,4.79-4,16.8,16.8,0,0,1,7.07-1.41,14.78,14.78,0,0,1,9.42,2.88,10.6,10.6,0,0,1,4.14,7.63h-5.87a6.38,6.38,0,0,0-2.46-4.14,8.8,8.8,0,0,0-5.76-1.79,8.36,8.36,0,0,0-5.46,1.73,5.91,5.91,0,0,0-2.11,4.85,5.27,5.27,0,0,0,1.26,3.64,8.25,8.25,0,0,0,3.11,2.14,54.59,54.59,0,0,0,5.2,1.67,48.59,48.59,0,0,1,6.51,2.2,10.84,10.84,0,0,1,4.23,3.35,9.75,9.75,0,0,1,1.76,6.13,10.83,10.83,0,0,1-1.58,5.64,11.76,11.76,0,0,1-4.7,4.29,15.56,15.56,0,0,1-7.34,1.64A17.47,17.47,0,0,1,359.94,166.38Z" transform="translate(-34.58)" style="fill: #e6a900"/>
        </g>
      </g>
      <g id="FROM_JUST" data-name="FROM JUST" style="isolation: isolate">
        <g style="isolation: isolate">
          <path d="M168.93,196.87v2.72H157.82v8.62h9v2.72h-9v11.52h-3.34V196.87Z" transform="translate(-34.58)" style="fill: #e6a900"/>
          <path d="M186.44,222.45,180.34,212h-4v10.46H173V196.87h8.26a10.93,10.93,0,0,1,4.89,1,6.83,6.83,0,0,1,3,2.68,7.39,7.39,0,0,1,1,3.85,7.49,7.49,0,0,1-1.53,4.66,7.38,7.38,0,0,1-4.57,2.68l6.43,10.72Zm-10.13-13.14h4.92A5.55,5.55,0,0,0,185.3,208a4.82,4.82,0,0,0,1.36-3.58,4.59,4.59,0,0,0-1.34-3.52,5.85,5.85,0,0,0-4.09-1.25h-4.92Z" transform="translate(-34.58)" style="fill: #e6a900"/>
          <path d="M200.38,221a12.08,12.08,0,0,1-4.64-4.66,14.1,14.1,0,0,1,0-13.46,12.08,12.08,0,0,1,4.64-4.66,13.52,13.52,0,0,1,13,0,12.14,12.14,0,0,1,4.63,4.64,14.33,14.33,0,0,1,0,13.5A12.14,12.14,0,0,1,213.4,221a13.52,13.52,0,0,1-13,0Zm11.32-2.47a8.78,8.78,0,0,0,3.37-3.56,12.32,12.32,0,0,0,0-10.73,8.87,8.87,0,0,0-3.35-3.54,10,10,0,0,0-9.69,0,8.83,8.83,0,0,0-3.36,3.54,12.32,12.32,0,0,0,0,10.73,8.8,8.8,0,0,0,3.38,3.56,9.94,9.94,0,0,0,9.65,0Z" transform="translate(-34.58)" style="fill: #e6a900"/>
          <path d="M250.06,197.06v25.39h-3.34V203.51l-8.44,18.94h-2.34l-8.48-19v19h-3.34V197.06h3.6l9.39,21,9.39-21Z" transform="translate(-34.58)" style="fill: #e6a900"/>
          <path d="M278.39,196.87v18.9a6.7,6.7,0,0,1-1.95,5,7.12,7.12,0,0,1-12.25-5.3h3.33a4.92,4.92,0,0,0,1,3.05,4,4,0,0,0,5.59.05,4.33,4.33,0,0,0,.92-2.84v-18.9Z" transform="translate(-34.58)" style="fill: #e6a900"/>
          <path d="M288.22,196.87v16.18a6.88,6.88,0,0,0,1.67,5.07,6.31,6.31,0,0,0,4.64,1.65,6.24,6.24,0,0,0,4.6-1.65,6.84,6.84,0,0,0,1.67-5.07V196.87h3.34V213a10.39,10.39,0,0,1-1.28,5.37,8,8,0,0,1-3.47,3.25,11.83,11.83,0,0,1-9.79,0,7.89,7.89,0,0,1-3.45-3.25,10.49,10.49,0,0,1-1.27-5.37V196.87Z" transform="translate(-34.58)" style="fill: #e6a900"/>
          <path d="M313.3,221.81a7.57,7.57,0,0,1-3.14-2.5,6.35,6.35,0,0,1-1.17-3.69h3.56a4.67,4.67,0,0,0,1.48,3,5.35,5.35,0,0,0,3.8,1.23,5.53,5.53,0,0,0,3.76-1.2,3.85,3.85,0,0,0,1.38-3.06,3.45,3.45,0,0,0-.81-2.38,5.1,5.1,0,0,0-2-1.4,29.73,29.73,0,0,0-3.26-1,30.22,30.22,0,0,1-4.06-1.33,6.54,6.54,0,0,1-2.6-2.07,6.11,6.11,0,0,1-1.09-3.8,6.56,6.56,0,0,1,1.07-3.7,6.91,6.91,0,0,1,3-2.5,10.47,10.47,0,0,1,4.42-.88,9.25,9.25,0,0,1,5.89,1.8,6.66,6.66,0,0,1,2.59,4.77h-3.67a4,4,0,0,0-1.54-2.59,5.53,5.53,0,0,0-3.6-1.12,5.22,5.22,0,0,0-3.41,1.08,3.72,3.72,0,0,0-1.32,3,3.32,3.32,0,0,0,.78,2.28,5.16,5.16,0,0,0,1.95,1.34c.77.3,1.85.65,3.25,1a32.09,32.09,0,0,1,4.07,1.38,6.73,6.73,0,0,1,2.64,2.09,6,6,0,0,1,1.1,3.83,6.75,6.75,0,0,1-1,3.53,7.35,7.35,0,0,1-2.93,2.68,9.77,9.77,0,0,1-4.59,1A11.06,11.06,0,0,1,313.3,221.81Z" transform="translate(-34.58)" style="fill: #e6a900"/>
          <path d="M347,196.87v2.72h-7v22.86h-3.34V199.59h-7v-2.72Z" transform="translate(-34.58)" style="fill: #e6a900"/>
        </g>
      </g>
      <g id="Group_52" data-name="Group 52">
        <g id="pp" style="isolation: isolate">
          <g style="isolation: isolate">
            <path d="M390.09,346.08a10.51,10.51,0,0,1,5.48-1.39,11.27,11.27,0,0,1,5.83,1.54,10.91,10.91,0,0,1,4.12,4.34,13.52,13.52,0,0,1,1.5,6.49,13.84,13.84,0,0,1-1.5,6.52,11,11,0,0,1-9.95,6,10.55,10.55,0,0,1-5.44-1.38,10,10,0,0,1-3.59-3.46v15.89h-4V345.09h4v4.44A9.43,9.43,0,0,1,390.09,346.08Zm11.73,6.23a7.63,7.63,0,0,0-3-3.09,8.28,8.28,0,0,0-4.12-1.05,8,8,0,0,0-4.07,1.08,7.91,7.91,0,0,0-3,3.12,10.65,10.65,0,0,0,0,9.51,7.88,7.88,0,0,0,3,3.13,8,8,0,0,0,4.07,1.08,8.1,8.1,0,0,0,4.12-1.08,7.68,7.68,0,0,0,3-3.13,10.06,10.06,0,0,0,1.1-4.82A9.83,9.83,0,0,0,401.82,352.31Z" transform="translate(-34.58)" style="fill: #e6a900"/>
            <path d="M419.85,346.08a10.56,10.56,0,0,1,5.48-1.39,11.3,11.3,0,0,1,5.84,1.54,11,11,0,0,1,4.11,4.34,13.52,13.52,0,0,1,1.5,6.49,13.84,13.84,0,0,1-1.5,6.52,10.94,10.94,0,0,1-9.95,6,10.58,10.58,0,0,1-5.44-1.38,9.93,9.93,0,0,1-3.58-3.46v15.89h-4V345.09h4v4.44A9.47,9.47,0,0,1,419.85,346.08Zm11.73,6.23a7.63,7.63,0,0,0-3-3.09,8.27,8.27,0,0,0-4.11-1.05,8,8,0,0,0-4.08,1.08,7.89,7.89,0,0,0-3,3.12,10.65,10.65,0,0,0,0,9.51,7.85,7.85,0,0,0,3,3.13,8.3,8.3,0,0,0,8.19,0,7.68,7.68,0,0,0,3-3.13,9.94,9.94,0,0,0,1.1-4.82A9.72,9.72,0,0,0,431.58,352.31Z" transform="translate(-34.58)" style="fill: #e6a900"/>
          </g>
        </g>
        <g id="_30" data-name=" 30" style="isolation: isolate">
          <g style="isolation: isolate">
            <path d="M162.19,355.57V377.2H79.85L76,363.64a45.2,45.2,0,0,0,11.14-14.37q3.54-7.59,3.55-18.73v-.32H73.07V311.65H86.15a75.23,75.23,0,0,1-3.07-20.18A35.79,35.79,0,0,1,88,272.42a31.56,31.56,0,0,1,13.8-12.27,47,47,0,0,1,20.34-4.2q18.73,0,28.74,10.18t10.65,26.47H136.2q-.33-6.45-3.56-10.25t-9.84-3.79q-6.47,0-10,3.95t-3.55,11.7a34,34,0,0,0,.88,7.59q.88,3.88,2.67,9.85H142v18.57H116.82v.48a36.7,36.7,0,0,1-2.58,13.08,30.43,30.43,0,0,1-8.07,11.79Z" transform="translate(-34.58)" style="fill: #e6a900"/>
            <path d="M193.83,265.32Q204.5,256,222.73,256q12.11,0,20.75,4.2A29.75,29.75,0,0,1,261,287.92q0,10.65-5.32,17.36a27,27,0,0,1-12.43,9.12V315a29.25,29.25,0,0,1,14.53,10.17q5.33,7.11,5.32,18.25a33.67,33.67,0,0,1-4.6,17.68,31.37,31.37,0,0,1-13.4,12q-8.81,4.36-20.9,4.36-19.38,0-30.92-9.52t-12.19-28.74h26.8q.15,7.11,4,11.22c2.59,2.74,6.35,4.12,11.31,4.12,4.19,0,7.45-1.22,9.76-3.63a13.33,13.33,0,0,0,3.47-9.61c0-5.17-1.64-8.9-4.92-11.22s-8.53-3.47-15.74-3.47h-5.17V304.23h5.17q8.24,0,13.32-2.83t5.09-10.09q0-5.81-3.23-9T222.09,279c-4.1,0-7.13,1.24-9.13,3.71a16.74,16.74,0,0,0-3.47,9.21h-27Q183.18,274.68,193.83,265.32Z" transform="translate(-34.58)" style="fill: #e6a900"/>
            <path d="M290,272.26q10.74-16,34.63-16t34.63,16Q370,288.25,370,316q0,28.1-10.74,44.08t-34.63,16q-23.89,0-34.63-16T279.24,316Q279.24,288.25,290,272.26Zm49.32,18.65q-3.54-8.81-14.69-8.8t-14.69,8.8q-3.56,8.79-3.55,25.1a105.76,105.76,0,0,0,1.29,18.17,23.19,23.19,0,0,0,5.25,11.62c2.63,3,6.54,4.44,11.7,4.44s9.07-1.48,11.71-4.44a23.27,23.27,0,0,0,5.24-11.62,105.63,105.63,0,0,0,1.3-18.17Q342.85,299.71,339.29,290.91Z" transform="translate(-34.58)" style="fill: #e6a900"/>
          </g>
        </g>
      </g>
    </g>
  </g>
</svg>
