<svg id="Layer_1" data-name="Layer 1" xmlns="http://www.w3.org/2000/svg" width="361.29" height="417.72" viewBox="0 0 361.29 417.72">
  <g id="Group_68" data-name="Group 68">
    <g id="Group_67" data-name="Group 67">
      <g id="Polygon_8" data-name="Polygon 8">
        <path d="M402.15,104l-.47,208.86L221,417.72l-180.18-104,.47-208.86L222,0Z" transform="translate(-40.86)" style="fill: #fff"/>
      </g>
      <g id="ENQUIRE_NOW" data-name="ENQUIRE NOW" style="isolation: isolate">
        <g style="isolation: isolate">
          <path d="M85.2,109.39v9.76H95.85v3.15H85.2v10H97.1v3.15H81.39V106.24H97.1v3.15Z" transform="translate(-40.86)" style="fill: #e6a900"/>
          <path d="M125.85,135.5H122L106.7,112.24V135.5h-3.81V106.24h3.81L122,129.46V106.24h3.81Z" transform="translate(-40.86)" style="fill: #e6a900"/>
          <path d="M155.78,141,150,135.2a16.43,16.43,0,0,1-4.36.59,14.67,14.67,0,0,1-7.42-1.91,14,14,0,0,1-5.3-5.32,16.14,16.14,0,0,1,0-15.38,14,14,0,0,1,5.3-5.32,15.45,15.45,0,0,1,14.88,0,13.79,13.79,0,0,1,5.28,5.3,16.37,16.37,0,0,1,.09,15.25,13.65,13.65,0,0,1-5.08,5.28l7.38,7.34Zm-19.56-14a10.08,10.08,0,0,0,3.86,4.06,11.33,11.33,0,0,0,11,0A10,10,0,0,0,155,127a14.12,14.12,0,0,0,0-12.26,10.11,10.11,0,0,0-3.84-4,11.41,11.41,0,0,0-11.06,0,10.11,10.11,0,0,0-3.84,4,14.12,14.12,0,0,0,0,12.26Z" transform="translate(-40.86)" style="fill: #e6a900"/>
          <path d="M169.1,106.29v18.48c0,2.6.64,4.52,1.91,5.78a8.32,8.32,0,0,0,10.56,0c1.27-1.26,1.91-3.18,1.91-5.78V106.29h3.81v18.44a12,12,0,0,1-1.46,6.14,9.22,9.22,0,0,1-4,3.71,13.54,13.54,0,0,1-11.19,0,9.07,9.07,0,0,1-3.93-3.71,12,12,0,0,1-1.45-6.14V106.29Z" transform="translate(-40.86)" style="fill: #e6a900"/>
          <path d="M197.48,106.29V135.5h-3.82V106.29Z" transform="translate(-40.86)" style="fill: #e6a900"/>
          <path d="M219.35,135.5l-7-12h-4.61v12H204V106.29h9.43a12.48,12.48,0,0,1,5.6,1.13,7.8,7.8,0,0,1,3.41,3.06,8.46,8.46,0,0,1,1.13,4.4,8.6,8.6,0,0,1-1.74,5.32,8.48,8.48,0,0,1-5.21,3.06l7.33,12.24Zm-11.57-15h5.62a6.36,6.36,0,0,0,4.65-1.53,5.45,5.45,0,0,0,1.55-4.08,5.25,5.25,0,0,0-1.53-4,6.64,6.64,0,0,0-4.67-1.42h-5.62Z" transform="translate(-40.86)" style="fill: #e6a900"/>
          <path d="M233.27,109.39v9.76h10.64v3.15H233.27v10h11.9v3.15H229.45V106.24h15.72v3.15Z" transform="translate(-40.86)" style="fill: #e6a900"/>
          <path d="M285.11,135.5h-3.82L266,112.24V135.5h-3.81V106.24H266l15.34,23.22V106.24h3.82Z" transform="translate(-40.86)" style="fill: #e6a900"/>
          <path d="M297.43,133.88a13.82,13.82,0,0,1-5.3-5.32,16.14,16.14,0,0,1,0-15.38,13.82,13.82,0,0,1,5.3-5.32,14.72,14.72,0,0,1,7.42-1.91,14.87,14.87,0,0,1,7.46,1.91,13.93,13.93,0,0,1,5.28,5.3,16.44,16.44,0,0,1,0,15.42,13.86,13.86,0,0,1-5.28,5.3,14.77,14.77,0,0,1-7.46,1.91A14.62,14.62,0,0,1,297.43,133.88Zm12.93-2.83a10,10,0,0,0,3.85-4.06,14,14,0,0,0,0-12.26,10,10,0,0,0-3.83-4,11.43,11.43,0,0,0-11.07,0,10,10,0,0,0-3.83,4,14.12,14.12,0,0,0,0,12.26,10,10,0,0,0,3.85,4.06,11.35,11.35,0,0,0,11,0Z" transform="translate(-40.86)" style="fill: #e6a900"/>
          <path d="M361.26,106.29l-8.47,29.21h-4.27L341.73,112l-7,23.51-4.24,0-8.17-29.25h4.07l6.37,24.76,7-24.76H344L350.74,131l6.41-24.68Z" transform="translate(-40.86)" style="fill: #e6a900"/>
        </g>
      </g>
      <g id="SCHEDULE_A_CALL-BACK" data-name="SCHEDULE A CALL-BACK" style="isolation: isolate">
        <g style="isolation: isolate">
          <path d="M141.12,305.61a6.16,6.16,0,0,1-2.56-2,5.21,5.21,0,0,1-1-3h2.9a3.83,3.83,0,0,0,1.22,2.47,4.32,4.32,0,0,0,3.09,1,4.52,4.52,0,0,0,3.07-1,3.16,3.16,0,0,0,1.13-2.5,2.82,2.82,0,0,0-.66-1.94,4.22,4.22,0,0,0-1.65-1.14,26.28,26.28,0,0,0-2.66-.84,23.42,23.42,0,0,1-3.31-1.08,5.33,5.33,0,0,1-2.13-1.69,5,5,0,0,1-.88-3.1,5.37,5.37,0,0,1,.87-3,5.65,5.65,0,0,1,2.44-2,8.73,8.73,0,0,1,3.6-.71,7.55,7.55,0,0,1,4.81,1.46,5.42,5.42,0,0,1,2.11,3.89h-3a3.25,3.25,0,0,0-1.26-2.11,4.46,4.46,0,0,0-2.93-.91,4.26,4.26,0,0,0-2.79.88,3,3,0,0,0-1.08,2.47,2.69,2.69,0,0,0,.65,1.86,4.19,4.19,0,0,0,1.58,1.09c.63.25,1.52.54,2.65.86a23.65,23.65,0,0,1,3.33,1.12,5.67,5.67,0,0,1,2.15,1.7,5,5,0,0,1,.9,3.13,5.51,5.51,0,0,1-.81,2.88,6,6,0,0,1-2.39,2.18,7.92,7.92,0,0,1-3.75.84A8.87,8.87,0,0,1,141.12,305.61Z" transform="translate(-40.86)" style="fill: #e6a900"/>
          <path d="M156.13,290.19a10,10,0,0,1,3.76-3.82,10.39,10.39,0,0,1,5.28-1.37,10.71,10.71,0,0,1,6,1.64,9.51,9.51,0,0,1,3.71,4.67h-3.26a6.59,6.59,0,0,0-2.5-2.9,7.23,7.23,0,0,0-3.91-1,7.59,7.59,0,0,0-3.92,1,7.12,7.12,0,0,0-2.73,2.89,10.23,10.23,0,0,0,0,8.74,7.12,7.12,0,0,0,2.73,2.89,7.58,7.58,0,0,0,3.92,1,7.31,7.31,0,0,0,3.91-1,6.51,6.51,0,0,0,2.5-2.89h3.26a9.41,9.41,0,0,1-3.71,4.63,10.78,10.78,0,0,1-6,1.63,10.38,10.38,0,0,1-5.28-1.36,9.92,9.92,0,0,1-3.76-3.79,11.59,11.59,0,0,1,0-11Z" transform="translate(-40.86)" style="fill: #e6a900"/>
          <path d="M195,285.26v20.87h-2.73v-9.46H181.6v9.46h-2.72V285.26h2.72v9.16h10.63v-9.16Z" transform="translate(-40.86)" style="fill: #e6a900"/>
          <path d="M202.32,287.48v7h7.6v2.24h-7.6v7.18h8.5v2.25H199.6V285.24h11.22v2.24Z" transform="translate(-40.86)" style="fill: #e6a900"/>
          <path d="M227.36,286.54a9,9,0,0,1,3.83,3.63,11.17,11.17,0,0,1,1.33,5.57,11,11,0,0,1-1.33,5.55,8.78,8.78,0,0,1-3.83,3.6,13.13,13.13,0,0,1-5.91,1.24H215V285.26h6.5A12.87,12.87,0,0,1,227.36,286.54Zm.25,15.2a8.11,8.11,0,0,0,2.13-6,7.53,7.53,0,0,0-8.29-8.26h-3.77v16.4h3.77A8.28,8.28,0,0,0,227.61,301.74Z" transform="translate(-40.86)" style="fill: #e6a900"/>
          <path d="M238.78,285.26v13.21a5.59,5.59,0,0,0,1.36,4.13,6,6,0,0,0,7.55,0,5.63,5.63,0,0,0,1.36-4.13V285.26h2.72v13.18a8.51,8.51,0,0,1-1.05,4.38,6.54,6.54,0,0,1-2.82,2.65,9.63,9.63,0,0,1-8,0,6.47,6.47,0,0,1-2.81-2.65,8.6,8.6,0,0,1-1-4.38V285.26Z" transform="translate(-40.86)" style="fill: #e6a900"/>
          <path d="M259.05,303.92h7.3v2.21h-10V285.26h2.73Z" transform="translate(-40.86)" style="fill: #e6a900"/>
          <path d="M272,287.48v7h7.6v2.24H272v7.18h8.5v2.25H269.25V285.24h11.23v2.24Z" transform="translate(-40.86)" style="fill: #e6a900"/>
          <path d="M304.94,301.49h-9.1l-1.68,4.64h-2.87l7.54-20.75H302l7.52,20.75h-2.88Zm-.78-2.22-3.77-10.53-3.78,10.53Z" transform="translate(-40.86)" style="fill: #e6a900"/>
        </g>
        <g style="isolation: isolate">
          <path d="M143.24,323.12A10,10,0,0,1,147,319.3a10.35,10.35,0,0,1,5.28-1.38,10.71,10.71,0,0,1,6,1.65,9.46,9.46,0,0,1,3.71,4.67h-3.26a6.53,6.53,0,0,0-2.5-2.9,7.23,7.23,0,0,0-3.91-1,7.61,7.61,0,0,0-3.92,1,7.1,7.1,0,0,0-2.72,2.89,10.14,10.14,0,0,0,0,8.74,7.16,7.16,0,0,0,2.72,2.89,7.61,7.61,0,0,0,3.92,1,7.31,7.31,0,0,0,3.91-1,6.45,6.45,0,0,0,2.5-2.89H162a9.36,9.36,0,0,1-3.71,4.63,10.78,10.78,0,0,1-6,1.63,10.44,10.44,0,0,1-5.28-1.36,9.92,9.92,0,0,1-3.76-3.79,11.67,11.67,0,0,1,0-11Z" transform="translate(-40.86)" style="fill: #e6a900"/>
          <path d="M178.33,334.42h-9.1l-1.68,4.64h-2.87l7.54-20.75h3.14l7.52,20.75H180Zm-.78-2.22-3.77-10.53L170,332.2Z" transform="translate(-40.86)" style="fill: #e6a900"/>
          <path d="M188.89,336.84h7.31v2.22h-10V318.19h2.72Z" transform="translate(-40.86)" style="fill: #e6a900"/>
          <path d="M201.83,336.84h7.3v2.22h-10V318.19h2.73Z" transform="translate(-40.86)" style="fill: #e6a900"/>
          <path d="M223.41,326.94v2.3H211.47v-2.3Z" transform="translate(-40.86)" style="fill: #e6a900"/>
          <path d="M241.06,329.24a5.43,5.43,0,0,1,1.49,1.86,5.16,5.16,0,0,1,.56,2.36,5.21,5.21,0,0,1-.81,2.86,5.49,5.49,0,0,1-2.35,2,8.39,8.39,0,0,1-3.64.73h-7.78V318.19H236a8.4,8.4,0,0,1,3.62.71,5.13,5.13,0,0,1,2.25,1.9,5,5,0,0,1,.75,2.69,4.7,4.7,0,0,1-1,3.07,5.65,5.65,0,0,1-2.65,1.75A4.44,4.44,0,0,1,241.06,329.24Zm-9.81-2h4.58a4.43,4.43,0,0,0,3-.9,3.49,3.49,0,0,0,0-5,4.53,4.53,0,0,0-3-.9h-4.52Zm8,8.65a3.32,3.32,0,0,0,1.13-2.67,3.42,3.42,0,0,0-1.19-2.74,4.89,4.89,0,0,0-3.21-1h-4.73v7.36h4.82A4.79,4.79,0,0,0,239.25,335.86Z" transform="translate(-40.86)" style="fill: #e6a900"/>
          <path d="M259.21,334.42h-9.1l-1.67,4.64h-2.88l7.55-20.75h3.14l7.51,20.75h-2.87Zm-.78-2.22-3.77-10.53-3.77,10.53Z" transform="translate(-40.86)" style="fill: #e6a900"/>
          <path d="M267.41,323.12a10.07,10.07,0,0,1,3.76-3.82,10.36,10.36,0,0,1,5.29-1.38,10.68,10.68,0,0,1,6,1.65,9.4,9.4,0,0,1,3.71,4.67h-3.26a6.53,6.53,0,0,0-2.5-2.9,7.22,7.22,0,0,0-3.9-1,7.63,7.63,0,0,0-3.93,1,7.16,7.16,0,0,0-2.72,2.89,10.14,10.14,0,0,0,0,8.74,7.23,7.23,0,0,0,2.72,2.89,7.62,7.62,0,0,0,3.93,1,7.3,7.3,0,0,0,3.9-1,6.45,6.45,0,0,0,2.5-2.89h3.26a9.3,9.3,0,0,1-3.71,4.63,10.75,10.75,0,0,1-6,1.63,10.45,10.45,0,0,1-5.29-1.36,10,10,0,0,1-3.76-3.79,11.67,11.67,0,0,1,0-11Z" transform="translate(-40.86)" style="fill: #e6a900"/>
          <path d="M301.48,339.06l-8.59-9.52v9.52h-2.72V318.19h2.72v9.67l8.62-9.67H305l-9.46,10.45L305,339.06Z" transform="translate(-40.86)" style="fill: #e6a900"/>
        </g>
      </g>
      <g id="Group_56" data-name="Group 56">
        <g id="Ellipse_1" data-name="Ellipse 1">
          <circle cx="180.83" cy="205.85" r="58.37" style="fill: #e6a900"/>
        </g>
      </g>
    </g>
    <g id="icon-envelope">
      <g id="envelope">
        <path d="M248.46,198.13V222a4.83,4.83,0,0,1-4.81,4.81H199.37a4.83,4.83,0,0,1-4.82-4.81V198.13a15.83,15.83,0,0,0,3,2.62q10.89,7.4,14.95,10.38c1.14.84,2.07,1.5,2.78,2a16.93,16.93,0,0,0,2.85,1.44,8.77,8.77,0,0,0,3.31.74h.06a8.81,8.81,0,0,0,3.31-.74,16.83,16.83,0,0,0,2.84-1.44c.71-.47,1.64-1.13,2.78-2q5.11-3.7,15-10.38a17.05,17.05,0,0,0,3-2.62Zm0-8.84a7.92,7.92,0,0,1-1.48,4.55,14,14,0,0,1-3.67,3.7l-14.07,9.78-1.28.92q-1,.7-1.62,1.14c-.43.29-1,.62-1.56,1a9.39,9.39,0,0,1-1.73.81,4.79,4.79,0,0,1-1.5.27h-.06a4.73,4.73,0,0,1-1.49-.27,8.82,8.82,0,0,1-1.73-.81c-.61-.36-1.13-.69-1.56-1s-1-.68-1.65-1.17l-1.28-.89q-2.75-1.94-7.88-5.49c-3.44-2.38-5.49-3.81-6.17-4.3a14.87,14.87,0,0,1-3.52-3.47,7.09,7.09,0,0,1-1.66-4.11A6.06,6.06,0,0,1,195.8,186a4.31,4.31,0,0,1,3.57-1.56h44.28a4.84,4.84,0,0,1,4.81,4.81Z" transform="translate(-40.86)" style="fill: #fff"/>
      </g>
    </g>
  </g>
</svg>
