<svg id="Layer_1" data-name="Layer 1" xmlns="http://www.w3.org/2000/svg" width="442.63" height="511.77" viewBox="0 0 442.63 511.77">
  <g id="Group_59" data-name="Group 59">
    <g id="Polygon_6" data-name="Polygon 6">
      <path d="M477.32,127.68l-.57,255.88L255.43,512,34.68,384.55l.57-255.88L256.57.23Z" transform="translate(-34.68 -0.23)" style="fill: #fff"/>
    </g>
    <g id="piggybank">
      <g id="Path_81" data-name="Path 81">
        <path d="M175.39,144.53c-2.75-1.35-4.13-1.35-6.88-2.7a9.23,9.23,0,0,0-9.63,5.4,8.44,8.44,0,0,0,2.75,10.85l2.75,2.7a6.31,6.31,0,0,0,6.88,0c1.38-2.7,4.14-4.05,5.5-6.76a65.18,65.18,0,0,1,34.37-21.64,113.25,113.25,0,0,1,52.28-4c4.13,0,8.25,1.35,12.37,1.35,1.38,0,2.75,0,2.75-1.35,6.86-14.87,19.26-23,34.37-27h1.37c-1.37,2.7-1.37,4-2.75,5.4a76,76,0,0,0-5.5,29.75,40.3,40.3,0,0,0,11,29.76l1.37,1.34,1.38,1.35c-2.75-8.1-5.51-16.23-4.14-24.33H317c2.75,2.7,5.5,4.05,8.25,6.76a56.52,56.52,0,0,1,15.12,24.34c2.75,6.76,4.13,8.11,8.25,8.11h6.88a7.87,7.87,0,0,1,8.24,7.45v25a7.23,7.23,0,0,1-6.2,8.13,7,7,0,0,1-2,0h-6.87a7.53,7.53,0,0,0-8.25,5.42,91.18,91.18,0,0,1-9.63,14.88A58.81,58.81,0,0,1,317,256.78a4.86,4.86,0,0,0-2.76,1.36c-2.75,1.33-2.75,4-2.75,6.71,1.38,2.7,1.38,4.06,2.75,6.77a9.45,9.45,0,0,1-5.5,12.17c-5.5,1.35-11,4.06-15.13,5.4a9.69,9.69,0,0,1-12.37-5.4c-1.37-2.7-2.75-6.77-4.13-9.47-1.38-4.06-2.75-4.06-6.88-4.06s-9.62,1.36-13.75,1.36a285.34,285.34,0,0,1-30.24-1.36h-2.75c-2.75,0-4.13,0-4.13,2.71-1.38,4-2.75,6.76-4.13,10.82-2.75,6.76-6.88,8.11-13.76,5.4-4.13-1.34-9.62-4.05-13.74-5.4-5.5-2.7-8.25-6.77-5.5-13.53a92.59,92.59,0,0,0,4.13-10.79c1.37-2.7,0-5.41-2.75-8.11a70.91,70.91,0,0,1-19.25-21.62c-6.88-9.47-8.25-20.29-6.88-32.46A66.77,66.77,0,0,1,160.26,181a10,10,0,0,0-1.38-6.76l-5.46-5.41c-6.88-8.11-6.88-21.64,0-28.4a11.16,11.16,0,0,1,12.37-5.4,13.48,13.48,0,0,1,9.62,9.47ZM332.12,195.9a13.49,13.49,0,0,0-13.75-12.17,12.17,12.17,0,0,0-.37,24.34h.37a13.45,13.45,0,0,0,13.77-12.17Z" transform="translate(-34.68 -0.23)" style="fill: #e6a900"/>
      </g>
      <g id="Path_82" data-name="Path 82">
        <path d="M244.2,120.09a146.08,146.08,0,0,0-34.79,5.8c-1.47,0-2.9,0-2.9-1.46-8.7-7.25-10.15-17.4-7.25-29A30.71,30.71,0,0,1,221,75.14c17.39-1.47,33.34,8.7,34.79,26.1a25,25,0,0,1-2.9,17.39l-1.47,1.46Z" transform="translate(-34.68 -0.23)" style="fill: #e6a900"/>
      </g>
    </g>
    <g id="BEST_PRICE_GUARANTEE" data-name="BEST PRICE GUARANTEE" style="isolation: isolate">
      <g style="isolation: isolate">
        <path d="M161.13,351.18a8,8,0,0,1,2.2,2.72,7.74,7.74,0,0,1,.81,3.48,7.63,7.63,0,0,1-1.19,4.21,8.09,8.09,0,0,1-3.45,2.94,12.31,12.31,0,0,1-5.35,1.08H142.71V334.94h11a12.48,12.48,0,0,1,5.33,1,7.57,7.57,0,0,1,3.3,2.79,7.39,7.39,0,0,1,1.1,4,6.85,6.85,0,0,1-1.47,4.51,8.31,8.31,0,0,1-3.9,2.57A6.47,6.47,0,0,1,161.13,351.18Zm-14.41-3h6.73a6.46,6.46,0,0,0,4.35-1.32,5.1,5.1,0,0,0,0-7.3,6.61,6.61,0,0,0-4.44-1.32h-6.64Zm11.75,12.72a4.85,4.85,0,0,0,1.67-3.91,5,5,0,0,0-1.76-4,7.14,7.14,0,0,0-4.71-1.47h-6.95v10.82h7.08A7.06,7.06,0,0,0,158.47,360.9Z" transform="translate(-34.68 -0.23)" style="fill: #e6a900"/>
        <path d="M173.69,338.19v10.26h11.18v3.3H173.69v10.56h12.5v3.3h-16.5V334.89h16.5v3.3Z" transform="translate(-34.68 -0.23)" style="fill: #e6a900"/>
        <path d="M196.56,364.84a9.05,9.05,0,0,1-3.77-3,7.6,7.6,0,0,1-1.4-4.43h4.26a5.64,5.64,0,0,0,1.79,3.64,6.4,6.4,0,0,0,4.55,1.47,6.62,6.62,0,0,0,4.51-1.43,4.64,4.64,0,0,0,1.65-3.68,4.17,4.17,0,0,0-1-2.85,6.21,6.21,0,0,0-2.42-1.68,38.72,38.72,0,0,0-3.92-1.23,34.56,34.56,0,0,1-4.87-1.58,7.85,7.85,0,0,1-3.12-2.49,7.29,7.29,0,0,1-1.3-4.56,7.89,7.89,0,0,1,1.28-4.44,8.26,8.26,0,0,1,3.58-3,12.55,12.55,0,0,1,5.31-1.06,11.09,11.09,0,0,1,7.06,2.16,7.9,7.9,0,0,1,3.1,5.72H207.5a4.79,4.79,0,0,0-1.86-3.1,6.52,6.52,0,0,0-4.31-1.35,6.26,6.26,0,0,0-4.09,1.3,4.44,4.44,0,0,0-1.59,3.63,3.93,3.93,0,0,0,.95,2.73,6.06,6.06,0,0,0,2.34,1.61c.92.36,2.22.78,3.89,1.25a37.38,37.38,0,0,1,4.88,1.65,8.07,8.07,0,0,1,3.17,2.51,7.31,7.31,0,0,1,1.32,4.6,8,8,0,0,1-1.19,4.23,8.71,8.71,0,0,1-3.51,3.21,11.69,11.69,0,0,1-5.51,1.23A13.06,13.06,0,0,1,196.56,364.84Z" transform="translate(-34.68 -0.23)" style="fill: #e6a900"/>
        <path d="M237,334.94v3.25h-8.36v27.42h-4V338.19h-8.41v-3.25Z" transform="translate(-34.68 -0.23)" style="fill: #e6a900"/>
        <path d="M271.55,350.28q-2.62,2.52-8,2.52h-5.89v12.81h-4V334.94h9.9c3.46,0,6.1.83,7.9,2.51a9.05,9.05,0,0,1,.09,12.83Zm-3.06-2.23a5.31,5.31,0,0,0,1.58-4.14q0-5.67-6.51-5.67h-5.89v11.27h5.89A7.1,7.1,0,0,0,268.49,348.05Z" transform="translate(-34.68 -0.23)" style="fill: #e6a900"/>
        <path d="M295.29,365.61,288,353.07h-4.84v12.54h-4V334.94H289a13.2,13.2,0,0,1,5.88,1.18,8.3,8.3,0,0,1,3.58,3.22,8.88,8.88,0,0,1,1.19,4.62,9.09,9.09,0,0,1-1.82,5.59,9,9,0,0,1-5.48,3.21l7.7,12.85Zm-12.14-15.75H289a6.72,6.72,0,0,0,4.89-1.61,5.74,5.74,0,0,0,1.63-4.29,5.51,5.51,0,0,0-1.61-4.23,7,7,0,0,0-4.91-1.49h-5.89Z" transform="translate(-34.68 -0.23)" style="fill: #e6a900"/>
        <path d="M309.9,334.94v30.67h-4V334.94Z" transform="translate(-34.68 -0.23)" style="fill: #e6a900"/>
        <path d="M317.25,342.18a14.68,14.68,0,0,1,5.53-5.61,15.12,15.12,0,0,1,7.77-2,15.82,15.82,0,0,1,8.76,2.42,13.82,13.82,0,0,1,5.45,6.87H340a9.62,9.62,0,0,0-3.67-4.27,10.63,10.63,0,0,0-5.74-1.5,11.16,11.16,0,0,0-5.77,1.5,10.52,10.52,0,0,0-4,4.24,13.76,13.76,0,0,0-1.45,6.45,13.58,13.58,0,0,0,1.45,6.4,10.42,10.42,0,0,0,4,4.25,11.16,11.16,0,0,0,5.77,1.5,10.71,10.71,0,0,0,5.74-1.48,9.43,9.43,0,0,0,3.67-4.24h4.8a13.78,13.78,0,0,1-5.45,6.8,15.9,15.9,0,0,1-8.76,2.4,15.4,15.4,0,0,1-7.77-2,14.65,14.65,0,0,1-5.53-5.57,17.11,17.11,0,0,1,0-16.13Z" transform="translate(-34.68 -0.23)" style="fill: #e6a900"/>
        <path d="M354.71,338.19v10.26h11.17v3.3H354.71v10.56h12.5v3.3H350.7V334.89h16.51v3.3Z" transform="translate(-34.68 -0.23)" style="fill: #e6a900"/>
      </g>
      <g style="isolation: isolate">
        <path d="M156.26,395.17a9.58,9.58,0,0,0-3.69-4.16,10.63,10.63,0,0,0-5.64-1.47,11.42,11.42,0,0,0-5.78,1.47,10.46,10.46,0,0,0-4.05,4.23,14.36,14.36,0,0,0,0,12.7,10.38,10.38,0,0,0,4.05,4.2,11.42,11.42,0,0,0,5.78,1.47,10.47,10.47,0,0,0,7.4-2.68,11.1,11.1,0,0,0,3.39-7.26H145.48v-3.26H162v3.08a15.23,15.23,0,0,1-2.38,6.93,14.7,14.7,0,0,1-5.32,5,15.06,15.06,0,0,1-7.36,1.82,15.55,15.55,0,0,1-7.79-2,14.65,14.65,0,0,1-5.56-5.57,15.8,15.8,0,0,1-2.05-8,16,16,0,0,1,2.05-8.08,14.71,14.71,0,0,1,5.56-5.59,16.43,16.43,0,0,1,16.44.42,13.82,13.82,0,0,1,5.48,6.82Z" transform="translate(-34.68 -0.23)" style="fill: #e6a900"/>
        <path d="M171.18,386.28v19.41q0,4.1,2,6.07a8.72,8.72,0,0,0,11.09,0q2-2,2-6.07V386.28h4v19.37a12.56,12.56,0,0,1-1.54,6.44,9.7,9.7,0,0,1-4.16,3.9,14.12,14.12,0,0,1-11.75,0,9.49,9.49,0,0,1-4.14-3.9,12.66,12.66,0,0,1-1.52-6.44V386.28Z" transform="translate(-34.68 -0.23)" style="fill: #e6a900"/>
        <path d="M215.11,410.14H201.73L199.26,417H195l11.09-30.5h4.62L221.8,417h-4.23ZM214,406.88l-5.54-15.49-5.55,15.49Z" transform="translate(-34.68 -0.23)" style="fill: #e6a900"/>
        <path d="M242.79,417l-7.3-12.54h-4.85V417h-4V386.28h9.9a13.19,13.19,0,0,1,5.88,1.19,8.22,8.22,0,0,1,3.58,3.21,8.88,8.88,0,0,1,1.19,4.62,9,9,0,0,1-1.83,5.59,8.88,8.88,0,0,1-5.47,3.22l7.7,12.85ZM230.64,401.2h5.9a6.67,6.67,0,0,0,4.89-1.61,5.77,5.77,0,0,0,1.62-4.29,5.48,5.48,0,0,0-1.6-4.22,7,7,0,0,0-4.91-1.5h-5.9Z" transform="translate(-34.68 -0.23)" style="fill: #e6a900"/>
        <path d="M271.53,410.14H258.15L255.69,417h-4.23l11.09-30.5h4.62L278.22,417H274Zm-1.15-3.26-5.54-15.49-5.54,15.49Z" transform="translate(-34.68 -0.23)" style="fill: #e6a900"/>
        <path d="M307.18,417h-4l-16.11-24.43V417h-4V386.24h4l16.11,24.38V386.24h4Z" transform="translate(-34.68 -0.23)" style="fill: #e6a900"/>
        <path d="M332.88,386.28v3.26h-8.36V417h-4V389.54h-8.4v-3.26Z" transform="translate(-34.68 -0.23)" style="fill: #e6a900"/>
        <path d="M341.81,389.54V399.8H353v3.29H341.81v10.57h12.5V417h-16.5V386.24h16.5v3.3Z" transform="translate(-34.68 -0.23)" style="fill: #e6a900"/>
        <path d="M364.39,389.54V399.8h11.18v3.29H364.39v10.57h12.5V417H360.38V386.24h16.51v3.3Z" transform="translate(-34.68 -0.23)" style="fill: #e6a900"/>
      </g>
    </g>
  </g>
</svg>
