<svg xmlns="http://www.w3.org/2000/svg" width="470.96mm" height="259.78mm" viewBox="0 0 1334.99 736.37">
  <g id="honeycombs">
    <polygon points="431.4 374.4 215.24 498.14 0 372.8 0.93 123.73 217.09 0 432.32 125.33 431.4 374.4" style="fill: #e6a800"/>
    <polygon points="882.73 374.4 666.57 498.14 451.33 372.8 452.26 123.73 668.42 0 883.66 125.33 882.73 374.4" style="fill: #e6a800"/>
    <polygon points="1334.07 374.4 1117.9 498.14 902.67 372.8 903.59 123.73 1119.75 0 1334.99 125.33 1334.07 374.4" style="fill: #e6a800"/>
  </g>
  <g id="suitcase">
    <g>
      <path d="M289.92,156.15H142.16c-15.69,0-28.45,11.95-28.45,26.64V345.05c0,14.69,12.76,26.64,28.45,26.64H163V319.88c0-17.86,15.94-32.39,35.53-32.39h35c19.59,0,35.53,14.53,35.53,32.39v51.81h20.86c15.69,0,28.46-11.95,28.46-26.64V182.79C318.38,168.1,305.61,156.15,289.92,156.15Z" style="fill: #fff"/>
      <path d="M233.53,295.25h-35c-15,0-27.24,11.05-27.24,24.63v51.81h89.46V319.88C260.77,306.3,248.55,295.25,233.53,295.25Z" style="fill: #fff"/>
      <path d="M163.14,337.19v35H142.28c-15.69,0-28.45-11.95-28.45-26.64v-35c0,14.69,12.76,26.64,28.45,26.64Z" style="fill: #cdf9f7"/>
      <path d="M318.5,310.55v35c0,14.69-12.77,26.64-28.46,26.64H269.18v-35H290C305.73,337.19,318.5,325.24,318.5,310.55Z" style="fill: #cdf9f7"/>
      <rect x="171.43" y="337.17" width="89.45" height="35.02" style="fill: #cdf9f7"/>
      <path d="M289.92,148.39H258.09V108.8h22.43V94.06h-129V108.8H174v39.59H142.16c-20.26,0-36.74,15.43-36.74,34.4V345.05c0,16,11.7,29.45,27.5,33.3a9.88,9.88,0,0,0-.81,3.91v4.55c0,5.82,5.06,10.56,11.29,10.56h20.53c6.22,0,11.28-4.74,11.28-10.56v-4.55a10,10,0,0,0-.41-2.81h82.48a10,10,0,0,0-.41,2.81v4.55c0,5.82,5.06,10.56,11.28,10.56h20.53c6.23,0,11.29-4.74,11.29-10.56v-4.55a9.88,9.88,0,0,0-.81-3.91c15.8-3.85,27.5-17.32,27.5-33.3V182.79C326.66,163.82,310.18,148.39,289.92,148.39ZM182.28,108.8H249.8v39.59H182.28Zm78.49,262.89H171.31V319.88c0-13.58,12.22-24.63,27.24-24.63h35c15,0,27.24,11.05,27.24,24.63Zm57.61-26.64c0,14.69-12.77,26.64-28.46,26.64H269.06V319.88c0-17.86-15.94-32.39-35.53-32.39h-35C179,287.49,163,302,163,319.88v51.81H142.16c-15.69,0-28.45-11.95-28.45-26.64V182.79c0-14.69,12.76-26.64,28.45-26.64H289.92c15.69,0,28.46,11.95,28.46,26.64Z" style="fill: #653f00"/>
    </g>
    <path d="M269.25,319v17.14h-.12V316.32C269.21,317.21,269.25,318.1,269.25,319Z" style="fill: #fff"/>
  </g>
  <g id="bed">
    <path d="M1090,216.88c0,21.67-18.12,40-39.57,40s-39.58-18.31-39.58-40a38.59,38.59,0,0,1,.7-7.33c3.53,18.31,19.9,32.64,38.88,32.64s35.35-14.33,38.87-32.64A38.59,38.59,0,0,1,1090,216.88Z" style="fill: #cdf9f7"/>
    <path d="M1089.33,209.55c-3.52,18.31-19.89,32.64-38.87,32.64s-35.35-14.33-38.88-32.64c3.52-18.32,19.9-32.66,38.88-32.66S1085.81,191.23,1089.33,209.55Z" style="fill: #fff"/>
    <path d="M1220,167.12H1110.2V278.8H991.37V135.86H968.5v232h22.87V320.25h259.84V367.9h22.88V228.05C1274.09,195,1249.29,167.12,1220,167.12Z" style="fill: #fff"/>
    <g>
      <rect x="991.42" y="301.22" width="259.79" height="24.66" style="fill: #cdf9f7"/>
      <rect x="977" y="301.22" width="14.42" height="66.95" style="fill: #cdf9f7"/>
      <rect x="1251.21" y="301.22" width="13.13" height="66.96" style="fill: #cdf9f7"/>
    </g>
    <path d="M1262.08,179.72c-11.36-12.86-26.33-19.95-42.13-19.95H1104.59V272.22H997V128.28H962.9V374.41H997v-48h248.64v48h34.08v-147A71.7,71.7,0,0,0,1262.08,179.72Zm12,188.45h-22.88v-48H991.37v48H968.5V134.52h22.87V278.45H1110.2V166H1220c29.34,0,54.14,28.1,54.14,61.36Z" style="fill: #68441c"/>
    <path d="M1050.46,262.42A44.63,44.63,0,0,0,1082.33,249a45.39,45.39,0,0,0,0-64.2,44.52,44.52,0,0,0-63.75,0,45.39,45.39,0,0,0,0,64.2A44.64,44.64,0,0,0,1050.46,262.42ZM1090,216.88c0,21.67-18.12,40-39.57,40s-39.58-18.31-39.58-40,18.13-40,39.58-40S1090,195.21,1090,216.88Z" style="fill: #68441c"/>
  </g>
  <g id="bee">
    <g>
      <path d="M590,152.71c0-.26,1.32-.36,3.54-.35s5.38.13,9.17.33l6.11.35,1.67.11c.31,0,.63.06,1,.11a8.14,8.14,0,0,1,1.17.25,6.69,6.69,0,0,1,3.89,2.88,8.53,8.53,0,0,1,.6,1.11,9.61,9.61,0,0,1,.4,1,15.87,15.87,0,0,1,.52,2c.14.63.24,1.26.35,1.82s.23,1.11.34,1.67c.2,1.11.54,2.21.82,3.33s.67,2.2,1,3.29a57.49,57.49,0,0,0,5.93,12.11,55.87,55.87,0,0,0,7.35,9.16,60.85,60.85,0,0,0,6.24,5.43c.8.6,1.46,1,1.89,1.34l.67.47-6.29,7.81-.74-.62c-.48-.42-1.2-1-2.06-1.79a69.25,69.25,0,0,1-6.63-7,63.88,63.88,0,0,1-12.56-25.29c-.27-1.25-.54-2.49-.74-3.74s-.41-2.49-.49-3.74c-.06-.62-.11-1.24-.17-1.85l-.12-1.67a13.91,13.91,0,0,0-.2-1.44,4.78,4.78,0,0,0-.15-.6c0-.15-.09-.29-.15-.43a2.35,2.35,0,0,0-1.3-1.29,3.26,3.26,0,0,0-.47-.17l-.69-.16-1.59-.29-6-1.12c-3.72-.71-6.82-1.34-9-1.86S590,153,590,152.71Z" style="fill: #653f00"/>
      <path d="M754.08,152.71c0,.26-1.18.66-3.34,1.18s-5.25,1.15-9,1.86l-6,1.12-1.59.29-.69.16a3.26,3.26,0,0,0-.47.17,2.35,2.35,0,0,0-1.3,1.29c-.06.14-.1.28-.15.43a4.78,4.78,0,0,0-.15.6,13.91,13.91,0,0,0-.2,1.44l-.12,1.67-.17,1.85c-.08,1.25-.32,2.48-.49,3.74s-.47,2.49-.74,3.74a63.71,63.71,0,0,1-12.57,25.29,68.23,68.23,0,0,1-6.62,7c-.86.79-1.58,1.37-2.06,1.79l-.74.62-6.29-7.81.67-.47c.43-.32,1.09-.74,1.89-1.34a61.94,61.94,0,0,0,6.24-5.43,55.87,55.87,0,0,0,7.35-9.16,57.49,57.49,0,0,0,5.93-12.11c.36-1.09.72-2.19,1-3.29s.62-2.22.82-3.33l.34-1.67c.11-.56.21-1.19.35-1.82a15.87,15.87,0,0,1,.52-2,8.74,8.74,0,0,1,.4-1,8,8,0,0,1,.6-1.12,6.69,6.69,0,0,1,3.89-2.88,9.77,9.77,0,0,1,1.17-.25c.34,0,.66-.08,1-.11l1.67-.11,6.11-.35c3.79-.19,7-.32,9.17-.33S754.05,152.45,754.08,152.71Z" style="fill: #653f00"/>
      <path d="M584.39,374.2c-.34.09-1.11-1.35-2.2-3.94s-2.49-6.32-4.12-10.82l-2.59-7.27c-.23-.66-.46-1.32-.69-2-.12-.36-.24-.74-.35-1.16a11.83,11.83,0,0,1-.28-1.46,8.2,8.2,0,0,1,1.63-6l.52-.65.58-.62a14.33,14.33,0,0,1,1.09-1,23.93,23.93,0,0,1,2.23-1.61c.73-.47,1.47-.9,2.13-1.31l1.93-1.24c1.32-.78,2.54-1.73,3.8-2.61s2.44-1.89,3.64-2.85a77.56,77.56,0,0,0,12.32-13,72.38,72.38,0,0,0,7.87-13.12,74.17,74.17,0,0,0,3.73-10c.36-1.22.57-2.2.75-2.86l.26-1,13,3.38-.42,1.17c-.28.76-.66,1.88-1.22,3.28a87.62,87.62,0,0,1-5.5,11.18,83.14,83.14,0,0,1-10.44,14.1,87.57,87.57,0,0,1-15.18,13.18c-1.44.93-2.88,1.87-4.35,2.74s-2.95,1.72-4.48,2.44l-2.26,1.12c-.74.36-1.41.66-2,1a17.51,17.51,0,0,0-1.7.95c-.25.16-.47.32-.68.48l-.24.18-.22.21a3,3,0,0,0-.95,2.17,5.09,5.09,0,0,0,0,.65c0,.27.09.57.15.89l.42,2c.55,2.67,1.08,5.2,1.56,7.53,1,4.67,1.68,8.58,2.1,11.34S584.73,374.11,584.39,374.2Z" style="fill: #653f00"/>
      <path d="M560.6,332.82c-.23-.09,0-1.26.58-3.24s1.51-4.77,2.67-8.1l1.91-5.37.51-1.44c.18-.48.36-1,.6-1.57a9.32,9.32,0,0,1,1-1.8,7,7,0,0,1,1.78-1.64,9.55,9.55,0,0,1,4.44-1.34c1.42-.1,2.67,0,3.76-.06a54.47,54.47,0,0,0,6.85-.53,59,59,0,0,0,13-3.51A62.15,62.15,0,0,0,608,298.9a67.61,67.61,0,0,0,6.54-4.82l2.29-2,6.4,7-2.86,2.08a74,74,0,0,1-8,4.82,70.39,70.39,0,0,1-12.21,4.94,65.59,65.59,0,0,1-14.88,2.62,57.57,57.57,0,0,1-7.67-.15c-1.31-.09-2.43-.27-3.37-.3a5,5,0,0,0-2.21.32,2.73,2.73,0,0,0-.75.52,4.49,4.49,0,0,0-.68.94c-.45.77-.93,1.8-1.38,2.68-.93,1.8-1.8,3.51-2.61,5.08-1.63,3.15-3,5.76-4.07,7.55S560.84,332.92,560.6,332.82Z" style="fill: #653f00"/>
      <path d="M758.34,374.2c-.35-.09-.25-1.71.16-4.47s1.15-6.67,2.09-11.34c.49-2.33,1-4.86,1.57-7.53l.42-2q.09-.48.15-.9a4.86,4.86,0,0,0,0-.64,3,3,0,0,0-1-2.17l-.22-.21a2.48,2.48,0,0,1-.24-.18c-.21-.16-.43-.32-.68-.48a17.51,17.51,0,0,0-1.7-.95c-.63-.32-1.3-.62-2-1l-2.26-1.12c-1.53-.72-3-1.61-4.48-2.44s-2.91-1.81-4.35-2.74a87.57,87.57,0,0,1-15.18-13.18,83.68,83.68,0,0,1-10.44-14.1,87.62,87.62,0,0,1-5.5-11.18c-.56-1.4-.94-2.52-1.22-3.28l-.42-1.17,13-3.38.25,1c.18.66.4,1.64.75,2.86a74.17,74.17,0,0,0,3.73,10,72.78,72.78,0,0,0,7.87,13.13A77.9,77.9,0,0,0,751,329.69c1.2,1,2.4,1.94,3.64,2.85s2.49,1.83,3.8,2.62l1.93,1.23c.66.41,1.4.84,2.13,1.31a23.93,23.93,0,0,1,2.23,1.61c.37.31.74.64,1.09,1l.58.62.52.65a8.2,8.2,0,0,1,1.63,6,11.83,11.83,0,0,1-.28,1.46c-.11.42-.23.8-.35,1.16l-.69,2-2.59,7.27c-1.63,4.5-3,8.23-4.12,10.82S758.68,374.29,758.34,374.2Z" style="fill: #653f00"/>
      <path d="M782.12,332.82c-.23.1-.93-.89-2-2.69s-2.44-4.4-4.07-7.55c-.81-1.57-1.68-3.28-2.61-5.08-.45-.88-.93-1.91-1.38-2.68a4.77,4.77,0,0,0-.68-.94,2.73,2.73,0,0,0-.75-.52,5,5,0,0,0-2.21-.32c-.94,0-2.06.21-3.36.3a57.76,57.76,0,0,1-7.68.15,65.59,65.59,0,0,1-14.88-2.62,70.27,70.27,0,0,1-12.2-4.94,73.32,73.32,0,0,1-8-4.82L719.49,299l6.4-7,2.29,2a67.61,67.61,0,0,0,6.54,4.82A62.15,62.15,0,0,0,745,304.22a59,59,0,0,0,13,3.51,54.47,54.47,0,0,0,6.85.53c1.09.05,2.34,0,3.76.07a9.41,9.41,0,0,1,4.44,1.33,7,7,0,0,1,1.78,1.64,9.32,9.32,0,0,1,1,1.8c.24.57.42,1.09.6,1.57s.34,1,.51,1.44c.68,1.91,1.32,3.71,1.9,5.37,1.16,3.33,2.09,6.12,2.68,8.1S782.36,332.73,782.12,332.82Z" style="fill: #653f00"/>
      <path d="M726.28,293.28a112.32,112.32,0,0,1-14.69,4.93,163.44,163.44,0,0,1-41.33,5.06c-20,0-38.36-3.26-52.73-8.68a99.25,99.25,0,0,1,3.33-13.67,81.65,81.65,0,0,1,15.2-28,61.71,61.71,0,0,1,6.86-6.86,37.83,37.83,0,0,1-5.18-6.85,36.88,36.88,0,0,1-3.87-9.16,36.37,36.37,0,0,1-1.28-9.62,36.74,36.74,0,0,1,5.94-20,37.31,37.31,0,0,1,5.61-6.81,38.89,38.89,0,0,1-5.79-6.89,36.76,36.76,0,0,1-6.1-20.28c0-18.51,13.78-33.94,32-37.39a41,41,0,0,1,7.74-.73c22,0,39.78,17.07,39.78,38.12a37.24,37.24,0,0,1-11.55,26.85,37.22,37.22,0,0,1,11.89,27.17A36.57,36.57,0,0,1,710.6,231a37.64,37.64,0,0,1-9.1,15.38c9.46,8.19,17,20.2,21.66,34.5A100.51,100.51,0,0,1,726.28,293.28Z" style="fill: #653f00"/>
      <path d="M724.26,341.39c-8.14,29.19-28.46,49.88-52.23,49.88a40.72,40.72,0,0,1-7.75-.75c-20.39-3.93-37.29-23.19-44.52-49.18,14.3,5.33,32.51,8.53,52.32,8.53a167.87,167.87,0,0,0,35.2-3.59A125.26,125.26,0,0,0,724.26,341.39Z" style="fill: #653f00"/>
      <path d="M728.08,313a105.43,105.43,0,0,1-3.82,28.42,125.26,125.26,0,0,1-17,4.89,167.87,167.87,0,0,1-35.2,3.59c-19.81,0-38-3.2-52.32-8.53A105.52,105.52,0,0,1,616,313a107.83,107.83,0,0,1,1.56-18.38c14.37,5.42,32.73,8.68,52.73,8.68a163.44,163.44,0,0,0,41.33-5.06,112.32,112.32,0,0,0,14.69-4.93A107.76,107.76,0,0,1,728.08,313Z" style="fill: #e6a800"/>
      <path d="M726.4,292.93l-1,.4a109.57,109.57,0,0,1-12.16,4.1c-.18-.25-.36-.49-.54-.75-13-17.94-25.43-43.68-39.43-60.88l-.24-.3a.79.79,0,0,1-.12.3A11.53,11.53,0,0,1,672,237c-14.51,17.69-28.1,42.91-41.6,61.17a117.08,117.08,0,0,1-12.78-4c.49-2.9,1.1-5.74,1.82-8.5.46-1.75.95-3.48,1.5-5.17.44-1.37.92-2.73,1.41-4.06a80.06,80.06,0,0,1,13.79-23.94A60.87,60.87,0,0,1,643,245.7a37.78,37.78,0,0,1-5.17-6.85c-.18-.27-.33-.55-.48-.83a35.91,35.91,0,0,1-3.4-8.33,2.63,2.63,0,0,1-.08-.3,112.22,112.22,0,0,0,37.46,6.11c14.86,0,28.63-2.6,39.93-7-.17.73-.36,1.45-.58,2.17a37.38,37.38,0,0,1-2.58,6.35,38.41,38.41,0,0,1-6.52,9c8.55,7.41,15.59,17.94,20.26,30.47.49,1.32,1,2.66,1.41,4l.45,1.48A103.23,103.23,0,0,1,726.4,292.93Z" style="fill: #442b06"/>
      <path d="M630.32,299.42a135,135,0,0,1-12.65,14.89c-.55.56-1.11,1.11-1.68,1.66,0-.72,0-1.43,0-2.14a107.86,107.86,0,0,1,1.56-18.39A120.22,120.22,0,0,0,630.32,299.42Z" style="fill: #a37819"/>
      <path d="M727,312.05c0,.71,0,1.42,0,2.13-.57-.54-1.12-1.09-1.68-1.65a134.37,134.37,0,0,1-13.21-15.68,106.57,106.57,0,0,0,13.12-4.5A108,108,0,0,1,727,312.05Z" style="fill: #bc9124"/>
      <path d="M673.3,235.8h-.36a.79.79,0,0,0,.12-.3Z" style="fill: #4c2307"/>
      <path d="M726.28,293.28a112.32,112.32,0,0,1-14.69,4.93l-1.47.38q-.35-2.68-.84-5.31a100.51,100.51,0,0,0-3.12-12.41c-4.61-14.3-12.21-26.31-21.67-34.5a37.43,37.43,0,0,0,9.1-15.38,36.24,36.24,0,0,0,1.56-10.57,37.25,37.25,0,0,0-11.88-27.17,37.24,37.24,0,0,0,11.55-26.85c0-18.26-13.4-33.51-31.28-37.24.25,0,.5-.11.76-.15a41,41,0,0,1,7.74-.73c22,0,39.78,17.07,39.78,38.12a37.24,37.24,0,0,1-11.55,26.85,37.22,37.22,0,0,1,11.89,27.17A36.57,36.57,0,0,1,710.6,231a37.64,37.64,0,0,1-9.1,15.38c9.46,8.19,17,20.2,21.66,34.5A100.51,100.51,0,0,1,726.28,293.28Z" style="fill: #442b06"/>
      <path d="M724.26,341.39c-8.14,29.19-28.46,49.88-52.23,49.88a40.72,40.72,0,0,1-7.75-.75c-.25,0-.5-.1-.75-.16,18.64-4,34.26-20.76,42.1-43.74l1.65-.34A125.26,125.26,0,0,0,724.26,341.39Z" style="fill: #442b06"/>
      <path d="M619.76,341.36c8.14,29.19,28.46,49.88,52.23,49.88a39.93,39.93,0,0,0,7.75-.75l.75-.15c-18.64-4-34.26-20.76-42.1-43.74l-1.65-.35A122.44,122.44,0,0,1,619.76,341.36Z" style="fill: #996929"/>
      <path d="M728.08,313a105.43,105.43,0,0,1-3.82,28.42,125.26,125.26,0,0,1-17,4.89l-1.65.34q.89-2.56,1.62-5.23A105.43,105.43,0,0,0,711.07,313a107.42,107.42,0,0,0-1-14.38l1.47-.38a112.32,112.32,0,0,0,14.69-4.93A107.76,107.76,0,0,1,728.08,313Z" style="fill: #a37819"/>
      <path d="M615.32,313a105.43,105.43,0,0,0,3.81,28.42,125.68,125.68,0,0,0,17,4.89l1.65.34c-.59-1.71-1.12-3.45-1.62-5.23A105.43,105.43,0,0,1,632.32,313a109.11,109.11,0,0,1,.95-14.38l-1.47-.38a112.32,112.32,0,0,1-14.69-4.93A107.77,107.77,0,0,0,615.32,313Z" style="fill: #ffe2b8"/>
      <path d="M726.28,293.28a112.32,112.32,0,0,1-14.69,4.93,163.44,163.44,0,0,1-41.33,5.06c-20,0-38.36-3.26-52.73-8.68a99.25,99.25,0,0,1,3.33-13.67,81.65,81.65,0,0,1,15.2-28,61.71,61.71,0,0,1,6.86-6.86,37.83,37.83,0,0,1-5.18-6.85,36.88,36.88,0,0,1-3.87-9.16,36.37,36.37,0,0,1-1.28-9.62,36.74,36.74,0,0,1,5.94-20,37.31,37.31,0,0,1,5.61-6.81,38.89,38.89,0,0,1-5.79-6.89,36.76,36.76,0,0,1-6.1-20.28c0-18.51,13.78-33.94,32-37.39a41,41,0,0,1,7.74-.73c22,0,39.78,17.07,39.78,38.12a37.24,37.24,0,0,1-11.55,26.85,37.22,37.22,0,0,1,11.89,27.17A36.57,36.57,0,0,1,710.6,231a37.64,37.64,0,0,1-9.1,15.38c9.46,8.19,17,20.2,21.66,34.5A100.51,100.51,0,0,1,726.28,293.28Z" style="fill: none;stroke: #653f00;stroke-miterlimit: 10;stroke-width: 7.627303212231764px"/>
      <path d="M724.26,341.39c-8.14,29.19-28.46,49.88-52.23,49.88a40.72,40.72,0,0,1-7.75-.75c-20.39-3.93-37.29-23.19-44.52-49.18,14.3,5.33,32.51,8.53,52.32,8.53a167.87,167.87,0,0,0,35.2-3.59A125.26,125.26,0,0,0,724.26,341.39Z" style="fill: none;stroke: #653f00;stroke-miterlimit: 10;stroke-width: 7.627303212231764px"/>
      <path d="M728.08,313a105.43,105.43,0,0,1-3.82,28.42,125.26,125.26,0,0,1-17,4.89,167.87,167.87,0,0,1-35.2,3.59c-19.81,0-38-3.2-52.32-8.53A105.52,105.52,0,0,1,616,313a107.83,107.83,0,0,1,1.56-18.38c14.37,5.42,32.73,8.68,52.73,8.68a163.44,163.44,0,0,0,41.33-5.06,112.32,112.32,0,0,0,14.69-4.93A107.76,107.76,0,0,1,728.08,313Z" style="fill: none;stroke: #653f00;stroke-miterlimit: 10;stroke-width: 7.627303212231764px"/>
      <path d="M622.74,111a11.09,11.09,0,0,0-5-.61c-1.65.28-3.25,1.5-3.38,3.1a3.86,3.86,0,0,0,2.34,3.5,14.51,14.51,0,0,0,4.43,1.12c12.39,2,21.36,8.23,30.24,16.24,3.63-3.24-7.77-12.77-10.23-14.58A59.44,59.44,0,0,0,622.74,111Z" style="fill: #653f00"/>
      <path d="M721,111a11.09,11.09,0,0,1,5-.61c1.65.28,3.25,1.5,3.38,3.1A3.86,3.86,0,0,1,727,117a14.51,14.51,0,0,1-4.43,1.12c-12.39,2-21.37,8.23-30.24,16.24-3.63-3.24,7.76-12.77,10.23-14.58A59.44,59.44,0,0,1,721,111Z" style="fill: #653f00"/>
      <g>
        <path d="M669,236.38c-24.65,16.68-43.5,40.32-69.8,54.76-17.88,9.81-38,15.76-57.8,14.28-9.86-.74-20.16-3.75-26.13-11.63-9.83-13-7.46-26.65.37-38.62a49.38,49.38,0,0,0,11.87,6.89c18.09,7.63,38.77,8.2,58.46,4.31,28.95-5.72,53.66-22.66,81.73-31.06,4.26-1.28,5.27-2.45,4.54-4.18C673.31,232.5,672.63,233.91,669,236.38Z" style="fill: none;stroke: #000;stroke-miterlimit: 10;stroke-width: 3.605771821957344px"/>
        <path d="M667.67,235.31c-28.07,8.4-52.78,25.34-81.73,31.06-19.69,3.89-40.37,3.32-58.46-4.31a49.38,49.38,0,0,1-11.87-6.89,27.82,27.82,0,0,1-9.21-12.54c-12.11-35.17,34.81-54.34,60.48-55.32a141.58,141.58,0,0,1,36.84,3.46c19.26,4.38,38.49,12.19,53.86,24.7A75.51,75.51,0,0,1,668.31,226c1.84,2.23,3.36,3.86,3.9,5.16C672.94,232.86,671.93,234,667.67,235.31Z" style="fill: #fff;stroke: #000;stroke-miterlimit: 10;stroke-width: 3.605771821957344px"/>
        <path d="M669,236.38c-12.08,8.18-22.77,18-33.63,27.64-11.29,10-22.75,19.77-36.17,27.12-17.88,9.81-38,15.76-57.8,14.28-9.86-.74-20.16-3.75-26.13-11.63a29.52,29.52,0,0,1-6.47-18.41c.05-7,2.67-13.84,6.84-20.21a49.38,49.38,0,0,0,11.87,6.89c18.09,7.63,38.77,8.2,58.46,4.31,28.95-5.72,53.66-22.66,81.73-31.06,4.26-1.28,5.27-2.45,4.54-4.18C673.31,232.5,672.63,233.91,669,236.38Z" style="fill: #fff;stroke: #000;stroke-miterlimit: 10;stroke-width: 3.605771821957344px"/>
        <path d="M635.34,264c-11.29,10-22.75,19.77-36.17,27.12-17.88,9.81-38,15.76-57.8,14.28-9.86-.74-20.16-3.75-26.13-11.63a29.52,29.52,0,0,1-6.47-18.41c.34-.58.7-1.15,1.07-1.72a49.44,49.44,0,0,0,11.87,6.89c18.09,7.63,38.78,8.2,58.46,4.31S617.32,272,635.34,264Z" style="fill: #cdf9f7"/>
        <path d="M667.67,235.31a231.15,231.15,0,0,0-27.9,10.81C622.22,254,605,262.6,585.94,266.37c-19.69,3.89-40.37,3.32-58.46-4.31a49.38,49.38,0,0,1-11.87-6.89c-.26-.21-.52-.42-.77-.64a27.29,27.29,0,0,1-8.44-11.9c-3.61-10.47-2-19.53,2.77-27.1a33.47,33.47,0,0,0,1.94,12,27.36,27.36,0,0,0,8.44,11.89c.25.22.51.44.77.64a49.47,49.47,0,0,0,11.87,6.9c18.09,7.62,38.78,8.2,58.46,4.31,19.07-3.77,36.29-12.4,53.84-20.26,6.82-3.05,13.7-6,20.75-8.47.31.32.61.65.92,1,.74.8,1.46,1.62,2.15,2.47,1.84,2.23,3.36,3.86,3.9,5.16C672.94,232.86,671.93,234,667.67,235.31Z" style="fill: #cdf9f7"/>
        <path d="M669,236.38c-24.65,16.68-43.5,40.32-69.8,54.76-17.88,9.81-38,15.76-57.8,14.28-9.86-.74-20.16-3.75-26.13-11.63-9.83-13-7.46-26.65.37-38.62a49.38,49.38,0,0,0,11.87,6.89c18.09,7.63,38.77,8.2,58.46,4.31,28.95-5.72,53.66-22.66,81.73-31.06,4.26-1.28,5.27-2.45,4.54-4.18C673.31,232.5,672.63,233.91,669,236.38Z" style="fill: none;stroke: #653f00;stroke-miterlimit: 10;stroke-width: 7.627303212231764px"/>
        <path d="M667.67,235.31c-28.07,8.4-52.78,25.34-81.73,31.06-19.69,3.89-40.37,3.32-58.46-4.31a49.38,49.38,0,0,1-11.87-6.89,27.82,27.82,0,0,1-9.21-12.54c-12.11-35.17,34.81-54.34,60.48-55.32a141.58,141.58,0,0,1,36.84,3.46c19.26,4.38,38.49,12.19,53.86,24.7A75.51,75.51,0,0,1,668.31,226c1.84,2.23,3.36,3.86,3.9,5.16C672.94,232.86,671.93,234,667.67,235.31Z" style="fill: none;stroke: #653f00;stroke-miterlimit: 10;stroke-width: 7.627303212231764px"/>
      </g>
      <g>
        <path d="M677.44,236.44c24.66,16.68,43.5,40.33,69.8,54.77,17.88,9.81,38,15.76,57.8,14.27,9.86-.74,20.16-3.75,26.13-11.62,9.84-13,7.46-26.66-.36-38.63a49.81,49.81,0,0,1-11.87,6.9c-18.09,7.62-38.78,8.19-58.46,4.31-29-5.73-53.66-22.67-81.74-31.07-4.26-1.27-5.26-2.44-4.54-4.18C673.1,232.57,673.79,234,677.44,236.44Z" style="fill: none;stroke: #000;stroke-miterlimit: 10;stroke-width: 3.605771821957344px"/>
        <path d="M678.74,235.37c28.08,8.4,52.78,25.34,81.74,31.07,19.68,3.88,40.37,3.31,58.46-4.31a49.81,49.81,0,0,0,11.87-6.9A27.81,27.81,0,0,0,840,242.7c12.1-35.18-34.82-54.35-60.49-55.32a142,142,0,0,0-36.83,3.45c-19.27,4.39-38.49,12.2-53.87,24.7A76.6,76.6,0,0,0,678.1,226c-1.84,2.24-3.36,3.86-3.9,5.16C673.48,232.93,674.48,234.1,678.74,235.37Z" style="fill: #fff;stroke: #000;stroke-miterlimit: 10;stroke-width: 3.605771821957344px"/>
        <path d="M677.44,236.44c12.08,8.18,22.77,18,33.64,27.64,11.28,10,22.75,19.77,36.16,27.13,17.88,9.81,38,15.76,57.8,14.27,9.86-.74,20.16-3.75,26.13-11.62a29.55,29.55,0,0,0,6.48-18.41c-.06-7-2.68-13.85-6.84-20.22a49.81,49.81,0,0,1-11.87,6.9c-18.09,7.62-38.78,8.19-58.46,4.31-29-5.73-53.66-22.67-81.74-31.07-4.26-1.27-5.26-2.44-4.54-4.18C673.1,232.57,673.79,234,677.44,236.44Z" style="fill: #fff;stroke: #000;stroke-miterlimit: 10;stroke-width: 3.605771821957344px"/>
        <path d="M711.08,264.08c11.28,10,22.75,19.77,36.16,27.13,17.88,9.81,38,15.76,57.8,14.27,9.86-.74,20.16-3.75,26.13-11.62a29.55,29.55,0,0,0,6.48-18.41c-.35-.58-.7-1.16-1.08-1.73a49.42,49.42,0,0,1-11.87,6.9c-18.09,7.62-38.77,8.2-58.46,4.31S729.09,272.09,711.08,264.08Z" style="fill: #cdf9f7"/>
        <path d="M678.74,235.37a231.15,231.15,0,0,1,27.9,10.81c17.55,7.86,34.77,16.49,53.84,20.26,19.68,3.88,40.37,3.31,58.46-4.31a49.81,49.81,0,0,0,11.87-6.9c.26-.21.52-.42.77-.64A27.36,27.36,0,0,0,840,242.7c3.61-10.48,2-19.53-2.78-27.11a33.12,33.12,0,0,1-1.94,12,27.26,27.26,0,0,1-8.44,11.89c-.25.22-.51.43-.77.64A49.06,49.06,0,0,1,814.22,247c-18.09,7.63-38.77,8.2-58.46,4.32-19.07-3.77-36.28-12.4-53.83-20.26-6.83-3.05-13.7-6-20.76-8.48l-.91,1c-.74.81-1.46,1.63-2.16,2.47-1.84,2.24-3.36,3.86-3.9,5.16C673.48,232.93,674.48,234.1,678.74,235.37Z" style="fill: #cdf9f7"/>
        <path d="M677.44,236.44c24.66,16.68,43.5,40.33,69.8,54.77,17.88,9.81,38,15.76,57.8,14.27,9.86-.74,20.16-3.75,26.13-11.62,9.84-13,7.46-26.66-.36-38.63a49.81,49.81,0,0,1-11.87,6.9c-18.09,7.62-38.78,8.19-58.46,4.31-29-5.73-53.66-22.67-81.74-31.07-4.26-1.27-5.26-2.44-4.54-4.18C673.1,232.57,673.79,234,677.44,236.44Z" style="fill: none;stroke: #653f00;stroke-miterlimit: 10;stroke-width: 7.627303212231764px"/>
        <path d="M678.74,235.37c28.08,8.4,52.78,25.34,81.74,31.07,19.68,3.88,40.37,3.31,58.46-4.31a49.81,49.81,0,0,0,11.87-6.9A27.81,27.81,0,0,0,840,242.7c12.1-35.18-34.82-54.35-60.49-55.32a142,142,0,0,0-36.83,3.45c-19.27,4.39-38.49,12.2-53.87,24.7A76.6,76.6,0,0,0,678.1,226c-1.84,2.24-3.36,3.86-3.9,5.16C673.48,232.93,674.48,234.1,678.74,235.37Z" style="fill: none;stroke: #653f00;stroke-miterlimit: 10;stroke-width: 7.627303212231764px"/>
      </g>
    </g>
  </g>
  <g id="text">
    <g>
      <g>
        <path d="M123.13,521.56V732H69.58V643.58h-16V732H0V521.56H53.55V596.8h16V521.56Z" style="fill: #e6a800"/>
        <path d="M267,644.75q0,31.71-1.47,44.9a50.94,50.94,0,0,1-9.16,24.11,49.5,49.5,0,0,1-20.79,16.76q-13.11,5.85-30.53,5.85a76.11,76.11,0,0,1-29.7-5.52,49,49,0,0,1-21.18-16.57,50.34,50.34,0,0,1-9.54-24q-1.53-13-1.53-45.49v-36q0-31.71,1.46-44.9a51,51,0,0,1,9.16-24.11A49.47,49.47,0,0,1,174.52,523q13.1-5.85,30.53-5.85a76.18,76.18,0,0,1,29.7,5.52,49,49,0,0,1,21.18,16.57,50.48,50.48,0,0,1,9.54,24q1.53,13,1.53,45.49Zm-53.56-69.13q0-14.68-1.59-18.78t-6.55-4.09a7.25,7.25,0,0,0-6.42,3.31q-2.24,3.32-2.23,19.56v98.24q0,18.33,1.47,22.62t6.8,4.29q5.47,0,7-4.94t1.52-23.52Z" style="fill: #e6a800"/>
        <path d="M340.52,521.56V689.85h32.56V732H287V521.56Z" style="fill: #e6a800"/>
        <path d="M439.61,521.56V732H386.06V521.56Z" style="fill: #e6a800"/>
        <path d="M461.1,521.56h40.07q38.8,0,52.47,3.64t20.8,11.95a38.22,38.22,0,0,1,8.9,18.52q1.78,10.2,1.79,40.09v73.68q0,28.34-2.61,37.89t-9.1,14.94a37.41,37.41,0,0,1-16,7.54Q547.85,732,528.65,732H461.1Zm53.56,36V696q11.57,0,14.24-4.75t2.67-25.79V583.67q0-14.29-.89-18.32a8.69,8.69,0,0,0-4.07-5.91Q523.43,557.55,514.66,557.56Z" style="fill: #e6a800"/>
        <path d="M697.66,521.56,728.29,732H673.56l-2.87-37.82H651.53L648.31,732H593l27.31-210.39ZM669.28,656.84q-4.06-35.75-8.15-88.37-8.19,60.43-10.28,88.37Z" style="fill: #e6a800"/>
        <path d="M835.84,521.56,796.79,655.8V732H747.18V655.8L709.52,521.56h49.2q11.53,61.61,13,82.91,4.46-33.68,14.91-82.91Z" style="fill: #e6a800"/>
      </g>
      <g>
        <path d="M855.7,521.56h53.42q25.3,0,38.36,4t21,16.3q8,12.29,8,39.55,0,18.44-5.66,25.71t-22.32,11.17q18.56,4.29,25.18,14.24T980.35,663v19.5q0,21.33-4.77,31.6a25.87,25.87,0,0,1-15.19,14Q950,731.95,917.64,732H855.7Zm53.55,36v46.78c2.29-.09,4.07-.13,5.34-.13q7.89,0,10-4t2.16-22.67q0-9.89-1.78-13.84c-1.19-2.64-2.73-4.31-4.64-5S914.76,557.64,909.25,557.56Zm0,79.52V696q11.31-.4,14.43-3.64t3.12-16V656.71q0-13.51-2.8-16.37T909.25,637.08Z" style="fill: #64410f"/>
        <path d="M1121.29,521.56v140.6q0,23.93-1.52,33.6t-9,19.88A47,47,0,0,1,1091,731.11q-12.27,5.26-28.93,5.26-18.45,0-32.57-6.24t-21.11-16.24a45.5,45.5,0,0,1-8.27-21.12q-1.27-11.12-1.27-46.72V521.56h53.55V679.32q0,13.78,1.46,17.61t5.92,3.84q5.08,0,6.55-4.23t1.46-19.95v-155Z" style="fill: #64410f"/>
        <path d="M1231.58,521.56v42.1L1191.7,689.85h39.88V732h-98.71V701.41l41.21-137.75H1137.7v-42.1Z" style="fill: #64410f"/>
        <path d="M1335,521.56v42.1l-39.88,126.19H1335V732h-98.71V701.41l41.22-137.75h-36.38v-42.1Z" style="fill: #64410f"/>
      </g>
    </g>
  </g>
</svg>
